<svg xmlns="http://www.w3.org/2000/svg" xmlns:xlink="http://www.w3.org/1999/xlink" viewBox="0 0 1024 1024"><defs><style>.cls-1{fill:#fff;fill-opacity:0;}.cls-2{fill:#47b0f1;opacity:0.05;}.cls-2,.cls-3,.cls-34,.cls-4{isolation:isolate;}.cls-3,.cls-4{opacity:0.1;}.cls-3{fill:url(#未命名的渐变_30);}.cls-4{fill:url(#未命名的渐变_30-2);}.cls-5{fill:url(#未命名的渐变_3);}.cls-6{fill:url(#未命名的渐变_30-3);}.cls-7{fill:url(#未命名的渐变_30-4);}.cls-8{fill:url(#未命名的渐变_30-5);}.cls-9{fill:url(#未命名的渐变_30-6);}.cls-10{fill:url(#未命名的渐变_30-7);}.cls-11{fill:url(#未命名的渐变_30-8);}.cls-12{fill:url(#未命名的渐变_30-9);}.cls-13{fill:url(#未命名的渐变_30-10);}.cls-14{fill:url(#未命名的渐变_12);}.cls-15{fill:url(#未命名的渐变_30-11);}.cls-16{fill:url(#未命名的渐变_30-12);}.cls-17{fill:url(#未命名的渐变_30-13);}.cls-18{fill:url(#未命名的渐变_30-14);}.cls-19{fill:url(#未命名的渐变_30-15);}.cls-20{fill:url(#未命名的渐变_30-16);}.cls-21{fill:url(#未命名的渐变_30-17);}.cls-22{fill:url(#未命名的渐变_30-18);}.cls-23{fill:url(#未命名的渐变_30-19);}.cls-24{fill:url(#未命名的渐变_30-20);}.cls-25{fill:url(#未命名的渐变_30-21);}.cls-26{fill:url(#未命名的渐变_30-22);}.cls-27{fill:url(#未命名的渐变_30-23);}.cls-28{fill:url(#未命名的渐变_30-24);}.cls-29{fill:url(#未命名的渐变_31);}.cls-30{fill:url(#未命名的渐变_30-25);}.cls-31{fill:url(#未命名的渐变_31-2);}.cls-32{fill:url(#未命名的渐变_30-26);}.cls-33{fill:url(#未命名的渐变_31-3);}.cls-34{opacity:0.4;fill:url(#未命名的渐变_32);}.cls-35{fill:#ebb0b0;}.cls-36{fill:#131322;}.cls-37{fill:#333;}.cls-38{fill:url(#未命名的渐变_34);}.cls-39{fill:url(#未命名的渐变_34-2);}.cls-40{fill:url(#未命名的渐变_36);}.cls-41{fill-rule:evenodd;}.cls-42{fill:#efba9e;}.cls-43{fill:url(#未命名的渐变_36-2);}</style><linearGradient id="未命名的渐变_30" x1="212.14" y1="933.32" x2="212.78" y2="933.35" gradientTransform="matrix(124, 0, 0, -46, -26252, 43255.93)" gradientUnits="userSpaceOnUse"><stop offset="0" stop-color="#98d6fa"></stop><stop offset="1" stop-color="#47b0f1"></stop></linearGradient><linearGradient id="未命名的渐变_30-2" x1="212.14" y1="933.32" x2="212.78" y2="933.35" gradientTransform="matrix(124, 0, 0, -46, -25552, 43085.93)" xlink:href="#未命名的渐变_30"></linearGradient><linearGradient id="未命名的渐变_3" x1="213.77" y1="931.76" x2="214.77" y2="931.76" gradientTransform="matrix(930, 0, 0, -246, -198744, 230046.9)" gradientUnits="userSpaceOnUse"><stop offset="0" stop-color="#fff5de"></stop><stop offset="1" stop-color="#fbd2ac"></stop></linearGradient><linearGradient id="未命名的渐变_30-3" x1="211.01" y1="934.89" x2="211.64" y2="934.91" gradientTransform="matrix(74.87, 0, 0, -25.58, -15158.72, 24124.51)" xlink:href="#未命名的渐变_30"></linearGradient><linearGradient id="未命名的渐变_30-4" x1="209.74" y1="936.45" x2="210.38" y2="936.47" gradientTransform="matrix(51.89, 0, 0, -17.72, -10147.3, 16802.7)" xlink:href="#未命名的渐变_30"></linearGradient><linearGradient id="未命名的渐变_30-5" x1="209.74" y1="936.45" x2="210.38" y2="936.47" gradientTransform="matrix(51.89, 0, 0, -17.72, -10182.09, 16768.22)" xlink:href="#未命名的渐变_30"></linearGradient><linearGradient id="未命名的渐变_30-6" x1="207.92" y1="938.7" x2="208.55" y2="938.72" gradientTransform="matrix(35.97, 0, 0, -12.29, -6661.82, 11746.33)" xlink:href="#未命名的渐变_30"></linearGradient><linearGradient id="未命名的渐变_30-7" x1="213.02" y1="931.26" x2="213.41" y2="931.82" gradientTransform="matrix(180, 0, 0, -294.41, -38224.14, 274895.85)" xlink:href="#未命名的渐变_30"></linearGradient><linearGradient id="未命名的渐变_30-8" x1="213.43" y1="931.63" x2="214.09" y2="931.42" gradientTransform="matrix(0, 248, 160, 0, -148632.29, -52423.42)" xlink:href="#未命名的渐变_30"></linearGradient><linearGradient id="未命名的渐变_30-9" x1="212.83" y1="931.42" x2="213.87" y2="931.57" gradientTransform="matrix(0, 360, 180, 0, -167250.51, -76483.16)" xlink:href="#未命名的渐变_30"></linearGradient><linearGradient id="未命名的渐变_30-10" x1="213.36" y1="931.66" x2="214.46" y2="931.46" gradientTransform="matrix(0, 360, 180, 0, -167248.18, -76491.85)" xlink:href="#未命名的渐变_30"></linearGradient><linearGradient id="未命名的渐变_12" x1="213.3" y1="931.84" x2="213.61" y2="931.49" gradientTransform="matrix(239.55, 64.19, 41.41, -154.55, -89295.59, 130726.9)" gradientUnits="userSpaceOnUse"><stop offset="0" stop-color="#98d6fa"></stop><stop offset="1" stop-color="#47b0f1"></stop></linearGradient><linearGradient id="未命名的渐变_30-11" x1="191.46" y1="932.49" x2="191.52" y2="931.54" gradientTransform="matrix(9.66, 2.59, 17.08, -63.75, -17302.86, 59292.27)" xlink:href="#未命名的渐变_30"></linearGradient><linearGradient id="未命名的渐变_30-12" x1="202.57" y1="933.34" x2="205.29" y2="932.39" gradientTransform="matrix(21.25, 5.69, 5.69, -21.25, -9174.32, 19009.78)" xlink:href="#未命名的渐变_30"></linearGradient><linearGradient id="未命名的渐变_30-13" x1="213.02" y1="931.26" x2="213.4" y2="931.83" gradientTransform="matrix(180, 0, 0, -297.4, -37708.14, 277672.78)" xlink:href="#未命名的渐变_30"></linearGradient><linearGradient id="未命名的渐变_30-14" x1="209.44" y1="933.56" x2="209.04" y2="934.33" gradientTransform="matrix(40.38, 0, 0, -36.25, -8372.81, 34644.73)" xlink:href="#未命名的渐变_30"></linearGradient><linearGradient id="未命名的渐变_30-15" x1="208.91" y1="932.9" x2="209.47" y2="933.41" gradientTransform="matrix(40.64, 0, 0, -50, -8411.77, 47442.49)" xlink:href="#未命名的渐变_30"></linearGradient><linearGradient id="未命名的渐变_30-16" x1="209.46" y1="933.63" x2="210.31" y2="933.93" gradientTransform="matrix(46.95, 0, 0, -36.71, -9740.84, 35073.15)" xlink:href="#未命名的渐变_30"></linearGradient><linearGradient id="未命名的渐变_30-17" x1="210.5" y1="933.26" x2="211.35" y2="933.52" gradientTransform="matrix(61, 0, 0, -44, -12805, 41871.15)" xlink:href="#未命名的渐变_30"></linearGradient><linearGradient id="未命名的渐变_30-18" x1="208.38" y1="934.55" x2="209.23" y2="934.8" gradientTransform="matrix(38, 0, 0, -27, -7838, 26046.03)" xlink:href="#未命名的渐变_30"></linearGradient><linearGradient id="未命名的渐变_30-19" x1="206.13" y1="935.52" x2="206.41" y2="934.66" gradientTransform="matrix(26.15, 0, 0, -25.6, -5193.95, 24698.19)" xlink:href="#未命名的渐变_30"></linearGradient><linearGradient id="未命名的渐变_30-20" x1="205.12" y1="933.62" x2="205.17" y2="932.72" gradientTransform="matrix(22.89, 0, 0, -55.89, -4491.28, 52896.3)" xlink:href="#未命名的渐变_30"></linearGradient><linearGradient id="未命名的渐变_30-21" x1="202.23" y1="933.48" x2="202.25" y2="932.58" gradientTransform="matrix(17.45, 0, 0, -61.12, -3312.56, 57758.27)" xlink:href="#未命名的渐变_30"></linearGradient><linearGradient id="未命名的渐变_30-22" x1="205.85" y1="933.71" x2="205.91" y2="932.81" gradientTransform="matrix(24.86, 0, 0, -52.9, -4889.55, 50108.37)" xlink:href="#未命名的渐变_30"></linearGradient><linearGradient id="未命名的渐变_30-23" x1="211.33" y1="936.68" x2="212.46" y2="936.68" gradientTransform="matrix(80, 0, 0, -17.01, -16737, 16706.48)" xlink:href="#未命名的渐变_30"></linearGradient><linearGradient id="未命名的渐变_30-24" x1="214.58" y1="932.13" x2="215.22" y2="932.2" gradientTransform="matrix(-269.22, 47.47, -27.01, -153.15, 83994.06, 133295.27)" xlink:href="#未命名的渐变_30"></linearGradient><linearGradient id="未命名的渐变_31" x1="217.29" y1="931.06" x2="217.46" y2="930.99" gradientTransform="translate(-114497.85 137997.39) rotate(-135) scale(71.08 191.9)" gradientUnits="userSpaceOnUse"><stop offset="0.03" stop-color="#afdef9"></stop><stop offset="1" stop-color="#7cc9f9"></stop></linearGradient><linearGradient id="未命名的渐变_30-25" x1="215.14" y1="931.63" x2="215.68" y2="931.87" gradientTransform="translate(44752.42 202726.53) rotate(180) scale(203.58 216.82)" xlink:href="#未命名的渐变_30"></linearGradient><linearGradient id="未命名的渐变_31-2" x1="217.49" y1="931.52" x2="217.63" y2="931.46" gradientTransform="matrix(-64.64, -31.53, 95, -194.77, -73514.77, 188972.42)" xlink:href="#未命名的渐变_31"></linearGradient><linearGradient id="未命名的渐变_30-26" x1="216.3" y1="931.36" x2="216.51" y2="931.93" gradientTransform="translate(24742.61 227069.33) rotate(180) scale(110.66 242.94)" xlink:href="#未命名的渐变_30"></linearGradient><linearGradient id="未命名的渐变_31-3" x1="217.28" y1="931.99" x2="217.45" y2="931.92" gradientTransform="translate(16251.62 179548.1) rotate(180) scale(71.08 191.9)" xlink:href="#未命名的渐变_31"></linearGradient><linearGradient id="未命名的渐变_32" x1="214.79" y1="932.46" x2="215.79" y2="932.46" gradientTransform="matrix(-249.25, 35.03, -15.45, -109.92, 68593.58, 95797.85)" gradientUnits="userSpaceOnUse"><stop offset="0" stop-color="#f5dda7"></stop><stop offset="1" stop-color="#fa9a41"></stop></linearGradient><linearGradient id="未命名的渐变_34" x1="216.37" y1="932.2" x2="215.5" y2="932.2" gradientTransform="translate(31223.68 103857.23) rotate(180) scale(142.38 110.56)" gradientUnits="userSpaceOnUse"><stop offset="0" stop-color="#1d181c"></stop><stop offset="0.3" stop-color="#2c2422"></stop><stop offset="0.5" stop-color="#42352c"></stop><stop offset="0.7" stop-color="#57352c"></stop><stop offset="1" stop-color="#923629"></stop></linearGradient><linearGradient id="未命名的渐变_34-2" x1="216.01" y1="932.56" x2="215.14" y2="932.56" gradientTransform="translate(40905.58 72517.44) rotate(180) scale(187.29 76.87)" xlink:href="#未命名的渐变_34"></linearGradient><linearGradient id="未命名的渐变_36" x1="216.78" y1="932.04" x2="215.78" y2="932.04" gradientTransform="translate(26622.77 128809.09) rotate(180) scale(120.55 137.39)" gradientUnits="userSpaceOnUse"><stop offset="0" stop-color="#ffb859"></stop><stop offset="1" stop-color="#f97b61"></stop></linearGradient><linearGradient id="未命名的渐变_36-2" x1="216.48" y1="932.13" x2="215.48" y2="932.13" gradientTransform="translate(31735.42 114466.32) rotate(180) scale(144.73 121.98)" xlink:href="#未命名的渐变_36"></linearGradient></defs><g id="图层_2"><g id="图层_1-2"><g id="_403"><rect id="矩形" class="cls-1" width="1024" height="1024"></rect><g id="背景"><path id="路径-58" class="cls-2" d="M76.8,581.77c-7.68-33.1-57.62-248.62,83.6-278.26s224.65,4.88,286.7-55.46,77.52-50.44,128.49-46.45S685.63,162,705.47,149,904.53,51.69,950.35,303.51c7.24,108.87,13.26,227-37.44,271.73s.93,84.91,37.44,89.38S933.28,745.53,849,778.9C792.88,804.06,430.19,876.18,213,802,108.11,757.12,84.47,614.86,76.8,581.77Z"></path><path id="形状结合" class="cls-3" d="M158,329v.15a7.51,7.51,0,0,1,6,7.35v1a7.5,7.5,0,0,1-7.5,7.5h-79a7.5,7.5,0,0,1-7.5-7.5v-1a7.5,7.5,0,0,1,7.5-7.5H109a7,7,0,0,0,7-6.76V322a7,7,0,0,0-6.76-7H106v-.15a7.5,7.5,0,0,1-6-7.35v-1a7.5,7.5,0,0,1,7.5-7.5h79a7.5,7.5,0,0,1,7.5,7.5v1a7.5,7.5,0,0,1-7.5,7.5H155a7,7,0,0,0-7,6.76V322a7,7,0,0,0,6.76,7H158Z"></path><path id="形状结合-2" class="cls-4" d="M858,159v.15a7.51,7.51,0,0,1,6,7.35v1a7.5,7.5,0,0,1-7.5,7.5h-79a7.5,7.5,0,0,1-7.5-7.5v-1a7.5,7.5,0,0,1,7.5-7.5H809a7,7,0,0,0,7-6.76V152a7,7,0,0,0-6.76-7H806v-.15a7.5,7.5,0,0,1-6-7.35v-1a7.5,7.5,0,0,1,7.5-7.5h79a7.5,7.5,0,0,1,7.5,7.5v1a7.5,7.5,0,0,1-7.5,7.5H855a7,7,0,0,0-7,6.76V152a7,7,0,0,0,6.76,7H858Z"></path><path id="形状结合-3" class="cls-5" d="M514.52,712c131.1,0,249.26,10.79,331.78,28,80.76.65,145.7,25,145.7,55,0,24.23-42.45,44.8-101.39,52.13-13,3.75-27.41,7.3-43.16,10.62A35.34,35.34,0,0,1,848,864c0,51.91-112.82,94-252,94-124.65,0-228.17-33.76-248.41-78.11C180.2,867.13,62,835.72,62,799,62,751,264.37,712,514.52,712Z"></path><g id="大雁"><path id="路径" class="cls-6" d="M686.61,226.65v-.1c-5.33-15-22.7-22.11-37.44-19.93,10.93-6.79,29-8.6,37.44,1.82v.09c8.46-10.33,26.59-8.61,37.43-1.82-14.72-2.08-32.09,5-37.43,19.93Z"></path><path id="路径-2" class="cls-7" d="M770,214.11V214c-3.7-10.42-15.73-15.31-25.94-13.81,7.57-4.71,20.07-6,25.94,1.26v.06c5.87-7.16,18.44-6,26-1.26-10.21-1.44-22.24,3.46-26,13.82Z"></path><path id="路径-3" class="cls-8" d="M735.24,179.63v-.06c-3.7-10.43-15.73-15.32-26-13.82,7.58-4.71,20.08-6,26,1.26v.06c5.87-7.15,18.43-6,26-1.25-10.22-1.45-22.24,3.45-26,13.81Z"></path><path id="路径-4" class="cls-9" d="M840.72,220.07v0c-2.56-7.23-10.9-10.63-18-9.58,5.25-3.26,13.91-4.14,18,.87v0c4.08-5,12.78-4.13,18-.87C851.63,209.49,843.29,212.89,840.72,220.07Z"></path></g></g><g id="_404"><path id="_4" class="cls-10" d="M237.36,747.09v-73.7h24.5v-38h-24.5V452.68H197v182.7H140.71q-6.75,0-11-3.27-5.59-4.64-5.59-10.81a86.53,86.53,0,0,1,1-9.07h0l24.31-159.55H109.45l-27,173.25a52.79,52.79,0,0,0-.58,7.72q0,12.74,5,20.64,12.15,19.1,32.61,19.1H197v73.7Z"></path><g id="编组-71"><ellipse id="椭圆形" class="cls-11" cx="421.62" cy="542.58" rx="80" ry="124" transform="translate(-211.59 809.41) rotate(-75)"></ellipse><ellipse id="椭圆形备份-7" class="cls-12" cx="431.2" cy="506.84" rx="90" ry="180" transform="translate(-169.97 792.17) rotate(-75)"></ellipse><ellipse id="椭圆形备份-8" class="cls-13" cx="433.53" cy="498.15" rx="90" ry="180" transform="translate(-159.85 787.98) rotate(-75)"></ellipse><path id="椭圆形-2" class="cls-14" d="M422.92,537.75C489.07,555.48,546,557.61,559.54,507s-29.06-106-95.21-123.77-130.77,9-144.34,59.59S356.77,520,422.92,537.75Z"></path><path id="矩形-2" class="cls-15" d="M473.65,348.43h0a5,5,0,0,1,3.53,6.12l-14.49,54.1a5,5,0,0,1-6.13,3.53h0a5,5,0,0,1-3.53-6.12L467.52,352A5,5,0,0,1,473.65,348.43Z"></path><circle id="椭圆形-3" class="cls-16" cx="473.23" cy="348.77" r="11"></circle></g><path id="_3" class="cls-17" d="M597.86,684.28h38.62q4.29,13.65,17.74,13.65H717.8q19.31,0,19.31-14.43V618.75q0-17.16-18.53-17.16h-82.3V563.17h80.15q20.49,0,20.48-14.62V496.48q0-19.11-19.11-19.11H655.39q-13.85,0-17.55,16h-39q-.39-4.49-.39-7.8,0-18.92,16.19-33.94,13.65-12.67,35.88-12.67h73.13q26.13,0,40.37,13.65,13.65,13.26,13.65,34.71V554q0,13.46-8.58,27.88,8.77,15,8.77,26.14v80.15q0,20.48-13.26,33.35-15.4,14.82-33.15,14.82h-78.2q-33.74,0-48.17-24.57Q598.84,701.43,597.86,684.28Z"></path></g><g id="石头"><path id="路径-38" class="cls-18" d="M77.4,807.52q4.35-33.32-22.4-35.89c24.14-2.3,40.12,12.39,40.38,35.89Q87.88,807.78,77.4,807.52Z"></path><path id="路径-39" class="cls-19" d="M89.12,807.65Q96.19,774,71.73,758c20.82,6.57,35.78,16.44,40.64,49.65A190.3,190.3,0,0,1,89.12,807.65Z"></path><path id="路径-40" class="cls-20" d="M116.07,808q-3.13-31.95,22.93-36.61c-16.11-.4-34.09-1.48-46.95,36.61Q108.4,807.47,116.07,808Z"></path><path id="椭圆形-4" class="cls-21" d="M66.41,822c16.85,0,29.59.41,29.59-15.39S82.34,778,65.5,778,35,790.81,35,806.61,49.57,822,66.41,822Z"></path><path id="椭圆形备份-6" class="cls-22" d="M99.57,822c10.49,0,18.43.25,18.43-9.44S109.49,795,99,795s-19,7.86-19,17.56S89.07,822,99.57,822Z"></path></g><g id="草"><path id="路径-43" class="cls-23" d="M212.91,777.63q-2.52-11.46-14.71-16c-9.28-3-14.37-6.53-8.56-9.1,4.9-.39,15.36-4.21,23.27,18.61A13.09,13.09,0,0,1,212.91,777.63Z"></path><path id="路径-44" class="cls-24" d="M213.32,778.84q-7.33-27.36-16.66-40c-4.56-5.73-4.24-13.94,0-15.8C201,722.6,209,721.85,215,753.29c.39,2.16,2.51,14.82,0,23A5.12,5.12,0,0,1,213.32,778.84Z"></path><path id="路径-45" class="cls-25" d="M214.45,774.72q3.31-12.24-.85-32c-4.24-12.74-11.47-28.41,1.72-28.77,5.35.73,11.81,6.34,9.37,34.29-1.49,11.28-4.08,18-6.79,26.43A3.92,3.92,0,0,1,214.45,774.72Z"></path><path id="路径-46" class="cls-26" d="M217,777.89q-1.34-34.62,12.67-49.7c2.52-3.35,12.11-6.5,12.08,4-1,4.52-3.15,14.19-15.5,28.93-4.07,5.32-6.74,13.09-6.77,14.92C219.49,777.28,218.67,777.89,217,777.89Z"></path><path id="路径-47" class="cls-27" d="M169,780.94q13.86-2.58,15.29-4.39c1.43-1.8,14-9.54,21.85-3,1.71-2.2,7.18-3.9,10.32,0,1.43-6.16,10.37-10.11,14.26-9.47,4.38-.34,17.31-.2,18.28,16.88Q243.71,781.06,169,780.94Z"></path></g><g id="绿植"><path id="路径-61" class="cls-28" d="M963.2,668.24q49-22,44,21.64-2.84,13.54-10.24,16.92-19.26,23.46-20.37,37.61c-1.11,14.14-12.11,30.17-39.66,21q-27.56-9.17-37.84,30.68Q868.07,837.26,790,829t9.94-72q23.92-9.43,36.53-11.67t12.36-27.51q0-15.82,22.92-23.11T891,671.56q15.22-22.42,36.33-6.4T963.2,668.24Z"></path><path id="形状结合-4" class="cls-29" d="M964.74,683.35l-48.28,32.22q3.69-19.37,8.82-31.4c5.07-11.87-10.59,19.79-10.8,32.72l-40.24,26.86.11-.15q-1.67-25.94,1.34-36.21c-2.69,3.6-5.55,29.38-4,38l-37,24.71.34-.42s-1.9-14.27-.22-21.47c-1.67,2-2.78,17-2.3,23.34L802,792l3.87,3.87,31.54-22.33c8.52,5,20.21,5.79,25.86,5.27q-15.66-1.44-22.89-7.2a13.2,13.2,0,0,1-2.5,1.6l88.82-62.89a8.77,8.77,0,0,0-.56.68q19.74,2.79,35.44-2.38c-.84-1.67-14.75,4.84-33.12.45ZM923.4,760.21q-15.81.45-41.17-18.27a23.15,23.15,0,0,1-2.22,2.21C896,756.77,913.13,761.74,923.4,760.21Z"></path><path id="路径-65" class="cls-30" d="M927.8,599.12q48.26-32.83,44.79,16.51c-6.19,23.57-10.25,39.33-8.22,53.77s-4.32,41.75-36.57,53q-32.25,11.21-18.11,31.79,7.09,31.62-78.23,45.38c-85.32,13.77-65-17.87-43.06-52.16,15.87-15.88,18-25.58,18-37.72s-11.62-32,21.76-40.24q22-5,23.05-44,3.46-19.59,42-9.8Q910.33,618.93,927.8,599.12Z"></path><path id="形状结合-5" class="cls-31" d="M942.44,616.59l-35.44,45-.07-.17a44.63,44.63,0,0,1-2.35-28.28l.08-.31,0,0c-2.33,7.27-6.81,15.94.61,30.93l-30,38.18-.2-.27q-9-12.72-9-33.45c-1.38,4.29-1.41,24,7.16,36.26L846.62,738.4c-1.68-2.61-5.88-10-5.88-18.16-.89,5.65-1,13.22,3.9,20.68l-39.27,49.92h6.23l38-50.55c18.38,7.85,28.69,4.56,33.8,2.26q-14.94,3.66-31.71-5l28.86-38.44c-.15.3-.32.6-.5.92,19.21,6.73,39.16,7.52,48.37,2.73q-14.8,5.58-47-5.55l.44.15L914,654.47l-.18.51q21.2,1.31,33.84-13.48c-1.33-1.3-10.35,11.8-32.14,11Z"></path><path id="路径-96" class="cls-32" d="M818.17,600.59q-18.63-25.89-33.35,5.26c-4.76,17.94,2.76,29.35-21.82,37.5q-24.57,8.16-7.44,34.15,7.17,16.35-10.57,20.91t4.26,36.22q7.63,17.36,0,23.2c-7.62,5.84-22.28,23.35-4.26,57.39s60.46,7.6,66.82-8.4-6.36-38.05,0-49,43.46-14.71,33.55-47.52c-8.25-13.42-19.73-17.3-8.2-40.16s14.46-13.67,0-36.19Q827.7,624.26,818.17,600.59Z"></path><path id="形状结合-6" class="cls-33" d="M801.27,630.35l-11.35,56.91q-11.1-16.29-16-28.43c-4.81-12,6.51,21.48,15.5,30.77L780,737.05l0-.19q-19.51-17.16-24.65-26.55c.64,4.45,16.84,24.7,24.09,29.7l-8.7,43.65-.05-.54s-11.45-8.74-15.34-15c.25,2.61,10,13.95,14.87,18.13l-7.18,36h5.47L775,784.16c9.59-2.47,18.39-10.2,22-14.57q-12.09,10.06-21.27,11.11a13,13,0,0,1-.64,2.89l18.33-107.27c0,.29.05.59.09.88q15.93-12,23.37-26.75c-1.77-.58-7,13.85-23.09,23.73Zm25.12,83.57q-10.86,11.51-42,16.19a23.4,23.4,0,0,1,0,3.14C804.57,730.88,820.21,722.27,826.39,713.92Z"></path></g><g id="人物"><path id="路径-5" class="cls-34" d="M419.38,841.5c22.34,7,13.44,11.18,6,15.29-13.64,7.54-7.51,14.14-.57,20.21,10.27,9,86.93,30.63,170,12.22,77.51-17.16,65.83-48,45.91-62-16-11.24-86-36.74-165.94-31.23-48.12,3.3-68.78,11.56-72.79,17.93C395.42,824.47,394.51,833.71,419.38,841.5Z"></path><path id="路径-6" class="cls-35" d="M523,685.94c-6.45-3-12.69-9.81-13.65-14.79s-9.51-28.74-29.33-24.23-23.49,26.26-10.51,40.29,20.27,21.74,24.83,19.57,9.78,2.22,12.86,5,14.56-18.52,14.56-18.52l3.31-4.1Z"></path><path id="路径-7" class="cls-36" d="M451,648.24c-14.36,12.28-3,24.16,5.9,28.6s7.53,1.9,15.68,1.75c0,0,0-2.06,8.1,7l3.38-.95c1.22-.4-1.81-1.84-1.15-4.09s7.72-2.27,8.69,3.46.16,4.45.16,4.45,6.92,1.93,8.73-.37,14.19-11.7,12.15-16.1-.92-11.81-8.76-22.07-26.78-12.69-35.24-10.15S454.59,645.18,451,648.24Z"></path><path id="路径-8" class="cls-37" d="M415.89,827.05c2.93,5,5.56,6.73,5.44,10.11s-5.37,9.7-9.61,10.11c-5.36.52-14.68.83-17.3,1s-20.66.66-24-4,3.37-10.9,14.51-13.15,27.4-4.16,27.4-4.16Z"></path><path id="Fill-1706" class="cls-38" d="M513.46,789.89c-12.13-17.86-42.17-59.24-76.57-55.76C405.42,737.3,397,832.72,397,832.72l18,2.93,30.85-59.34L500,844.48l39.43-15.16Z"></path><path id="Fill-1708" class="cls-39" d="M605.58,788.8c7.71,27,9.44,69.09-17.49,75-14.83,3.26-34.1,1.18-83.91,1.48C455,865.59,423,868,423.24,841s59.89-20.16,72.64-21.35,71.75-1.78,71.75-1.78Z"></path><path id="Fill-1709" class="cls-40" d="M498.84,710.08s3.27-3.19,10.44-9.64c13.63-10,8.38-18.18,8.38-18.18s47.39-2.83,74.69,45.15c16.44,28.9,18.18,78.4,18.18,78.4s-16,18.77-84.8,12.54c0,0-20.66-39.33-31.33-58.3Q483.72,741.08,498.84,710.08Z"></path><polygon id="矩形-3" class="cls-41" points="375.82 756.52 408.59 768.45 407.4 771.73 374.63 759.8 375.82 756.52"></polygon><path id="路径-50备份" class="cls-42" d="M414.29,771.71q-3.45-1.79-7.28-3.63a11.56,11.56,0,0,0-3.06-2.26q-4-1.22-3.87.4a3.29,3.29,0,0,0,1.7,2.59l-4.47-.95-4.24-2.11q-6.75-3.16-6.64,2.39c.91,4.15,5.34,8.74,14.12,8.43q3.12-1,8.51.48Z"></path><path id="路径-3-2" class="cls-43" d="M410.27,768.73,484,796.59l19.54-77.28q8.78-20.23,30.8-17c10.43,4.78,15.22,14.73,14.42,25.52s-16.23,56.06-31.91,76.2c-11.87,13.66-19,23.12-36.12,18.75q-13.23-4.53-76.61-38.19Z"></path></g></g></g></g></svg>