<svg width="1024px" height="1024px" viewBox="0 0 1024 1024" version="1.1" xmlns="http://www.w3.org/2000/svg" xmlns:xlink="http://www.w3.org/1999/xlink">
  <title>403</title>
  <defs>
      <linearGradient x1="-13.5823507%" y1="50%" x2="50%" y2="47.2031971%" id="linearGradient-1">
          <stop stop-color="#98D6FA" offset="0%"></stop>
          <stop stop-color="#47B0F1" offset="100%"></stop>
      </linearGradient>
      <linearGradient x1="-9.33772794e-14%" y1="-3.10559006%" x2="100%" y2="-3.10559006%" id="linearGradient-2">
          <stop stop-color="#FFF5DE" offset="0%"></stop>
          <stop stop-color="#FBD2AC" offset="100%"></stop>
      </linearGradient>
      <linearGradient x1="-13.5823507%" y1="50%" x2="50%" y2="47.6284444%" id="linearGradient-3">
          <stop stop-color="#98D6FA" offset="0%"></stop>
          <stop stop-color="#47B0F1" offset="100%"></stop>
      </linearGradient>
      <linearGradient x1="-13.5823507%" y1="50%" x2="50%" y2="47.629463%" id="linearGradient-4">
          <stop stop-color="#98D6FA" offset="0%"></stop>
          <stop stop-color="#47B0F1" offset="100%"></stop>
      </linearGradient>
      <linearGradient x1="-13.5823507%" y1="50%" x2="50%" y2="47.6298828%" id="linearGradient-5">
          <stop stop-color="#98D6FA" offset="0%"></stop>
          <stop stop-color="#47B0F1" offset="100%"></stop>
      </linearGradient>
      <linearGradient x1="11.0933605%" y1="87.0084871%" x2="50%" y2="30.4810963%" id="linearGradient-6">
          <stop stop-color="#98D6FA" offset="0%"></stop>
          <stop stop-color="#47B0F1" offset="100%"></stop>
      </linearGradient>
      <linearGradient x1="11.872949%" y1="87.0084871%" x2="50%" y2="30.4810963%" id="linearGradient-7">
          <stop stop-color="#98D6FA" offset="0%"></stop>
          <stop stop-color="#47B0F1" offset="100%"></stop>
      </linearGradient>
      <linearGradient x1="-54.0805314%" y1="87.0084871%" x2="50%" y2="30.4810963%" id="linearGradient-8">
          <stop stop-color="#98D6FA" offset="0%"></stop>
          <stop stop-color="#47B0F1" offset="100%"></stop>
      </linearGradient>
      <linearGradient x1="0%" y1="-11.7647059%" x2="100%" y2="-11.7647059%" id="linearGradient-9">
          <stop stop-color="#F5DDA7" offset="0%"></stop>
          <stop stop-color="#FA9A41" offset="100%"></stop>
      </linearGradient>
      <linearGradient x1="22.3559231%" y1="-8.91420874%" x2="50%" y2="77.3810542%" id="linearGradient-10">
          <stop stop-color="#98D6FA" offset="0%"></stop>
          <stop stop-color="#47B0F1" offset="100%"></stop>
      </linearGradient>
      <linearGradient x1="45.3627906%" y1="-11.4524647%" x2="50%" y2="78.5607378%" id="linearGradient-11">
          <stop stop-color="#98D6FA" offset="0%"></stop>
          <stop stop-color="#47B0F1" offset="100%"></stop>
      </linearGradient>
      <linearGradient x1="47.7464074%" y1="-11.4524647%" x2="50%" y2="78.5607378%" id="linearGradient-12">
          <stop stop-color="#98D6FA" offset="0%"></stop>
          <stop stop-color="#47B0F1" offset="100%"></stop>
      </linearGradient>
      <linearGradient x1="43.8930824%" y1="-11.4524647%" x2="50%" y2="78.5607378%" id="linearGradient-13">
          <stop stop-color="#98D6FA" offset="0%"></stop>
          <stop stop-color="#47B0F1" offset="100%"></stop>
      </linearGradient>
      <linearGradient x1="0%" y1="77.6033014%" x2="113.227535%" y2="77.6033014%" id="linearGradient-14">
          <stop stop-color="#98D6FA" offset="0%"></stop>
          <stop stop-color="#47B0F1" offset="100%"></stop>
      </linearGradient>
      <linearGradient x1="13.965733%" y1="7.49141546%" x2="87.5196979%" y2="107.502359%" id="linearGradient-15">
          <stop stop-color="#FFB859" offset="0%"></stop>
          <stop stop-color="#F97B61" offset="100%"></stop>
      </linearGradient>
      <linearGradient x1="2.07516348%" y1="87.0084871%" x2="50%" y2="30.4810963%" id="linearGradient-16">
          <stop stop-color="#98D6FA" offset="0%"></stop>
          <stop stop-color="#47B0F1" offset="100%"></stop>
      </linearGradient>
      <linearGradient x1="100%" y1="-2.96987539%" x2="0.581465918%" y2="-2.96987539%" id="linearGradient-17">
          <stop stop-color="#F97B61" offset="0%"></stop>
          <stop stop-color="#FFB859" offset="100%"></stop>
      </linearGradient>
      <linearGradient x1="100%" y1="-2.96987539%" x2="0.581465918%" y2="-2.96987539%" id="linearGradient-18">
          <stop stop-color="#F97B61" offset="0%"></stop>
          <stop stop-color="#FFB859" offset="100%"></stop>
      </linearGradient>
      <linearGradient x1="100%" y1="-2.96987539%" x2="0.581465918%" y2="-2.96987539%" id="linearGradient-19">
          <stop stop-color="#FFB859" offset="0%"></stop>
          <stop stop-color="#F97B61" offset="100%"></stop>
      </linearGradient>
      <linearGradient x1="100%" y1="-2.96987539%" x2="0.581465918%" y2="-2.96987539%" id="linearGradient-20">
          <stop stop-color="#FFB859" offset="0%"></stop>
          <stop stop-color="#F97B61" offset="100%"></stop>
      </linearGradient>
      <linearGradient x1="86.2750219%" y1="-2.80504909%" x2="-2.70574742e-12%" y2="-2.80504909%" id="linearGradient-21">
          <stop stop-color="#1D181C" offset="0%"></stop>
          <stop stop-color="#2C2422" offset="30%"></stop>
          <stop stop-color="#42352C" offset="50%"></stop>
          <stop stop-color="#57352C" offset="70%"></stop>
          <stop stop-color="#923629" offset="100%"></stop>
      </linearGradient>
      <linearGradient x1="9.90238743%" y1="87.0084871%" x2="50%" y2="30.4810963%" id="linearGradient-22">
          <stop stop-color="#98D6FA" offset="0%"></stop>
          <stop stop-color="#47B0F1" offset="100%"></stop>
      </linearGradient>
      <linearGradient x1="10.1142635%" y1="87.0084871%" x2="50%" y2="30.4810963%" id="linearGradient-23">
          <stop stop-color="#98D6FA" offset="0%"></stop>
          <stop stop-color="#47B0F1" offset="100%"></stop>
      </linearGradient>
      <linearGradient x1="-13.5823507%" y1="50%" x2="50%" y2="43.4230204%" id="linearGradient-24">
          <stop stop-color="#98D6FA" offset="0%"></stop>
          <stop stop-color="#47B0F1" offset="100%"></stop>
      </linearGradient>
      <linearGradient x1="43.1398925%" y1="-6.4516129%" x2="60.3365636%" y2="0%" id="linearGradient-25">
          <stop stop-color="#AFDEF9" offset="3.15726754%"></stop>
          <stop stop-color="#7CC9F9" offset="100%"></stop>
      </linearGradient>
      <linearGradient x1="5.92025809%" y1="60.8571499%" x2="59.966368%" y2="37.0542203%" id="linearGradient-26">
          <stop stop-color="#98D6FA" offset="0%"></stop>
          <stop stop-color="#47B0F1" offset="100%"></stop>
      </linearGradient>
      <linearGradient x1="44.4926371%" y1="-6.4516129%" x2="58.2982966%" y2="0%" id="linearGradient-27">
          <stop stop-color="#AFDEF9" offset="3.15726754%"></stop>
          <stop stop-color="#7CC9F9" offset="100%"></stop>
      </linearGradient>
      <linearGradient x1="28.4038852%" y1="87.0084871%" x2="50%" y2="30.4810963%" id="linearGradient-28">
          <stop stop-color="#98D6FA" offset="0%"></stop>
          <stop stop-color="#47B0F1" offset="100%"></stop>
      </linearGradient>
      <linearGradient x1="80.1766865%" y1="78.1244605%" x2="40.1612594%" y2="1.20356745%" id="linearGradient-29">
          <stop stop-color="#98D6FA" offset="0%"></stop>
          <stop stop-color="#47B0F1" offset="100%"></stop>
      </linearGradient>
      <linearGradient x1="16.9636606%" y1="77.6033014%" x2="73.1106367%" y2="27.3104148%" id="linearGradient-30">
          <stop stop-color="#98D6FA" offset="0%"></stop>
          <stop stop-color="#47B0F1" offset="100%"></stop>
      </linearGradient>
      <linearGradient x1="0%" y1="66.879116%" x2="84.977599%" y2="36.1255675%" id="linearGradient-31">
          <stop stop-color="#98D6FA" offset="0%"></stop>
          <stop stop-color="#47B0F1" offset="100%"></stop>
      </linearGradient>
      <linearGradient x1="0%" y1="64.3617284%" x2="84.977599%" y2="38.1948302%" id="linearGradient-32">
          <stop stop-color="#98D6FA" offset="0%"></stop>
          <stop stop-color="#47B0F1" offset="100%"></stop>
      </linearGradient>
      <linearGradient x1="0%" y1="63.9354617%" x2="84.977599%" y2="38.5452163%" id="linearGradient-33">
          <stop stop-color="#98D6FA" offset="0%"></stop>
          <stop stop-color="#47B0F1" offset="100%"></stop>
      </linearGradient>
  </defs>
  <g id="403" stroke="none" stroke-width="1" fill="none" fill-rule="evenodd">
      <rect id="矩形" fill="#FFFFFF" opacity="0" x="0" y="0" width="1024" height="1024"></rect>
      <g id="背景" transform="translate(62.000000, 125.000000)" fill-rule="nonzero">
          <path d="M14.7968319,456.766916 C7.12382848,423.67151 -42.8231183,208.146339 98.3979081,178.512529 C239.618934,148.878718 323.047548,183.393328 385.098412,123.051676 C447.149277,62.7100235 462.623694,72.613831 513.590202,76.6047879 C564.55671,80.5957448 623.626164,37.0388532 643.474877,23.9553401 C663.32359,10.871827 842.534029,-73.3066327 888.351129,178.512529 C895.592256,287.383698 901.609849,405.496594 850.912963,450.237259 C800.216077,494.977924 851.839129,535.151398 888.351129,539.615502 C924.863128,544.079607 871.28154,620.525811 786.950659,653.901824 C730.880095,679.056083 368.190711,751.180384 150.994775,677.040997 C46.1148664,632.124956 22.4698352,489.862323 14.7968319,456.766916 Z" id="路径-58" fill="#47B0F1" opacity="0.05"></path>
          <path d="M96,204 L96.0005978,204.150149 C99.4236604,204.845285 102,207.871774 102,211.5 L102,212.5 C102,216.642136 98.6421356,220 94.5,220 L15.5,220 C11.3578644,220 8,216.642136 8,212.5 L8,211.5 C8,207.357864 11.3578644,204 15.5,204 L47,204 C50.7854517,204 53.8690987,200.995217 53.995941,197.24065 L54,197 C54,193.214548 50.9952166,190.130901 47.2406498,190.004059 L47,190 L44,190 L44.000406,189.850055 C40.5768433,189.155307 38,186.12858 38,182.5 L38,181.5 C38,177.357864 41.3578644,174 45.5,174 L124.5,174 C128.642136,174 132,177.357864 132,181.5 L132,182.5 C132,186.642136 128.642136,190 124.5,190 L93,190 C89.2145483,190 86.1309013,193.004783 86.004059,196.75935 L86,197 C86,200.785452 89.0047834,203.869099 92.7593502,203.995941 L93,204 L96,204 Z" id="形状结合" fill="url(#linearGradient-1)" opacity="0.100000001"></path>
          <path d="M796,34 L796.000598,34.1501485 C799.42366,34.845285 802,37.8717743 802,41.5 L802,42.5 C802,46.6421356 798.642136,50 794.5,50 L715.5,50 C711.357864,50 708,46.6421356 708,42.5 L708,41.5 C708,37.3578644 711.357864,34 715.5,34 L747,34 C750.785452,34 753.869099,30.9952166 753.995941,27.2406498 L754,27 C754,23.2145483 750.995217,20.1309013 747.24065,20.004059 L747,20 L744,20 L744.000406,19.8500552 C740.576843,19.1553066 738,16.1285803 738,12.5 L738,11.5 C738,7.35786438 741.357864,4 745.5,4 L824.5,4 C828.642136,4 832,7.35786438 832,11.5 L832,12.5 C832,16.6421356 828.642136,20 824.5,20 L793,20 C789.214548,20 786.130901,23.0047834 786.004059,26.7593502 L786,27 C786,30.7854517 789.004783,33.8690987 792.75935,33.995941 L793,34 L796,34 Z" id="形状结合" fill="url(#linearGradient-1)" opacity="0.100000001"></path>
          <path d="M452.516571,587 C583.621204,587 701.777821,597.788312 784.302945,615.013362 C865.063746,615.660019 930,640.030791 930,670 C930,694.229977 887.553421,714.80045 828.610822,722.132354 C815.644044,725.884939 801.204898,729.433119 785.453239,732.745641 C785.815027,734.812004 786,736.897944 786,739 C786,790.914766 673.175757,833 534,833 C409.347257,833 305.833398,799.239705 285.587359,754.894193 C118.19765,742.128701 0,710.721174 0,674 C0,625.951227 202.367293,587 452.516571,587 Z" id="形状结合" fill="url(#linearGradient-2)"></path>
          <g id="大雁" transform="translate(587.174147, 36.907158)">
              <path d="M37.4312095,64.7423818 L37.4312095,64.6452119 C32.1058219,49.6073265 14.7356607,42.5306746 0,44.7153228 C10.9264423,37.9201286 28.9638433,36.1107574 37.4343421,46.5280447 L37.4343421,46.6185133 C45.8923106,36.2916945 64.0268216,38.0139479 74.8686842,44.8057914 C60.1455538,42.7216638 42.77226,49.7882636 37.4343421,64.7356804 L37.4312095,64.7423818 Z" id="路径" fill="url(#linearGradient-3)"></path>
              <path d="M120.860322,52.2014603 L120.860322,52.1377972 C117.160744,41.7138085 105.128501,36.8184542 94.9131541,38.3229128 C102.484602,33.6151969 114.989865,32.3586891 120.860322,39.5794206 L120.860322,39.6430837 C126.730779,32.4860153 139.292428,33.67886 146.80749,38.3865759 C136.592143,36.9424296 124.566165,41.8411347 120.860322,52.2014603 L120.860322,52.2014603 Z" id="路径" fill="url(#linearGradient-4)"></path>
              <path d="M86.0679846,17.7234613 L86.0679846,17.6597983 C82.3684066,7.23580958 70.3361632,2.34045519 60.1208168,3.84491386 C67.6922649,-0.862802022 80.197528,-2.11930982 86.0679846,5.10142166 L86.0679846,5.16508473 C91.9384413,-1.9919837 104.500091,-0.79913896 112.015152,3.90857693 C101.799806,2.46443063 89.7738279,7.3631357 86.0679846,17.7234613 L86.0679846,17.7234613 Z" id="路径" fill="url(#linearGradient-4)"></path>
              <path d="M191.548904,58.1616316 L191.548904,58.1180727 C188.986453,50.8939905 180.641257,47.4963934 173.561624,48.5418079 C178.81183,45.2782383 187.479681,44.4070596 191.548904,49.4129867 L191.548904,49.4565456 C195.621259,44.4941775 204.326702,45.3217973 209.536184,48.5853668 C202.456551,47.5801606 194.111355,50.9811084 191.548904,58.1616316 Z" id="路径" fill="url(#linearGradient-5)"></path>
          </g>
      </g>
      <g id="404" transform="translate(171.864686, 438.947633)" fill-rule="nonzero">
          <path d="M172.775991,339.116827 L172.775991,257.230439 L200,257.230439 L200,215.001072 L172.775991,215.001072 L172.775991,12 L127.974277,12 L127.974277,215.001072 L65.380493,215.001072 C60.3787067,215.001072 56.3058235,213.786352 53.1618435,211.356913 C49.0175063,207.927117 46.9453376,203.925688 46.9453376,199.352626 C46.9453376,197.780636 47.3026081,194.422294 48.017149,189.277599 L48.017149,189.277599 L75.0267953,12 L30.6538049,12 L0.643086817,204.49732 C0.214362272,207.355484 0,210.213648 0,213.071811 C0,222.503751 1.85780636,230.149339 5.57341908,236.008574 C14.5766345,250.156484 26.6523758,257.230439 41.8006431,257.230439 L41.8006431,257.230439 L127.974277,257.230439 L127.974277,339.116827 L172.775991,339.116827 Z" id="4" fill="url(#linearGradient-6)"></path>
          <path d="M496,272.589382 L538.903575,272.589382 C542.081618,282.701336 548.654388,287.757313 558.621885,287.757313 L629.261105,287.757313 C643.562297,287.757313 650.712893,282.412423 650.712893,271.722644 L650.712893,199.783315 C650.712893,187.071145 643.85121,180.71506 630.127844,180.71506 L538.686891,180.71506 L538.686891,138.028169 L627.744312,138.028169 C642.912243,138.028169 650.496208,132.611051 650.496208,121.776815 L650.496208,63.9219935 C650.496208,49.7652582 643.41784,42.6868906 629.261105,42.6868906 L559.921993,42.6868906 C549.665583,42.6868906 543.165042,48.6096064 540.420368,60.4550379 L497.083424,60.4550379 C496.794511,57.1325388 496.650054,54.2434092 496.650054,51.787649 C496.650054,37.7753702 502.644998,25.2076562 514.634886,14.084507 C524.74684,4.69483568 538.036836,0 554.504875,0 L635.761647,0 C655.118815,0 670.070061,5.05597689 680.615385,15.1679307 C690.727338,24.9909715 695.783315,37.8475984 695.783315,53.7378115 L695.783315,127.843987 C695.783315,137.811484 692.605273,148.140123 686.249187,158.829902 C692.749729,169.953052 696,179.631636 696,187.865655 L696,276.923077 C696,292.091008 691.08848,304.442037 681.265439,313.976165 C669.853377,324.954857 657.574576,330.444204 644.429036,330.444204 L557.538462,330.444204 C532.54749,330.444204 514.707114,321.343445 504.017335,303.141928 C499.394727,295.485735 496.722282,285.301553 496,272.589382 Z" id="3" fill="url(#linearGradient-7)"></path>
          <g id="无网络" transform="translate(354.635314, 163.552367) scale(-1, 1) translate(-354.635314, -163.552367) translate(211.135314, 20.052367)">
              <path d="M55.1539375,103 L166.84725,103 C173.616146,103 177,106.333528 177,113.000585 C177,119.666472 173.616146,123 166.84725,123 L55.1539375,123 C48.3850418,123 45,119.666472 45,113.000585 C45,106.332359 48.3850418,103 55.1539375,103 L55.1539375,103 Z" id="路径" fill="#FFFFFF"></path>
              <path d="M55.1998807,154 L136.800119,154 C143.597256,154 147,157.333723 147,163.99883 C147,170.665107 143.597256,174 136.800119,174 L55.1998807,174 C48.4003579,174 45,170.665107 45,163.99883 C45,157.333723 48.4003579,154 55.1998807,154 L55.1998807,154 Z" id="路径" fill="#FFFFFF"></path>
              <circle id="椭圆形" fill="url(#linearGradient-8)" cx="143.5" cy="143.5" r="143.5"></circle>
              <ellipse id="椭圆形" fill="#B6DCF2" transform="translate(219.003977, 85.070044) rotate(17.067486) translate(-219.003977, -85.070044)" cx="219.003977" cy="85.0700443" rx="29.6693695" ry="15.3636472"></ellipse>
              <circle id="椭圆形" fill="#47B0F1" cx="115.5" cy="148.5" r="31.5"></circle>
              <ellipse id="椭圆形" fill="#B6DCF2" transform="translate(52.045192, 77.990620) rotate(-46.235767) translate(-52.045192, -77.990620)" cx="52.0451922" cy="77.9906198" rx="11.3297268" ry="7.21230929"></ellipse>
              <circle id="椭圆形" fill="#B6DCF2" cx="247.5" cy="178.5" r="17.5"></circle>
              <circle id="椭圆形" fill="#B6DCF2" cx="139" cy="220" r="11"></circle>
          </g>
      </g>
      <path d="M643.335967,778.445064 C622.192322,788.475408 631.579582,791.386112 639.505822,794.422844 C654.059553,799.998727 648.910667,807.383656 642.883737,814.35794 C633.96371,824.680078 561.064991,856.792965 476.194585,850.124215 C397.053826,843.918195 404.324874,811.758489 422.105465,795.127443 C436.429584,781.762724 502.133696,746.785811 582.084079,741.110569 C630.194435,737.680926 651.805172,742.988706 656.662916,748.731997 C664.696879,758.245173 666.877346,767.271505 643.335967,778.445064 Z" id="路径" fill="url(#linearGradient-9)" fill-rule="nonzero" opacity="0.4" transform="translate(536.375527, 795.527261) scale(-1, 1) rotate(8.000000) translate(-536.375527, -795.527261)"></path>
      <g id="草" transform="translate(803.000000, 703.000000)" fill-rule="nonzero">
          <path d="M43.9051261,63.6286814 C42.2263645,55.9871035 37.3237759,50.6453695 29.1973603,47.6034794 C19.9172905,44.6203861 14.8329924,41.0744694 20.6399876,38.5033511 C25.5436773,38.1135528 36.0015321,34.2946145 43.9051261,57.1055335 C44.4551756,59.3160279 44.4551756,61.4904105 43.9051261,63.6286814 Z" id="路径-43" fill="url(#linearGradient-10)"></path>
          <path d="M44.3176632,64.840738 C39.4303186,46.5973461 33.8782959,33.2780512 27.6615952,24.8828532 C23.0968393,19.1458941 23.4166984,10.936736 27.6615952,9.08124849 C32.0066921,8.59804784 40.0148411,7.85069183 46.0446075,39.2915559 C46.4254351,41.4541828 48.5501098,54.1059971 46.0446075,62.27112 C45.6737545,63.3917167 45.0981064,64.2482561 44.3176632,64.840738 Z" id="路径-44" fill="url(#linearGradient-11)"></path>
          <path d="M45.4464214,60.7202723 C47.6568996,52.5569753 47.3762554,41.9057539 44.6044888,28.7666082 C40.3647937,16.0293804 33.1281163,0.361197711 46.3183012,0 C51.6696211,0.72769912 58.1314791,6.33695657 55.6898493,34.2928457 C54.2019489,45.5736056 51.6142144,52.2376908 48.8984709,60.7202723 C47.9511221,61.2491925 46.800439,61.2491925 45.4464214,60.7202723 Z" id="路径-45" fill="url(#linearGradient-12)"></path>
          <path d="M48.0284816,63.8906874 C47.1436545,40.8080705 51.3681496,24.242664 60.7019669,14.1944678 C63.222484,10.836761 72.8116393,7.69203295 72.7754396,18.2175973 C71.774369,22.7435236 69.632291,32.4058109 57.2801827,47.1476164 C53.2108627,52.468361 50.5364063,60.243448 50.5103382,62.0664177 C50.4929594,63.2817308 49.6656739,63.8898207 48.0284816,63.8906874 Z" id="路径-46" fill="url(#linearGradient-13)"></path>
          <path d="M0,66.9384739 C9.24292109,65.2157556 14.3402664,63.7533131 15.2920358,62.5511465 C16.7196899,60.7478966 29.2966732,53.0053514 37.1396284,59.5270062 C38.8469149,57.3328548 44.3223492,55.6260825 47.4558228,59.5270062 C48.8894057,53.3682731 57.8327109,49.4240184 61.722246,50.0630031 C66.1024725,49.7202118 79.03356,49.8628336 80,66.9384739 C76.4718943,67.0206137 49.8052276,67.0206137 0,66.9384739 Z" id="路径-47" fill="url(#linearGradient-14)"></path>
      </g>
      <g id="人物" transform="translate(440.000000, 271.935169)">
          <ellipse id="椭圆形" fill="#B6DCF2" opacity="0.200000003" cx="85" cy="217.628888" rx="85" ry="25"></ellipse>
          <path d="M85.7426561,18.0563019 C91.3266692,18.5827062 96.498217,21.2505098 100.192475,25.5104106 C101.341998,26.7904762 102.309439,28.2247661 103.067692,29.7718828 L103.120925,29.8856706 L102.971286,29.1172374 C104.724584,29.6181855 105.485449,32.7351963 105.546787,36.537532 L105.549853,36.8036735 C109.812241,35.6376551 112.850627,48.7105722 103.580309,49.0527162 C103.248812,49.9240204 102.884404,50.6689685 102.494919,51.2391083 C100.152606,54.6678491 97.5943451,59.0558209 93.9600614,61.7017182 L93.9919799,71.2931278 L75.0354404,71.5608068 L75.1172142,60.2973896 C73.5894037,59.0430663 72.2604831,57.5077668 71.2134426,55.7276038 C69.8292837,53.6218925 68.6848469,51.381929 67.7921044,49.0501838 L68.1652203,49.0306098 C57.1052252,49.809453 60.8174849,34.5884082 65.4843004,36.9867216 C65.4764154,36.4767711 65.4810528,35.9632718 65.4970308,35.4492222 C65.9382147,31.2103702 67.6562525,27.2100125 70.4194965,23.9875282 C74.2402089,19.5722999 79.9773944,17.3515735 85.7426561,18.0563019 Z M103.544925,32.0596706 L103.551184,32.2109745 C103.579978,32.9709314 103.622322,33.7232888 104.003416,34.40725 L103.544925,32.0596706 Z M103.120925,29.8856706 L103.544925,32.0596706 L103.540387,31.9257532 C103.521332,31.4501864 103.491691,30.9746196 103.37207,30.5138957 L103.288865,30.2393613 L103.120925,29.8856706 Z" id="形状结合" fill="#EBB0B0" fill-rule="nonzero"></path>
          <path d="M105.704964,38.6784945 C112.228856,32.3573899 114.601561,11.2405189 102.253832,5.90056109 C100.873403,4.21287859 97.9378954,3.76514638 93.9919799,3.70738648 C91.1282534,3.63313649 90.8057296,4.72906238 89.3420646,4.47108745 C87.8783996,4.21311252 85.7233988,0.739922121 80.1543596,0.0526534754 C77.1409317,-0.377304736 68.0416761,1.89133818 66.0614235,4.47108745 C62.1798054,7.38783719 57.134245,14.4861658 56.0061354,23.3892488 C54.84504,32.3083623 59.4325504,36.7362307 63.2543886,43.511293 C66.7844042,41.2755103 67.6453836,36.1160118 70.1422239,32.7623378 C73.6036554,28.6924241 77.966325,25.4833438 82.884719,23.3892488 C93.4653201,21.8360011 98.5337442,21.8360011 103.297775,31.4184089 C103.297775,31.4184089 104.100171,33.8384374 105.704964,38.6784945 Z" id="路径" fill="#131322" fill-rule="nonzero"></path>
          <path d="M75.467684,63.5691333 C78.4680784,65.4401008 81.9953018,68.588218 85.3755058,68.6538661 C87.9319249,68.8016258 91.4200111,65.1117737 93.6494402,63.5691333 C103.906979,64.0533796 122.503538,69.3085378 138.248711,81.3831934 C138.248711,128.071255 133.611934,136.39116 127.596447,162.670423 C127.431476,163.820457 110.400691,193.741189 107.139091,195.423421 C94.3634323,201.963336 84.4860312,200.740032 70.4905628,199.081291 C67.7626788,198.744844 52.1959496,185.070756 50.1500366,183.043871 C48.5118237,181.402669 40.3555594,163.441766 38.5023773,158.493541 C36.6491953,153.545316 33.8272091,144.603591 33.61224,139.245065 C33.0414599,124.991223 32.0843756,100.840483 31.8850743,82.9570479 C43.6246851,65.6902193 62.7622679,67.130634 75.467684,63.5691333 Z" id="路径" fill="url(#linearGradient-15)" fill-rule="nonzero"></path>
          <rect id="矩形" fill="url(#linearGradient-16)" fill-rule="nonzero" x="68.0082029" y="74.1797302" width="31.0909091" height="45.8181818" rx="4"></rect>
          <path d="M58.5129936,109.25509 C63.4381893,105.032103 68.2702547,102.211297 73.0091896,100.792671 C76.9286058,100.774554 76.1248968,102.036807 74.1120044,102.626007 C76.0818935,103.160281 85.1665533,105.066129 80.117592,117.808887 C76.1968908,121.326772 66.750325,125.971448 58.9011684,122.346637 C54.7367196,119.626455 54.607328,115.262606 58.5129936,109.25509 Z" id="路径-109" fill="#EFBA9E" fill-rule="nonzero" transform="translate(68.651605, 112.227482) rotate(-31.000000) translate(-68.651605, -112.227482)"></path>
          <path d="M28.688952,83.3977804 C35.9233913,74.6074922 42.9145971,73.7794452 49.6625695,80.9136394 C57.3222286,88.2867217 54.1213099,135.86665 49.6625695,165.268674 C39.2614411,178.001847 26.2559618,170.319465 22.7643703,159.795936 C15.1871419,127.363311 17.1620025,101.897259 28.688952,83.3977804 Z" id="路径-2" fill="url(#linearGradient-17)" fill-rule="nonzero"></path>
          <path d="M30.7224027,154.730767 C33.7856191,140.590476 42.6725934,127.699943 57.3833258,116.059167 C62.7007459,114.07328 68.7313181,115.970773 70.157056,123.224432 C71.6705424,127.630969 63.9107444,162.855212 45.9120767,171.908078 C32.9554477,174.560771 27.8922231,168.835 30.7224027,154.730767 Z" id="路径-3" fill="url(#linearGradient-18)" fill-rule="nonzero"></path>
          <path d="M89.7643156,109.25509 C94.6895114,105.032103 99.5215767,102.211297 104.260512,100.792671 C108.179928,100.774554 107.376219,102.036807 105.363326,102.626007 C107.333216,103.160281 116.417875,105.066129 111.368914,117.808887 C107.448213,121.326772 98.001647,125.971448 90.1524904,122.346637 C85.9880417,119.626455 85.8586501,115.262606 89.7643156,109.25509 Z" id="路径-109" fill="#EFBA9E" fill-rule="nonzero" transform="translate(99.902927, 112.227482) scale(-1, 1) rotate(-31.000000) translate(-99.902927, -112.227482)"></path>
          <path d="M124.703447,83.3977804 C131.937886,74.6074922 138.929092,73.7794452 145.677064,80.9136394 C153.336723,88.2867217 150.135805,135.86665 145.677064,165.268674 C135.275936,178.001847 122.270457,170.319465 118.778865,159.795936 C111.201637,127.363311 113.176497,101.897259 124.703447,83.3977804 Z" id="路径-2" fill="url(#linearGradient-19)" fill-rule="nonzero" transform="translate(132.284514, 124.013761) scale(-1, 1) translate(-132.284514, -124.013761)"></path>
          <path d="M98.9738072,154.730767 C102.037024,140.590476 110.923998,127.699943 125.63473,116.059167 C130.95215,114.07328 136.982723,115.970773 138.408461,123.224432 C139.921947,127.630969 132.162149,162.855212 114.163481,171.908078 C101.206852,174.560771 96.1436276,168.835 98.9738072,154.730767 Z" id="路径-3" fill="url(#linearGradient-20)" fill-rule="nonzero" transform="translate(118.402969, 143.929235) scale(-1, 1) translate(-118.402969, -143.929235)"></path>
          <path d="M139.2382,168.78392 C139.2382,168.78392 160.417725,159.959616 166.567111,179.202365 C171.989151,196.181229 153.871603,199.746399 153.871603,199.746399 L153.871603,199.746399 L140.173424,202.274496 L134.207807,221.271364 L85.7624207,212.32037 L37.2774025,221.271364 L31.3040204,202.259092 L17.7509384,199.756076 C17.7509384,199.756076 -0.346263801,196.190907 5.07068964,179.221209 C11.2149899,159.987119 32.3690831,168.807349 32.3690831,168.807349 L85.738722,183.056045 L139.2382,168.78392 Z" id="裤子" fill="url(#linearGradient-21)" fill-rule="nonzero"></path>
          <path d="M32.6550996,207.052152 L26.8202125,207.431648 C25.0071608,207.527896 23.1900824,207.527896 21.3770307,207.431648 C17.6380228,207.275881 14.1686304,207.270425 14.1686304,207.270425 C14.1686304,207.270425 7.2094972,207.017426 5.76476487,209.006684 C2.9872161,212.834392 4.43703552,220.61482 4.43703552,220.61482 C4.43703552,220.61482 5.31201425,223.834836 6.96531709,225.286845 C8.35917856,226.515621 10.9179826,225.59342 10.9179826,225.59342 C10.9179826,225.59342 15.5217952,224.390935 20.4308329,223.3467 C27.0847409,221.932888 29.9335089,221.461618 29.9335089,221.461618 L36.9333387,219.565126 L32.6550996,207.052152 Z M138.827664,207.052152 L144.693074,207.433136 C146.516291,207.529956 148.343561,207.529956 150.166779,207.433136 C153.926135,207.276873 157.415876,207.271417 157.415876,207.271417 C157.415876,207.271417 164.410618,207.017426 165.865525,209.015613 C168.658334,212.860188 167.198341,220.676828 167.198341,220.676828 C167.198341,220.676828 166.318275,223.910736 164.659886,225.36969 C163.25585,226.603427 160.686872,225.677752 160.686872,225.677752 C160.686872,225.677752 156.057623,224.469315 151.118063,223.420615 C144.428546,222.00085 141.564516,221.526604 141.564516,221.526604 L134.523991,219.622175 L138.827664,207.052152 Z" id="脚" fill="#333333" fill-rule="nonzero"></path>
      </g>
      <path d="M618.4,321.875 L618.4,314.625 L622,314.625 C628.12,314.625 632.8,309.9125 632.8,303.75 L632.8,300.125 C632.8,293.9625 628.12,289.25 622,289.25 C615.88,289.25 611.2,293.9625 611.2,300.125 L611.2,303.75 L604,303.75 L604,300.125 C604,289.975 611.92,282 622,282 C632.08,282 640,289.975 640,300.125 L640,303.75 C640,312.45 633.88,319.7 625.6,321.5125 L625.6,329.125 L618.4,329.125 L618.4,321.875 L618.4,321.875 Z M618.4,332.75 L625.6,332.75 L625.6,340 L618.4,340 L618.4,332.75 Z" id="问号" fill="url(#linearGradient-22)" fill-rule="nonzero" transform="translate(622.000000, 311.000000) rotate(83.000000) translate(-622.000000, -311.000000)"></path>
      <path d="M583.62131,275.267541 L583.62131,270.017541 L586.22131,270.017541 C590.64131,270.017541 594.02131,266.605041 594.02131,262.142541 L594.02131,259.517541 C594.02131,255.055041 590.64131,251.642541 586.22131,251.642541 C581.80131,251.642541 578.42131,255.055041 578.42131,259.517541 L578.42131,262.142541 L573.22131,262.142541 L573.22131,259.517541 C573.22131,252.167541 578.94131,246.392541 586.22131,246.392541 C593.50131,246.392541 599.22131,252.167541 599.22131,259.517541 L599.22131,262.142541 C599.22131,268.442541 594.80131,273.692541 588.82131,275.005041 L588.82131,280.517541 L583.62131,280.517541 L583.62131,275.267541 L583.62131,275.267541 Z M583.62131,283.142541 L588.82131,283.142541 L588.82131,288.392541 L583.62131,288.392541 L583.62131,283.142541 Z" id="问号" fill="url(#linearGradient-23)" fill-rule="nonzero" transform="translate(586.221310, 267.392541) rotate(45.000000) translate(-586.221310, -267.392541)"></path>
      <g id="绿植" transform="translate(-10.925399, 594.157511)" fill-rule="nonzero">
          <path d="M53.4579208,97.7847305 C18.7211621,88.9919949 5.51519106,98.6448032 13.8400076,126.743156 C17.2768648,135.307054 21.6179554,140.267707 26.8632792,141.625117 C42.2267921,154.803478 51.0916726,165.971312 53.4579208,175.128619 C57.0072929,188.86458 70.6197469,202.733737 96.1649191,188.931178 C113.195034,179.729472 127.390936,187.611424 138.752626,212.577035 C163.918858,236.006441 201.646652,240.485951 251.936008,226.015566 C302.225365,211.545181 294.797427,188.486591 229.652195,156.839796 C212.849853,153.406508 200.181906,151.689865 191.648355,151.689865 C183.114804,151.689865 177.463354,143.374295 174.694005,126.743156 C172.893304,116.34828 164.032796,110.087373 148.11248,107.960436 C132.192164,105.833499 124.547998,99.3505574 125.179981,88.5116107 C112.58823,75.545727 100.290346,75.545727 88.2863266,88.5116107 C76.2823076,101.477494 64.672839,104.568534 53.4579208,97.7847305 Z" id="路径-61" fill="url(#linearGradient-24)" transform="translate(148.112480, 156.545047) rotate(10.000000) translate(-148.112480, -156.545047)"></path>
          <path d="M128.357876,61.8772723 L139.708518,118.792492 C147.102266,107.926046 152.423641,98.4478044 155.672643,90.3577665 C160.484426,78.3763885 149.169419,111.841061 140.173455,121.127486 L149.63639,168.578733 C149.645965,168.513344 149.656389,168.449987 149.667663,168.388661 C162.67777,156.94852 170.895007,148.098659 174.319374,141.839075 C173.679437,146.283538 157.476925,166.540868 150.225374,171.539333 L158.930067,215.183483 C158.957143,214.862431 158.980375,214.651495 158.980375,214.651495 C158.980375,214.651495 170.424065,205.903486 174.319374,199.624769 C174.068987,202.241567 164.305398,213.580138 159.442775,217.757845 L166.625116,253.775222 L161.152021,253.775222 L154.642076,215.683175 C145.056775,213.216902 136.254724,205.490142 132.63269,201.122197 C140.695168,207.831691 147.787135,211.53314 153.908592,212.226545 C154.031116,213.306678 154.243439,214.271485 154.545563,215.120968 L136.214888,107.844899 C136.198618,108.140956 136.168439,108.434419 136.12435,108.725288 C125.50581,100.730628 117.714835,91.8155981 112.751425,81.9801986 C114.522037,81.3968589 119.762198,95.8303018 135.848668,105.71297 L128.357876,61.8772723 Z M103.238822,145.449865 C110.476935,153.117211 124.487041,158.514569 145.269141,161.641939 C145.199057,162.54413 145.199057,163.589954 145.269141,164.779412 C125.05606,162.407149 109.416656,153.794333 103.238822,145.449865 Z" id="形状结合" fill="url(#linearGradient-25)" transform="translate(138.779098, 157.826247) rotate(-45.000000) translate(-138.779098, -157.826247)"></path>
          <path d="M100.496525,13.1192019 C68.3285506,-8.77204952 53.4010573,-3.26680461 55.7140452,29.6349366 C61.9026183,53.2030454 65.9619965,68.9582926 63.9323074,83.4041721 C61.9026183,97.8500517 68.2472324,125.149784 100.496525,136.352578 C121.996053,143.821106 128.034527,154.418116 118.611946,168.143606 C113.881324,189.217665 139.9571,204.343139 196.839274,213.520027 C282.162536,227.285361 261.833383,195.652719 239.897382,161.364899 C224.027229,145.480093 221.903337,135.784371 221.903337,123.644346 C221.903337,111.504321 233.51901,91.6604587 200.14408,83.4041721 C185.486559,80.0715009 177.801522,65.4135325 177.088969,39.4302669 C174.782644,26.3698265 160.791703,23.1047164 135.116145,29.6349366 C123.694555,31.8301289 112.154681,26.324884 100.496525,13.1192019 Z" id="路径-65" fill="url(#linearGradient-26)"></path>
          <path d="M132.265793,14.8667685 L144.366738,70.8957685 L144.50287,70.7771673 C152.074817,64.0828933 156.911496,55.9518327 159.012906,46.3839853 L159.077738,46.0747685 L159.072047,46.1190409 C157.984672,53.6751711 158.206027,63.4270148 144.96281,73.6504051 L155.214738,121.128769 L155.507784,120.971226 C164.596231,115.963306 172.1694,107.249088 178.227291,94.8285717 C177.584791,99.2908322 168.96993,117.022913 155.89698,124.283812 L164.982203,166.350593 C167.636591,164.741196 174.635034,159.979484 178.227291,152.614266 C176.551091,158.07617 173.285119,164.909693 165.6606,169.489893 L179.068008,231.572551 L173.470997,228.842707 L161.516396,166.766296 C141.554906,165.760351 133.721891,158.288622 130.145364,153.975556 C138.030824,160.537738 148.268673,163.661789 160.858911,163.34771 L151.768386,116.140769 C151.776756,116.474589 151.791551,116.821578 151.812772,117.181736 C131.599691,114.809472 113.324572,106.78383 107.146738,98.4393607 C114.384851,106.106707 129.273529,111.308341 151.812772,114.044263 L151.353738,113.987769 L141.225572,61.3832515 C141.208927,61.565688 141.186929,61.7471264 141.159578,61.9275666 C128.078098,56.5155778 119.911352,47.5296205 116.659341,34.9696948 C118.427873,34.3870402 120.784183,50.1179685 140.745474,58.903355 L132.265793,14.8667685 Z" id="形状结合" fill="url(#linearGradient-27)" transform="translate(143.107373, 123.219660) rotate(-26.000000) translate(-143.107373, -123.219660)"></path>
          <path d="M210.126368,14.594686 C222.545375,-2.66511618 233.662578,-0.913530277 243.477977,19.8494437 C248.236888,37.7903021 240.72244,49.1966794 265.298493,57.3519642 C281.682529,62.7888208 284.161791,74.1716616 272.736279,91.5004868 C267.964121,102.404197 271.489923,109.373709 283.313684,112.409024 C295.137446,115.444338 293.715218,127.517382 279.046999,148.628157 C273.962442,160.201369 273.962442,167.934544 279.046999,171.827682 C286.673836,177.66739 301.328876,195.179148 283.313684,229.219126 C265.298493,263.259105 222.853604,236.822667 216.489986,220.818047 C210.126368,204.813427 222.853604,182.767143 216.489986,171.827682 C210.126368,160.888221 173.02471,157.12147 182.93685,124.310978 C191.186456,110.887444 202.671075,107.007173 191.140868,84.150088 C179.610661,61.2930028 176.683549,70.4768325 191.140868,47.9608957 C197.453469,41.4908822 203.781969,30.3688123 210.126368,14.594686 Z" id="路径-96" fill="url(#linearGradient-28)"></path>
          <path d="M227.031254,44.3491751 L238.381895,101.264395 C245.775644,90.397949 251.097019,80.9197072 254.34602,72.8296692 C259.157803,60.8482913 247.842797,94.3129634 238.846832,103.599388 L248.309767,151.050636 C248.319342,150.985247 248.329766,150.92189 248.34104,150.860564 C261.351147,139.420423 269.568384,130.570561 272.992752,124.310978 C272.352814,128.755441 256.150302,149.012771 248.898751,154.011236 L257.603444,197.655386 C257.63052,197.334334 257.653752,197.123397 257.653752,197.123397 C257.653752,197.123397 269.097442,188.375389 272.992752,182.096672 C272.742365,184.713469 262.978776,196.05204 258.116152,200.229748 L265.298493,236.247125 L259.825398,236.247125 L253.315454,198.155078 C243.730152,195.688804 234.928101,187.962045 231.306067,183.594099 C239.368545,190.303594 246.460512,194.005043 252.581969,194.698448 C252.704493,195.778581 252.916816,196.743388 253.21894,197.592871 L234.888265,90.3168021 C234.871996,90.6128587 234.841816,90.9063217 234.797727,91.1971908 C224.179187,83.2025307 216.388212,74.2875009 211.424802,64.4521014 C213.195414,63.8687616 218.435575,78.3022046 234.522045,88.1848725 L227.031254,44.3491751 Z M201.912199,127.921767 C209.150312,135.589113 223.160419,140.986472 243.942519,144.113842 C243.872435,145.016033 243.872435,146.061857 243.942519,147.251315 C223.729438,144.879052 208.090033,136.266236 201.912199,127.921767 Z" id="形状结合" fill="url(#linearGradient-25)"></path>
      </g>
      <g id="石头" transform="translate(896.000000, 738.000000)" fill-rule="nonzero">
          <path d="M42.3959886,49.5164474 C45.3020221,27.3131416 37.8366926,15.351725 20,13.6321975 C44.1424324,11.3251757 60.1235326,26.0173187 60.3823024,49.5164474 C55.3770448,49.6908524 49.3816069,49.6908524 42.3959886,49.5164474 Z" id="路径-38" fill="url(#linearGradient-29)"></path>
          <path d="M54.120901,49.6472512 C58.8339305,27.2411086 53.0371808,10.6920249 36.7306519,0 C57.5522392,6.56657635 72.5106644,16.4351231 77.3732031,49.6472512 C71.0188781,50.1175829 63.2681108,50.1175829 54.120901,49.6472512 Z" id="路径-39" fill="url(#linearGradient-30)"></path>
          <path d="M81.0677818,50 C78.9833933,28.7044584 86.627466,16.502709 104,13.3947519 C87.886355,12.9867807 69.9112687,11.9056548 57.0519275,50 C67.9497157,49.6502805 75.9550005,49.6502805 81.0677818,50 Z" id="路径-40" fill="url(#linearGradient-31)"></path>
          <path d="M31.4123189,63.9990036 C48.2570038,63.9990036 61,64.4087768 61,48.6086537 C61,32.8085305 47.3446849,20 30.5,20 C13.6553151,20 0,32.8085305 0,48.6086537 C0,64.4087768 14.567634,63.9990036 31.4123189,63.9990036 Z" id="椭圆形" fill="url(#linearGradient-32)"></path>
          <path d="M64.5683298,63.9993886 C75.0617401,63.9993886 83,64.2508403 83,54.5553102 C83,44.8597801 74.4934102,37 64,37 C53.5065898,37 45,44.8597801 45,54.5553102 C45,64.2508403 54.0749196,63.9993886 64.5683298,63.9993886 Z" id="椭圆形备份-6" fill="url(#linearGradient-33)"></path>
      </g>
  </g>
</svg>