<svg width="1024px" height="1024px" viewBox="0 0 1024 1024" version="1.1" xmlns="http://www.w3.org/2000/svg" xmlns:xlink="http://www.w3.org/1999/xlink">
    <title>404</title>
    <defs>
        <linearGradient x1="-13.5823507%" y1="50%" x2="50%" y2="47.2031971%" id="linearGradient-1">
            <stop stop-color="#98D6FA" offset="0%"></stop>
            <stop stop-color="#47B0F1" offset="100%"></stop>
        </linearGradient>
        <linearGradient x1="-9.33772794e-14%" y1="-3.10559006%" x2="100%" y2="-3.10559006%" id="linearGradient-2">
            <stop stop-color="#FFF5DE" offset="0%"></stop>
            <stop stop-color="#FBD2AC" offset="100%"></stop>
        </linearGradient>
        <linearGradient x1="-13.5823507%" y1="50%" x2="50%" y2="47.6284444%" id="linearGradient-3">
            <stop stop-color="#98D6FA" offset="0%"></stop>
            <stop stop-color="#47B0F1" offset="100%"></stop>
        </linearGradient>
        <linearGradient x1="-13.5823507%" y1="50%" x2="50%" y2="47.629463%" id="linearGradient-4">
            <stop stop-color="#98D6FA" offset="0%"></stop>
            <stop stop-color="#47B0F1" offset="100%"></stop>
        </linearGradient>
        <linearGradient x1="-13.5823507%" y1="50%" x2="50%" y2="47.6298828%" id="linearGradient-5">
            <stop stop-color="#98D6FA" offset="0%"></stop>
            <stop stop-color="#47B0F1" offset="100%"></stop>
        </linearGradient>
        <linearGradient x1="80.1766865%" y1="78.1244605%" x2="40.1612594%" y2="1.20356745%" id="linearGradient-6">
            <stop stop-color="#98D6FA" offset="0%"></stop>
            <stop stop-color="#47B0F1" offset="100%"></stop>
        </linearGradient>
        <linearGradient x1="16.9636606%" y1="77.6033014%" x2="73.1106367%" y2="27.3104148%" id="linearGradient-7">
            <stop stop-color="#98D6FA" offset="0%"></stop>
            <stop stop-color="#47B0F1" offset="100%"></stop>
        </linearGradient>
        <linearGradient x1="0%" y1="66.879116%" x2="84.977599%" y2="36.1255675%" id="linearGradient-8">
            <stop stop-color="#98D6FA" offset="0%"></stop>
            <stop stop-color="#47B0F1" offset="100%"></stop>
        </linearGradient>
        <linearGradient x1="0%" y1="64.3617284%" x2="84.977599%" y2="38.1948302%" id="linearGradient-9">
            <stop stop-color="#98D6FA" offset="0%"></stop>
            <stop stop-color="#47B0F1" offset="100%"></stop>
        </linearGradient>
        <linearGradient x1="0%" y1="63.9354617%" x2="84.977599%" y2="38.5452163%" id="linearGradient-10">
            <stop stop-color="#98D6FA" offset="0%"></stop>
            <stop stop-color="#47B0F1" offset="100%"></stop>
        </linearGradient>
        <linearGradient x1="45.1441613%" y1="7.10542736e-13%" x2="52.6925984%" y2="100%" id="linearGradient-11">
            <stop stop-color="#98D6FA" offset="0%"></stop>
            <stop stop-color="#47B0F1" offset="100%"></stop>
        </linearGradient>
        <linearGradient x1="27.474681%" y1="-10.5536079%" x2="69.1969346%" y2="40.8831165%" id="linearGradient-12">
            <stop stop-color="#98D6FA" offset="0%"></stop>
            <stop stop-color="#47B0F1" offset="100%"></stop>
        </linearGradient>
        <linearGradient x1="39.2633926%" y1="50%" x2="79.416262%" y2="46.2434292%" id="linearGradient-13">
            <stop stop-color="#98D6FA" offset="0%"></stop>
            <stop stop-color="#47B0F1" offset="100%"></stop>
        </linearGradient>
        <linearGradient x1="-13.5823507%" y1="50%" x2="77.1322014%" y2="50%" id="linearGradient-14">
            <stop stop-color="#98D6FA" offset="0%"></stop>
            <stop stop-color="#47B0F1" offset="100%"></stop>
        </linearGradient>
        <linearGradient x1="-3.55271368e-13%" y1="43.6438998%" x2="139.088738%" y2="77.276811%" id="linearGradient-15">
            <stop stop-color="#98D6FA" offset="0%"></stop>
            <stop stop-color="#47B0F1" offset="100%"></stop>
        </linearGradient>
        <linearGradient x1="36.1752915%" y1="126.911863%" x2="58.957702%" y2="-136.979793%" id="linearGradient-16">
            <stop stop-color="#98D6FA" stop-opacity="0" offset="0%"></stop>
            <stop stop-color="#47B0F1" offset="100%"></stop>
        </linearGradient>
        <linearGradient x1="34.6739485%" y1="0%" x2="50%" y2="100%" id="linearGradient-17">
            <stop stop-color="#98D6FA" offset="0%"></stop>
            <stop stop-color="#47B0F1" offset="100%"></stop>
        </linearGradient>
        <linearGradient x1="-54.0805314%" y1="66.1093002%" x2="50%" y2="41.5036819%" id="linearGradient-18">
            <stop stop-color="#98D6FA" offset="0%"></stop>
            <stop stop-color="#47B0F1" offset="100%"></stop>
        </linearGradient>
        <linearGradient x1="49.3756793%" y1="87.0084871%" x2="50.6180915%" y2="-35.2723256%" id="linearGradient-19">
            <stop stop-color="#98D6FA" offset="0%"></stop>
            <stop stop-color="#47B0F1" offset="100%"></stop>
        </linearGradient>
        <linearGradient x1="49.3853353%" y1="87.0084871%" x2="50.6085319%" y2="-35.2723256%" id="linearGradient-20">
            <stop stop-color="#98D6FA" offset="0%"></stop>
            <stop stop-color="#47B0F1" offset="100%"></stop>
        </linearGradient>
        <linearGradient x1="-54.0805314%" y1="59.0886604%" x2="153.042074%" y2="29.0585546%" id="linearGradient-21">
            <stop stop-color="#98D6FA" offset="0%"></stop>
            <stop stop-color="#47B0F1" offset="100%"></stop>
        </linearGradient>
        <linearGradient x1="-11.925513%" y1="87.0084871%" x2="50%" y2="30.4810963%" id="linearGradient-22">
            <stop stop-color="#98D6FA" offset="0%"></stop>
            <stop stop-color="#47B0F1" offset="100%"></stop>
        </linearGradient>
        <linearGradient x1="-11.925513%" y1="87.0084871%" x2="111.307655%" y2="-35.2723256%" id="linearGradient-23">
            <stop stop-color="#98D6FA" offset="0%"></stop>
            <stop stop-color="#47B0F1" offset="100%"></stop>
        </linearGradient>
        <linearGradient x1="-47.8681948%" y1="87.0084871%" x2="50%" y2="30.4810963%" id="linearGradient-24">
            <stop stop-color="#98D6FA" offset="0%"></stop>
            <stop stop-color="#47B0F1" offset="100%"></stop>
        </linearGradient>
        <linearGradient x1="-37.4015886%" y1="47.8939318%" x2="89.9956806%" y2="50.8935163%" id="linearGradient-25">
            <stop stop-color="#98D6FA" offset="0%"></stop>
            <stop stop-color="#47B0F1" offset="100%"></stop>
        </linearGradient>
        <linearGradient x1="0%" y1="-11.7647059%" x2="100%" y2="-11.7647059%" id="linearGradient-26">
            <stop stop-color="#F5DDA7" offset="0%"></stop>
            <stop stop-color="#FA9A41" offset="100%"></stop>
        </linearGradient>
        <linearGradient x1="86.2750219%" y1="-2.80504909%" x2="-2.70574742e-12%" y2="-2.80504909%" id="linearGradient-27">
            <stop stop-color="#1D181C" offset="0%"></stop>
            <stop stop-color="#2C2422" offset="30%"></stop>
            <stop stop-color="#42352C" offset="50%"></stop>
            <stop stop-color="#57352C" offset="70%"></stop>
            <stop stop-color="#923629" offset="100%"></stop>
        </linearGradient>
        <linearGradient x1="86.2750219%" y1="-2.80504909%" x2="-2.70574742e-12%" y2="-2.80504909%" id="linearGradient-28">
            <stop stop-color="#1D181C" offset="0%"></stop>
            <stop stop-color="#2C2422" offset="30%"></stop>
            <stop stop-color="#42352C" offset="50%"></stop>
            <stop stop-color="#57352C" offset="70%"></stop>
            <stop stop-color="#923629" offset="100%"></stop>
        </linearGradient>
        <linearGradient x1="100%" y1="-2.96987539%" x2="0.581465918%" y2="-2.96987539%" id="linearGradient-29">
            <stop stop-color="#FFB859" offset="0%"></stop>
            <stop stop-color="#F97B61" offset="100%"></stop>
        </linearGradient>
        <linearGradient x1="100%" y1="-2.96987539%" x2="0.581465918%" y2="-2.96987539%" id="linearGradient-30">
            <stop stop-color="#FFB859" offset="0%"></stop>
            <stop stop-color="#F97B61" offset="100%"></stop>
        </linearGradient>
        <linearGradient x1="100%" y1="-2.96987539%" x2="0.581465918%" y2="-2.96987539%" id="linearGradient-31">
            <stop stop-color="#FFB859" offset="0%"></stop>
            <stop stop-color="#F97B61" offset="100%"></stop>
        </linearGradient>
    </defs>
    <g id="404" stroke="none" stroke-width="1" fill="none" fill-rule="evenodd">
        <rect id="矩形" fill="#FFFFFF" opacity="0" x="0" y="0" width="1024" height="1024"></rect>
        <g id="背景" transform="translate(62.000000, 125.000000)" fill-rule="nonzero">
            <path d="M14.7968319,456.766916 C7.12382848,423.67151 -42.8231183,208.146339 98.3979081,178.512529 C239.618934,148.878718 323.047548,183.393328 385.098412,123.051676 C447.149277,62.7100235 462.623694,72.613831 513.590202,76.6047879 C564.55671,80.5957448 623.626164,37.0388532 643.474877,23.9553401 C663.32359,10.871827 842.534029,-73.3066327 888.351129,178.512529 C895.592256,287.383698 901.609849,405.496594 850.912963,450.237259 C800.216077,494.977924 851.839129,535.151398 888.351129,539.615502 C924.863128,544.079607 871.28154,620.525811 786.950659,653.901824 C730.880095,679.056083 368.190711,751.180384 150.994775,677.040997 C46.1148664,632.124956 22.4698352,489.862323 14.7968319,456.766916 Z" id="路径-58" fill="#47B0F1" opacity="0.05"></path>
            <path d="M96,204 L96.0005978,204.150149 C99.4236604,204.845285 102,207.871774 102,211.5 L102,212.5 C102,216.642136 98.6421356,220 94.5,220 L15.5,220 C11.3578644,220 8,216.642136 8,212.5 L8,211.5 C8,207.357864 11.3578644,204 15.5,204 L47,204 C50.7854517,204 53.8690987,200.995217 53.995941,197.24065 L54,197 C54,193.214548 50.9952166,190.130901 47.2406498,190.004059 L47,190 L44,190 L44.000406,189.850055 C40.5768433,189.155307 38,186.12858 38,182.5 L38,181.5 C38,177.357864 41.3578644,174 45.5,174 L124.5,174 C128.642136,174 132,177.357864 132,181.5 L132,182.5 C132,186.642136 128.642136,190 124.5,190 L93,190 C89.2145483,190 86.1309013,193.004783 86.004059,196.75935 L86,197 C86,200.785452 89.0047834,203.869099 92.7593502,203.995941 L93,204 L96,204 Z" id="形状结合" fill="url(#linearGradient-1)" opacity="0.100000001"></path>
            <path d="M796,34 L796.000598,34.1501485 C799.42366,34.845285 802,37.8717743 802,41.5 L802,42.5 C802,46.6421356 798.642136,50 794.5,50 L715.5,50 C711.357864,50 708,46.6421356 708,42.5 L708,41.5 C708,37.3578644 711.357864,34 715.5,34 L747,34 C750.785452,34 753.869099,30.9952166 753.995941,27.2406498 L754,27 C754,23.2145483 750.995217,20.1309013 747.24065,20.004059 L747,20 L744,20 L744.000406,19.8500552 C740.576843,19.1553066 738,16.1285803 738,12.5 L738,11.5 C738,7.35786438 741.357864,4 745.5,4 L824.5,4 C828.642136,4 832,7.35786438 832,11.5 L832,12.5 C832,16.6421356 828.642136,20 824.5,20 L793,20 C789.214548,20 786.130901,23.0047834 786.004059,26.7593502 L786,27 C786,30.7854517 789.004783,33.8690987 792.75935,33.995941 L793,34 L796,34 Z" id="形状结合" fill="url(#linearGradient-1)" opacity="0.100000001"></path>
            <path d="M452.516571,587 C583.621204,587 701.777821,597.788312 784.302945,615.013362 C865.063746,615.660019 930,640.030791 930,670 C930,694.229977 887.553421,714.80045 828.610822,722.132354 C815.644044,725.884939 801.204898,729.433119 785.453239,732.745641 C785.815027,734.812004 786,736.897944 786,739 C786,790.914766 673.175757,833 534,833 C409.347257,833 305.833398,799.239705 285.587359,754.894193 C118.19765,742.128701 0,710.721174 0,674 C0,625.951227 202.367293,587 452.516571,587 Z" id="形状结合" fill="url(#linearGradient-2)"></path>
            <g id="大雁" transform="translate(587.174147, 36.907158)">
                <path d="M37.4312095,64.7423818 L37.4312095,64.6452119 C32.1058219,49.6073265 14.7356607,42.5306746 0,44.7153228 C10.9264423,37.9201286 28.9638433,36.1107574 37.4343421,46.5280447 L37.4343421,46.6185133 C45.8923106,36.2916945 64.0268216,38.0139479 74.8686842,44.8057914 C60.1455538,42.7216638 42.77226,49.7882636 37.4343421,64.7356804 L37.4312095,64.7423818 Z" id="路径" fill="url(#linearGradient-3)"></path>
                <path d="M120.860322,52.2014603 L120.860322,52.1377972 C117.160744,41.7138085 105.128501,36.8184542 94.9131541,38.3229128 C102.484602,33.6151969 114.989865,32.3586891 120.860322,39.5794206 L120.860322,39.6430837 C126.730779,32.4860153 139.292428,33.67886 146.80749,38.3865759 C136.592143,36.9424296 124.566165,41.8411347 120.860322,52.2014603 L120.860322,52.2014603 Z" id="路径" fill="url(#linearGradient-4)"></path>
                <path d="M86.0679846,17.7234613 L86.0679846,17.6597983 C82.3684066,7.23580958 70.3361632,2.34045519 60.1208168,3.84491386 C67.6922649,-0.862802022 80.197528,-2.11930982 86.0679846,5.10142166 L86.0679846,5.16508473 C91.9384413,-1.9919837 104.500091,-0.79913896 112.015152,3.90857693 C101.799806,2.46443063 89.7738279,7.3631357 86.0679846,17.7234613 L86.0679846,17.7234613 Z" id="路径" fill="url(#linearGradient-4)"></path>
                <path d="M191.548904,58.1616316 L191.548904,58.1180727 C188.986453,50.8939905 180.641257,47.4963934 173.561624,48.5418079 C178.81183,45.2782383 187.479681,44.4070596 191.548904,49.4129867 L191.548904,49.4565456 C195.621259,44.4941775 204.326702,45.3217973 209.536184,48.5853668 C202.456551,47.5801606 194.111355,50.9811084 191.548904,58.1616316 Z" id="路径" fill="url(#linearGradient-5)"></path>
            </g>
            <g id="石头" transform="translate(834.000000, 613.000000)">
                <path d="M42.3959886,49.5164474 C45.3020221,27.3131416 37.8366926,15.351725 20,13.6321975 C44.1424324,11.3251757 60.1235326,26.0173187 60.3823024,49.5164474 C55.3770448,49.6908524 49.3816069,49.6908524 42.3959886,49.5164474 Z" id="路径-38" fill="url(#linearGradient-6)"></path>
                <path d="M54.120901,49.6472512 C58.8339305,27.2411086 53.0371808,10.6920249 36.7306519,0 C57.5522392,6.56657635 72.5106644,16.4351231 77.3732031,49.6472512 C71.0188781,50.1175829 63.2681108,50.1175829 54.120901,49.6472512 Z" id="路径-39" fill="url(#linearGradient-7)"></path>
                <path d="M81.0677818,50 C78.9833933,28.7044584 86.627466,16.502709 104,13.3947519 C87.886355,12.9867807 69.9112687,11.9056548 57.0519275,50 C67.9497157,49.6502805 75.9550005,49.6502805 81.0677818,50 Z" id="路径-40" fill="url(#linearGradient-8)"></path>
                <path d="M31.4123189,63.9990036 C48.2570038,63.9990036 61,64.4087768 61,48.6086537 C61,32.8085305 47.3446849,20 30.5,20 C13.6553151,20 0,32.8085305 0,48.6086537 C0,64.4087768 14.567634,63.9990036 31.4123189,63.9990036 Z" id="椭圆形" fill="url(#linearGradient-9)"></path>
                <path d="M64.5683298,63.9993886 C75.0617401,63.9993886 83,64.2508403 83,54.5553102 C83,44.8597801 74.4934102,37 64,37 C53.5065898,37 45,44.8597801 45,54.5553102 C45,64.2508403 54.0749196,63.9993886 64.5683298,63.9993886 Z" id="椭圆形备份-6" fill="url(#linearGradient-10)"></path>
            </g>
        </g>
        <g transform="translate(410.012477, 505.294055) scale(-1, 1) rotate(12.000000) translate(-410.012477, -505.294055) translate(-8.094706, 47.899857)" fill-rule="nonzero">
            <polygon id="路径" fill="url(#linearGradient-11)" transform="translate(244.519748, 45.999461) rotate(-20.000000) translate(-244.519748, -45.999461)" points="238.748679 8.96217574 250.290817 8.96217574 256.061886 83.0367457 232.97761 83.0367457"></polygon>
            <rect id="矩形" fill="url(#linearGradient-12)" transform="translate(278.299742, 138.809230) rotate(-20.000000) translate(-278.299742, -138.809230)" x="197.504775" y="52.3888981" width="161.589934" height="172.840663" rx="80.7949668"></rect>
            <ellipse id="椭圆形" fill="url(#linearGradient-13)" transform="translate(290.967239, 164.723457) rotate(-20.000000) translate(-290.967239, -164.723457)" cx="290.967239" cy="164.723457" rx="173.132072" ry="74.0745699"></ellipse>
            <ellipse id="椭圆形备份" fill="url(#linearGradient-14)" transform="translate(290.967239, 173.612893) rotate(-20.000000) translate(-290.967239, -173.612893)" cx="290.967239" cy="173.612893" rx="173.132072" ry="74.0745699"></ellipse>
            <ellipse id="椭圆形" fill="url(#linearGradient-15)" transform="translate(293.078489, 179.413504) rotate(-20.000000) translate(-293.078489, -179.413504)" cx="293.078489" cy="179.413504" rx="103.879243" ry="37.037285"></ellipse>
            <polygon id="路径" fill="url(#linearGradient-16)" opacity="0.3" transform="translate(418.107183, 487.052404) rotate(-20.000000) translate(-418.107183, -487.052404)" points="301.958099 149.031187 509.716585 149.031187 740.017893 825.073621 96.196474 781.338164"></polygon>
            <ellipse id="椭圆形" fill="url(#linearGradient-17)" transform="translate(231.852251, 11.195797) rotate(-20.000000) translate(-231.852251, -11.195797)" cx="231.852251" cy="11.1957973" rx="8.31079569" ry="8.88943641"></ellipse>
        </g>
        <g id="4" transform="translate(115.000000, 700.000000)" fill-rule="nonzero">
            <path d="M115.595582,8.84940307 L118.652997,56.0720733 L33.6932025,52.5873795 L115.595582,8.84940307 Z M95.3479954,70.0081148 L94.66,87.7814031 L145.953238,87.2727445 L145.903494,124.290332 L89.990784,124.817518 L89.99,109.529403 L0.0526301699,109.529608 L0,70.0081148 L95.3479954,70.0081148 Z M150.029705,68.6929608 L175.772499,68.6942462 L175.772499,106.076907 L150.029705,106.224978 L150.029705,68.6929608 Z" id="形状结合" fill="url(#linearGradient-18)"></path>
            <polygon id="路径-23" fill="url(#linearGradient-19)" points="145.953238 88.5866131 145.953238 122.615014 149.997354 109.184263 150.027621 70.0081148"></polygon>
            <polygon id="路径-24" fill="url(#linearGradient-20)" points="175.77863 69.8499499 179.960233 51.1005927 180 92.7954362 175.767154 106.181121"></polygon>
            <path d="M145.953238,88.5866131 L150.027621,70.0081148 L175.77863,69.8499499 L179.960233,50.9011674 L154.209224,50.9407086 L165.252945,0.583199983 L110.392099,0 L4.503265,49.6511932 L0,70.9295972 L94.0471651,70.3519515 L89.9727825,89.1817151 L145.953238,88.5866131 Z M98.2287683,51.0266678 L50.0855767,51.1005927 L104.125901,23.7730625 L98.2287683,51.0266678 Z" fill="url(#linearGradient-21)"></path>
        </g>
        <g id="0" transform="translate(285.747483, 536.072862)" fill-rule="nonzero">
            <path d="M82.2580501,179.523512 C88.3377456,180.163968 93.1603612,180.444167 96.7258969,180.36411 C98.0058327,180.36411 101.457088,180.203996 107.079664,179.883768 C112.702239,179.56354 117.022023,179.163255 120.039015,178.682913 C123.056007,178.202571 126.164422,177.462044 129.364262,176.461331 C132.564102,175.460619 135.626805,174.239749 138.552373,172.798723 C141.477941,171.357697 143.900677,169.936685 145.82058,168.535688 C147.740484,167.13469 149.751812,165.113251 151.854564,162.47137 C153.957316,159.829489 155.76294,156.166881 157.271435,151.483546 C158.779931,146.800212 159.717027,142.957475 160.082723,139.955338 C160.448419,136.9532 160.631267,132.409965 160.631267,126.325633 L160.631267,126.325633 L160.631267,61.8397168 C160.631267,59.0377217 160.425563,56.115641 160.014155,53.0734749 C159.602747,50.0313088 159.031347,47.3694134 158.299955,45.0877888 C157.568563,42.8061642 156.494332,40.3243971 155.07726,37.6424875 C153.660188,34.9605779 151.4203,32.1385686 148.357596,29.1764594 C145.294893,26.2143503 142.300757,23.8126402 139.375189,21.9713291 C136.449621,20.1300181 133.295494,18.5689065 129.912806,17.2879944 C126.530118,16.0070824 122.690311,15.0864269 118.393383,14.5260278 C114.096455,13.9656288 108.885288,13.7254578 102.75988,13.8055148 L102.75988,13.8055148 L91.5147293,14.0456858 C83.74369,14.2858568 77.9154105,14.6461133 74.0298909,15.1264554 C70.1443712,15.6067974 66.0988596,16.6875669 61.893356,18.368764 C57.6878523,20.0499611 54.0080367,22.0914146 50.8539089,24.4931247 C47.6997812,26.8948348 45.2313334,29.2164879 43.4485656,31.458084 C41.6657978,33.6996801 39.9744539,36.0613617 38.3745341,38.5431288 C36.7746142,41.0248959 35.4718223,43.9269623 34.4661584,47.2493279 C33.4604945,50.5716936 32.6833906,55.154957 32.1348466,60.9991182 L32.1348466,60.9991182 L32.1348466,126.565804 C32.1348466,130.488597 32.3862626,134.211248 32.8890945,137.733756 C33.3919265,141.256264 34.3518784,145.319157 35.7689503,149.922435 C37.1860222,154.525712 39.334486,158.428491 42.2143417,161.630771 C45.0941975,164.833051 47.8597732,167.394876 50.511069,169.316244 C53.1623647,171.237612 56.2479245,172.938823 59.7677481,174.419878 C63.2875718,175.900932 66.3959876,176.961687 69.0929953,177.602144 C71.7900031,178.2426 76.1783547,178.883056 82.2580501,179.523512 Z M100.565705,144.098288 L98.9200727,144.098288 C93.1603612,144.098288 88.7491536,143.437817 85.6864498,142.116877 C82.6237461,140.795936 79.9495943,138.814525 77.6639946,136.172644 C75.3783948,133.530763 73.9613229,130.348497 73.4127789,126.625847 C72.864235,122.903196 72.589963,118.720218 72.589963,114.076911 L72.589963,114.076911 L72.452827,71.5666427 C72.361403,64.6817404 73.001371,60.0384342 74.3727308,57.6367241 C75.7440907,55.235014 77.0240266,53.4537457 78.2125385,52.2929191 C79.4010504,51.1320926 81.3895222,49.9912803 84.177954,48.8704822 C86.9663857,47.7496842 89.3662655,47.1892852 91.3775933,47.1892852 L91.3775933,47.1892852 L97.4115768,47.3093707 C101.61708,47.4694847 105.27404,48.1099407 108.382456,49.2307388 C111.490872,50.3515368 113.776471,51.5924204 115.239255,52.9533894 C116.702039,54.3143585 117.959119,57.1563821 119.010495,61.4794603 C120.061871,65.8025384 120.587559,69.9254741 120.587559,73.8482673 L120.587559,73.8482673 L120.587559,114.677339 C120.587559,115.958251 120.336143,119.220574 119.833311,124.464308 C119.330479,129.708041 118.530519,133.390663 117.433431,135.512174 C116.336343,137.633685 114.210735,139.595081 111.056608,141.396364 C107.90248,143.197646 104.405512,144.098288 100.565705,144.098288 L100.565705,144.098288 Z" fill="url(#linearGradient-22)" transform="translate(96.383057, 97.083979) rotate(15.000000) translate(-96.383057, -97.083979)"></path>
            <path d="M69.4919364,188.466607 C75.5716318,189.107063 80.3942474,189.387262 83.9597831,189.307205 C85.239719,189.307205 88.6909747,189.147091 94.3135502,188.826863 C99.9361257,188.506635 104.255909,188.10635 107.272901,187.626008 C110.289893,187.145666 113.398308,186.405139 116.598148,185.404426 C119.797988,184.403714 122.860692,183.182844 125.786259,181.741818 C128.711827,180.300792 131.134563,178.879781 133.054467,177.478783 C134.974371,176.077785 136.985698,174.056346 139.08845,171.414465 C141.191202,168.772584 142.996826,165.109976 144.505322,160.426641 C146.013818,155.743307 146.950913,151.90057 147.316609,148.898433 C147.682305,145.896295 147.865153,141.35306 147.865153,135.268728 L147.865153,135.268728 L147.865153,70.7828118 C147.865153,67.9808167 147.659449,65.0587361 147.248041,62.01657 C146.836633,58.9744038 146.265234,56.3125085 145.533842,54.0308839 C144.80245,51.7492593 143.728218,49.2674922 142.311146,46.5855826 C140.894074,43.903673 138.654186,41.0816636 135.591482,38.1195545 C132.528779,35.1574454 129.534643,32.7557353 126.609075,30.9144242 C123.683508,29.0731131 120.52938,27.5120016 117.146692,26.2310895 C113.764004,24.9501775 109.924197,24.0295219 105.627269,23.4691229 C101.330342,22.9087239 96.119174,22.6685529 89.9937665,22.7486099 L89.9937665,22.7486099 L78.7486155,22.9887809 C70.9775762,23.2289519 65.1492968,23.5892084 61.2637771,24.0695504 C57.3782575,24.5498924 53.3327458,25.630662 49.1272422,27.311859 C44.9217386,28.9930561 41.2419229,31.0345097 38.0877952,33.4362198 C34.9336674,35.8379299 32.4652197,38.159583 30.6824518,40.4011791 C28.899684,42.6427752 27.2083401,45.0044568 25.6084203,47.4862239 C24.0085004,49.967991 22.7057085,52.8700573 21.7000446,56.192423 C20.6943807,59.5147886 19.9172768,64.0980521 19.3687328,69.9422133 L19.3687328,69.9422133 L19.3687328,135.508899 C19.3687328,139.431692 19.6201488,143.154343 20.1229808,146.676851 C20.6258127,150.199359 21.5857646,154.262252 23.0028365,158.86553 C24.4199084,163.468807 26.5683722,167.371586 29.4482279,170.573866 C32.3280837,173.776147 35.0936594,176.337971 37.7449552,178.259339 C40.396251,180.180707 43.4818107,181.881918 47.0016344,183.362973 C50.5214581,184.844027 53.6298738,185.904783 56.3268815,186.545239 C59.0238893,187.185695 63.4122409,187.826151 69.4919364,188.466607 Z M87.7995907,153.041383 L86.1539589,153.041383 C80.3942474,153.041383 75.9830398,152.380912 72.9203361,151.059972 C69.8576323,149.739031 67.1834806,147.75762 64.8978808,145.115739 C62.612281,142.473858 61.1952091,139.291592 60.6466652,135.568942 C60.0981212,131.846291 59.8238492,127.663313 59.8238492,123.020006 L59.8238492,123.020006 L59.6867132,80.5097377 C59.5952893,73.6248354 60.2352572,68.9815293 61.6066171,66.5798192 C62.977977,64.1781091 64.2579128,62.3968407 65.4464247,61.2360142 C66.6349366,60.0751876 68.6234084,58.9343753 71.4118402,57.8135773 C74.200272,56.6927793 76.6001517,56.1323802 78.6114796,56.1323802 L78.6114796,56.1323802 L84.645463,56.2524657 C88.8509666,56.4125797 92.5079263,57.0530358 95.616342,58.1738338 C98.7247578,59.2946319 101.010358,60.5355154 102.473141,61.8964845 C103.935925,63.2574535 105.193005,66.0994771 106.244381,70.4225553 C107.295757,74.7456335 107.821445,78.8685692 107.821445,82.7913623 L107.821445,82.7913623 L107.821445,123.620434 C107.821445,124.901346 107.570029,128.163669 107.067197,133.407403 C106.564365,138.651136 105.764405,142.333759 104.667317,144.455269 C103.570229,146.57678 101.444622,148.538176 98.2904938,150.339459 C95.1363661,152.140741 91.6393984,153.041383 87.7995907,153.041383 L87.7995907,153.041383 Z" fill="url(#linearGradient-23)" transform="translate(83.616943, 106.027074) rotate(15.000000) translate(-83.616943, -106.027074)"></path>
        </g>
        <g id="4" transform="translate(452.842462, 661.953031)" fill-rule="nonzero">
            <path d="M115.595582,8.84940307 L118.652997,56.0720733 L33.6932025,52.5873795 L115.595582,8.84940307 Z M95.3479954,70.0081148 L94.66,87.7814031 L145.953238,87.2727445 L145.903494,124.290332 L89.990784,124.817518 L89.99,109.529403 L0.0526301699,109.529608 L0,70.0081148 L95.3479954,70.0081148 Z M150.029705,68.6929608 L175.772499,68.6942462 L175.772499,106.076907 L150.029705,106.224978 L150.029705,68.6929608 Z" id="形状结合" fill="url(#linearGradient-18)"></path>
            <polygon id="路径-23" fill="url(#linearGradient-19)" points="145.953238 88.5866131 145.953238 122.615014 149.997354 109.184263 150.027621 70.0081148"></polygon>
            <polygon id="路径-24" fill="url(#linearGradient-20)" points="175.77863 69.8499499 179.960233 51.1005927 180 92.7954362 175.767154 106.181121"></polygon>
            <path d="M145.953238,88.5866131 L150.027621,70.0081148 L175.77863,69.8499499 L179.960233,50.9011674 L154.209224,50.9407086 L165.252945,0.583199983 L110.392099,0 L4.503265,49.6511932 L0,70.9295972 L94.0471651,70.3519515 L89.9727825,89.1817151 L145.953238,88.5866131 Z M98.2287683,51.0266678 L50.0855767,51.1005927 L104.125901,23.7730625 L98.2287683,51.0266678 Z" fill="url(#linearGradient-21)"></path>
        </g>
        <polygon id="飞机" fill="url(#linearGradient-24)" fill-rule="nonzero" points="556.599437 440.501722 571.134989 446.73868 578.207753 400.043735 528.753208 428.8552 541.729637 434.92712 573.084248 406.667231 547.910978 437.797194 547.576787 451.043735"></polygon>
        <path d="M244.553678,547.609844 C262.152955,521.772364 285.537319,511.459454 314.706771,516.671112 C334.017234,523.845501 332.742405,532.942633 332.484539,537.457783 C328.889477,543.043649 323.350912,549.337783 310.140924,542.889349 C303.278483,536.423049 307.729214,518.591159 317.617571,510.229646 C320.598968,507.684117 341.932046,483.236986 393.324573,506.712694 C407.773955,513.443131 462.032,573.658368 528.64252,530.47209 C538.005275,524.115409 546.642327,516.19561 554.553678,506.712694" id="路径-25" stroke="url(#linearGradient-25)" stroke-dasharray="2" fill-rule="nonzero" transform="translate(399.553678, 522.109844) scale(-1, -1) rotate(-15.000000) translate(-399.553678, -522.109844)"></path>
        <path d="M898.335967,793.445064 C877.192322,803.475408 886.579582,806.386112 894.505822,809.422844 C909.059553,814.998727 903.910667,822.383656 897.883737,829.35794 C888.96371,839.680078 816.064991,871.792965 731.194585,865.124215 C652.053826,858.918195 659.324874,826.758489 677.105465,810.127443 C691.429584,796.762724 757.133696,761.785811 837.084079,756.110569 C885.194435,752.680926 906.805172,757.988706 911.662916,763.731997 C919.696879,773.245173 921.877346,782.271505 898.335967,793.445064 Z" id="路径" fill="url(#linearGradient-26)" fill-rule="nonzero" opacity="0.4" transform="translate(791.375527, 810.527261) scale(-1, 1) rotate(8.000000) translate(-791.375527, -810.527261)"></path>
        <g id="人物" transform="translate(758.935555, 580.768240) scale(-1, 1) translate(-758.935555, -580.768240) translate(658.107051, 324.317936)" fill-rule="nonzero">
            <path d="M91.0381423,493.613816 C91.1805554,499.019143 89.9700443,501.721806 91.7324061,504.344979 C93.4947678,506.968153 100.81677,509.379151 104.383252,507.605141 C108.904647,505.356146 116.45729,500.974619 118.607785,499.787175 C120.75828,498.599731 135.337765,490.059681 135.702441,484.675596 C136.067117,479.291511 127.620499,477.692606 117.660485,481.428641 C107.700471,485.164676 93.8329988,491.73255 93.8329988,491.73255 L91.0381423,493.613816 Z" id="路径" fill="#333333" transform="translate(113.238943, 493.804195) rotate(13.000000) translate(-113.238943, -493.804195)"></path>
            <path d="M2.76406015,469.510302 C2.96195383,479.100282 1.61478557,481.447137 4.59218591,484.481825 C7.56958626,487.516513 23.1079819,479.394722 24.79533,478.415679 C26.4826781,477.436636 41.8030858,467.832514 42.6936074,463.587618 C43.5841289,459.342723 36.8294473,457.110015 29.9121637,459.457085 C23.7054983,461.565781 14.160937,463.248393 14.160937,463.248393 L2.76406015,469.510302 Z" id="路径" fill="#333333" transform="translate(22.700200, 471.831657) rotate(14.000000) translate(-22.700200, -471.831657)"></path>
            <path d="M33.1269599,225.682064 C33.1269599,225.682064 27.8949578,235.237996 25.7644002,265.013726 C23.6338427,294.789457 36.2553736,365.198672 27.5713288,383.39649 C18.887284,401.594308 3.76406015,457.373969 3.76406015,457.373969 C3.76406015,457.373969 -0.23593985,487.394202 24.3328949,469.478149 C36.3071678,440.117894 55.8349279,405.305888 60.8511774,387.883623 C65.8674268,370.461359 78.3810814,261.219052 78.3810814,261.219052 L33.1269599,225.682064 Z" id="路径" fill="url(#linearGradient-27)"></path>
            <path d="M51.1470389,253.554404 C51.1470389,253.554404 53.4851606,265.350653 59.2095274,294.592059 C64.9338943,323.833465 98.8769712,388.075947 95.3026012,408.124032 C91.7282313,428.172117 92.0788629,485.929216 92.0788629,485.929216 C92.0788629,485.929216 95.3026012,515.214187 113.953825,490.775093 C117.743194,459.207667 128.520054,421.249436 128.761929,403.08432 C129.003803,384.919205 108.578832,252.113972 108.578832,252.113972 L51.1470389,253.554404 Z" id="路径" fill="url(#linearGradient-28)"></path>
            <path d="M159.76406,71.6415603 C165.79091,67.5459729 163.168608,63.6127657 173.720039,57.261899 C180.066899,53.4369452 182.664482,58.5158343 187.269066,57.261899 C191.87365,56.0079637 198.040596,49.5082386 201.16958,52.2867428 C202.840742,53.7842483 200.467485,55.6262061 190.093837,63.682064 C190.093837,63.682064 175.871216,73.4619011 173.720039,73.7235136 C171.568863,73.985126 164.368644,81.682064 164.368644,81.682064 L159.76406,71.6415603 Z" id="路径" fill="#EFBA9E"></path>
            <path d="M50.7640602,63.4810592 C54.5292028,57.4258036 56.0638107,48.3429203 54.154473,43.6411924 C52.2451352,38.9394646 46.4814334,14.3533461 65.5569667,7.3452783 C84.6325,0.337210478 99.5592386,16.579543 96.3205021,35.4131687 C93.0817656,54.2467944 91.1545836,64.6832055 86.1492636,65.3510646 C81.1439436,66.0189236 79.1596465,72.5314835 78.0622234,76.5119235 C76.9648003,80.4923636 55.7693802,68.9129796 55.7693802,68.9129796 L50.7640602,67.2744987 L50.7640602,63.4810592 Z" id="路径" fill="#EBB0B0"></path>
            <path d="M162.170464,64.0919801 C101.281945,102.440489 99.7104568,112.375428 77.1325182,100.121742 C54.5545796,87.8680557 52.9779121,80.6859876 52.9779121,80.6859876 L33.8771899,122.20723 C33.8771899,122.20723 39.1380434,136.424047 73.7640602,145.8774 C108.390077,155.330754 153.819538,100.121742 168.442131,87.9125218 C180.424045,77.908152 166.947079,61.0865272 162.170464,64.0919801 Z" id="路径" fill="url(#linearGradient-29)"></path>
            <path d="M51.3228284,62.6497912 C60.6315289,63.682064 87.7640602,62.6497912 107.702758,119.38203 C116.884504,145.507156 98.2451339,207.833149 114.974421,243.689927 C120.872053,256.327898 109.76406,263.965364 97.7640602,263.965364 C83.26656,263.965364 25.1606358,266.792461 17.7640602,243.689927 C13.963166,231.803257 17.3197715,154.194537 17.7640602,146.960365 C20.319631,105.349037 37.2379878,61.0878763 51.3228284,62.6497912 Z" id="路径" fill="url(#linearGradient-30)"></path>
            <path d="M107.922206,187.682064 C107.922206,187.682064 107.289918,198.598652 106.431812,201.880764 C104.439356,204.722154 102.07656,207.292052 99.4043818,209.524159 C94.5267307,213.769499 87.2915482,212.262225 87.788346,216.962423 C88.2851438,221.662621 93.6144293,217.310255 104.345262,218.969149 C113.459243,220.913443 115.329009,218.264565 115.329009,218.264565 C115.329009,218.264565 115.618055,208.828494 115.753546,203.619926 C116.096788,190.741206 107.922206,187.682064 107.922206,187.682064 Z" id="路径" fill="#EFBA9E"></path>
            <path d="M69.7165065,124.579661 C78.5247701,148.95063 123.157063,198.438327 123.157063,198.438327 C123.157063,198.438327 109.236244,196.279794 106.501094,205.682064 C104.332768,213.121811 105.414575,218.197366 115.950302,219.990399 C132.082291,222.746852 153.819538,219.365548 153.819538,208.20634 C153.819538,170.254357 106.447534,103.696404 97.8569232,97.7073701 C64.1844808,74.2322791 61.4210836,101.6003 69.7165065,124.579661 Z" id="路径" fill="url(#linearGradient-31)"></path>
            <path d="M89.5451499,0.22291314 C108.2748,2.70003791 105.186274,18.8677698 100.170891,27.418269 C95.1555083,35.9687682 94.8953185,33.1156391 87.9688862,37.4264417 C87.9688862,37.4264417 86.853907,35.698101 84.9787459,47.6794658 L81.6293734,48.7311701 C80.3822567,49.0600355 82.1370456,46.1991472 80.3605772,44.679256 C78.5841088,43.1593647 72.6535754,46.9724252 74.9593955,52.3053769 C77.2652156,57.6383286 77.2472715,56.1273256 77.2472715,56.1273256 C77.2472715,56.1273256 72.4920783,61.5136068 69.719711,60.571452 C66.9473436,59.6292972 51.454909,58.4848559 50.7640602,53.6851994 C50.0732113,48.8855429 45.1041943,43.2819982 46.0911212,30.4118081 C47.078048,17.541618 61.6409149,5.17716269 70.1144817,2.70003791 C78.5880485,0.22291314 84.8709531,-0.395281456 89.5451499,0.22291314 Z" id="路径" fill="#131322"></path>
        </g>
    </g>
</svg>