<svg width="1024px" height="1024px" viewBox="0 0 1024 1024" version="1.1" xmlns="http://www.w3.org/2000/svg" xmlns:xlink="http://www.w3.org/1999/xlink">
    <title>500</title>
    <defs>
        <linearGradient x1="-13.5823507%" y1="50%" x2="50%" y2="47.2031971%" id="linearGradient-1">
            <stop stop-color="#98D6FA" offset="0%"></stop>
            <stop stop-color="#47B0F1" offset="100%"></stop>
        </linearGradient>
        <linearGradient x1="-9.33772794e-14%" y1="-3.10559006%" x2="100%" y2="-3.10559006%" id="linearGradient-2">
            <stop stop-color="#FFF5DE" offset="0%"></stop>
            <stop stop-color="#FBD2AC" offset="100%"></stop>
        </linearGradient>
        <linearGradient x1="-13.5823507%" y1="50%" x2="50%" y2="47.6284444%" id="linearGradient-3">
            <stop stop-color="#98D6FA" offset="0%"></stop>
            <stop stop-color="#47B0F1" offset="100%"></stop>
        </linearGradient>
        <linearGradient x1="-13.5823507%" y1="50%" x2="50%" y2="47.629463%" id="linearGradient-4">
            <stop stop-color="#98D6FA" offset="0%"></stop>
            <stop stop-color="#47B0F1" offset="100%"></stop>
        </linearGradient>
        <linearGradient x1="-13.5823507%" y1="50%" x2="50%" y2="47.6298828%" id="linearGradient-5">
            <stop stop-color="#98D6FA" offset="0%"></stop>
            <stop stop-color="#47B0F1" offset="100%"></stop>
        </linearGradient>
        <linearGradient x1="-10.6140486%" y1="87.0084871%" x2="50%" y2="30.4810963%" id="linearGradient-6">
            <stop stop-color="#98D6FA" offset="0%"></stop>
            <stop stop-color="#47B0F1" offset="100%"></stop>
        </linearGradient>
        <linearGradient x1="-54.0805314%" y1="87.0084871%" x2="50%" y2="30.4810963%" id="linearGradient-7">
            <stop stop-color="#98D6FA" offset="0%"></stop>
            <stop stop-color="#47B0F1" offset="100%"></stop>
        </linearGradient>
        <linearGradient x1="-54.0805314%" y1="83.5677888%" x2="50%" y2="32.295779%" id="linearGradient-8">
            <stop stop-color="#98D6FA" offset="0%"></stop>
            <stop stop-color="#47B0F1" offset="100%"></stop>
        </linearGradient>
        <linearGradient x1="-13.5823507%" y1="50%" x2="50%" y2="43.4230204%" id="linearGradient-9">
            <stop stop-color="#98D6FA" offset="0%"></stop>
            <stop stop-color="#47B0F1" offset="100%"></stop>
        </linearGradient>
        <linearGradient x1="43.1398925%" y1="-6.4516129%" x2="60.3365636%" y2="0%" id="linearGradient-10">
            <stop stop-color="#AFDEF9" offset="3.15726754%"></stop>
            <stop stop-color="#7CC9F9" offset="100%"></stop>
        </linearGradient>
        <linearGradient x1="5.92025809%" y1="60.8571499%" x2="59.966368%" y2="37.0542203%" id="linearGradient-11">
            <stop stop-color="#98D6FA" offset="0%"></stop>
            <stop stop-color="#47B0F1" offset="100%"></stop>
        </linearGradient>
        <linearGradient x1="44.4926371%" y1="-6.4516129%" x2="58.2982966%" y2="0%" id="linearGradient-12">
            <stop stop-color="#AFDEF9" offset="3.15726754%"></stop>
            <stop stop-color="#7CC9F9" offset="100%"></stop>
        </linearGradient>
        <linearGradient x1="28.4038852%" y1="87.0084871%" x2="50%" y2="30.4810963%" id="linearGradient-13">
            <stop stop-color="#98D6FA" offset="0%"></stop>
            <stop stop-color="#47B0F1" offset="100%"></stop>
        </linearGradient>
        <linearGradient x1="80.1766865%" y1="78.1244605%" x2="40.1612594%" y2="1.20356745%" id="linearGradient-14">
            <stop stop-color="#98D6FA" offset="0%"></stop>
            <stop stop-color="#47B0F1" offset="100%"></stop>
        </linearGradient>
        <linearGradient x1="16.9636606%" y1="77.6033014%" x2="73.1106367%" y2="27.3104148%" id="linearGradient-15">
            <stop stop-color="#98D6FA" offset="0%"></stop>
            <stop stop-color="#47B0F1" offset="100%"></stop>
        </linearGradient>
        <linearGradient x1="0%" y1="66.879116%" x2="84.977599%" y2="36.1255675%" id="linearGradient-16">
            <stop stop-color="#98D6FA" offset="0%"></stop>
            <stop stop-color="#47B0F1" offset="100%"></stop>
        </linearGradient>
        <linearGradient x1="0%" y1="64.3617284%" x2="84.977599%" y2="38.1948302%" id="linearGradient-17">
            <stop stop-color="#98D6FA" offset="0%"></stop>
            <stop stop-color="#47B0F1" offset="100%"></stop>
        </linearGradient>
        <linearGradient x1="0%" y1="63.9354617%" x2="84.977599%" y2="38.5452163%" id="linearGradient-18">
            <stop stop-color="#98D6FA" offset="0%"></stop>
            <stop stop-color="#47B0F1" offset="100%"></stop>
        </linearGradient>
        <linearGradient x1="22.3559231%" y1="-8.91420874%" x2="50%" y2="77.3810542%" id="linearGradient-19">
            <stop stop-color="#98D6FA" offset="0%"></stop>
            <stop stop-color="#47B0F1" offset="100%"></stop>
        </linearGradient>
        <linearGradient x1="45.3627906%" y1="-11.4524647%" x2="50%" y2="78.5607378%" id="linearGradient-20">
            <stop stop-color="#98D6FA" offset="0%"></stop>
            <stop stop-color="#47B0F1" offset="100%"></stop>
        </linearGradient>
        <linearGradient x1="47.7464074%" y1="-11.4524647%" x2="50%" y2="78.5607378%" id="linearGradient-21">
            <stop stop-color="#98D6FA" offset="0%"></stop>
            <stop stop-color="#47B0F1" offset="100%"></stop>
        </linearGradient>
        <linearGradient x1="43.8930824%" y1="-11.4524647%" x2="50%" y2="78.5607378%" id="linearGradient-22">
            <stop stop-color="#98D6FA" offset="0%"></stop>
            <stop stop-color="#47B0F1" offset="100%"></stop>
        </linearGradient>
        <linearGradient x1="0%" y1="77.6033014%" x2="113.227535%" y2="77.6033014%" id="linearGradient-23">
            <stop stop-color="#98D6FA" offset="0%"></stop>
            <stop stop-color="#47B0F1" offset="100%"></stop>
        </linearGradient>
        <linearGradient x1="13.965733%" y1="7.49141546%" x2="87.5196979%" y2="107.502359%" id="linearGradient-24">
            <stop stop-color="#FFB859" offset="0%"></stop>
            <stop stop-color="#F97B61" offset="100%"></stop>
        </linearGradient>
        <linearGradient x1="2.07516348%" y1="87.0084871%" x2="50%" y2="30.4810963%" id="linearGradient-25">
            <stop stop-color="#98D6FA" offset="0%"></stop>
            <stop stop-color="#47B0F1" offset="100%"></stop>
        </linearGradient>
        <linearGradient x1="100%" y1="-2.96987539%" x2="0.581465918%" y2="-2.96987539%" id="linearGradient-26">
            <stop stop-color="#F97B61" offset="0%"></stop>
            <stop stop-color="#FFB859" offset="100%"></stop>
        </linearGradient>
        <linearGradient x1="100%" y1="-2.96987539%" x2="0.581465918%" y2="-2.96987539%" id="linearGradient-27">
            <stop stop-color="#F97B61" offset="0%"></stop>
            <stop stop-color="#FFB859" offset="100%"></stop>
        </linearGradient>
        <linearGradient x1="100%" y1="-2.96987539%" x2="0.581465918%" y2="-2.96987539%" id="linearGradient-28">
            <stop stop-color="#FFB859" offset="0%"></stop>
            <stop stop-color="#F97B61" offset="100%"></stop>
        </linearGradient>
        <linearGradient x1="100%" y1="-2.96987539%" x2="0.581465918%" y2="-2.96987539%" id="linearGradient-29">
            <stop stop-color="#FFB859" offset="0%"></stop>
            <stop stop-color="#F97B61" offset="100%"></stop>
        </linearGradient>
        <linearGradient x1="86.2750219%" y1="-2.80504909%" x2="-2.70574742e-12%" y2="-2.80504909%" id="linearGradient-30">
            <stop stop-color="#1D181C" offset="0%"></stop>
            <stop stop-color="#2C2422" offset="30%"></stop>
            <stop stop-color="#42352C" offset="50%"></stop>
            <stop stop-color="#57352C" offset="70%"></stop>
            <stop stop-color="#923629" offset="100%"></stop>
        </linearGradient>
        <linearGradient x1="86.2750219%" y1="-2.80504909%" x2="-2.70574742e-12%" y2="-2.80504909%" id="linearGradient-31">
            <stop stop-color="#1D181C" offset="0%"></stop>
            <stop stop-color="#2C2422" offset="30%"></stop>
            <stop stop-color="#42352C" offset="50%"></stop>
            <stop stop-color="#57352C" offset="70%"></stop>
            <stop stop-color="#923629" offset="100%"></stop>
        </linearGradient>
        <linearGradient x1="-47.8681948%" y1="87.0084871%" x2="50%" y2="30.4810963%" id="linearGradient-32">
            <stop stop-color="#98D6FA" offset="0%"></stop>
            <stop stop-color="#47B0F1" offset="100%"></stop>
        </linearGradient>
        <linearGradient x1="-37.4015886%" y1="46.9594202%" x2="89.9956806%" y2="51.2899903%" id="linearGradient-33">
            <stop stop-color="#98D6FA" offset="0%"></stop>
            <stop stop-color="#47B0F1" offset="100%"></stop>
        </linearGradient>
    </defs>
    <g id="500" stroke="none" stroke-width="1" fill="none" fill-rule="evenodd">
        <rect id="矩形" fill="#FFFFFF" opacity="0" x="0" y="0" width="1024" height="1024"></rect>
        <g id="背景" transform="translate(62.000000, 125.000000)" fill-rule="nonzero">
            <path d="M14.7968319,456.766916 C7.12382848,423.67151 -42.8231183,208.146339 98.3979081,178.512529 C239.618934,148.878718 323.047548,183.393328 385.098412,123.051676 C447.149277,62.7100235 462.623694,72.613831 513.590202,76.6047879 C564.55671,80.5957448 623.626164,37.0388532 643.474877,23.9553401 C663.32359,10.871827 842.534029,-73.3066327 888.351129,178.512529 C895.592256,287.383698 901.609849,405.496594 850.912963,450.237259 C800.216077,494.977924 851.839129,535.151398 888.351129,539.615502 C924.863128,544.079607 871.28154,620.525811 786.950659,653.901824 C730.880095,679.056083 368.190711,751.180384 150.994775,677.040997 C46.1148664,632.124956 22.4698352,489.862323 14.7968319,456.766916 Z" id="路径-58" fill="#47B0F1" opacity="0.05"></path>
            <path d="M96,204 L96.0005978,204.150149 C99.4236604,204.845285 102,207.871774 102,211.5 L102,212.5 C102,216.642136 98.6421356,220 94.5,220 L15.5,220 C11.3578644,220 8,216.642136 8,212.5 L8,211.5 C8,207.357864 11.3578644,204 15.5,204 L47,204 C50.7854517,204 53.8690987,200.995217 53.995941,197.24065 L54,197 C54,193.214548 50.9952166,190.130901 47.2406498,190.004059 L47,190 L44,190 L44.000406,189.850055 C40.5768433,189.155307 38,186.12858 38,182.5 L38,181.5 C38,177.357864 41.3578644,174 45.5,174 L124.5,174 C128.642136,174 132,177.357864 132,181.5 L132,182.5 C132,186.642136 128.642136,190 124.5,190 L93,190 C89.2145483,190 86.1309013,193.004783 86.004059,196.75935 L86,197 C86,200.785452 89.0047834,203.869099 92.7593502,203.995941 L93,204 L96,204 Z" id="形状结合" fill="url(#linearGradient-1)" opacity="0.100000001"></path>
            <path d="M796,34 L796.000598,34.1501485 C799.42366,34.845285 802,37.8717743 802,41.5 L802,42.5 C802,46.6421356 798.642136,50 794.5,50 L715.5,50 C711.357864,50 708,46.6421356 708,42.5 L708,41.5 C708,37.3578644 711.357864,34 715.5,34 L747,34 C750.785452,34 753.869099,30.9952166 753.995941,27.2406498 L754,27 C754,23.2145483 750.995217,20.1309013 747.24065,20.004059 L747,20 L744,20 L744.000406,19.8500552 C740.576843,19.1553066 738,16.1285803 738,12.5 L738,11.5 C738,7.35786438 741.357864,4 745.5,4 L824.5,4 C828.642136,4 832,7.35786438 832,11.5 L832,12.5 C832,16.6421356 828.642136,20 824.5,20 L793,20 C789.214548,20 786.130901,23.0047834 786.004059,26.7593502 L786,27 C786,30.7854517 789.004783,33.8690987 792.75935,33.995941 L793,34 L796,34 Z" id="形状结合" fill="url(#linearGradient-1)" opacity="0.100000001"></path>
            <path d="M452.516571,587 C583.621204,587 701.777821,597.788312 784.302945,615.013362 C865.063746,615.660019 930,640.030791 930,670 C930,694.229977 887.553421,714.80045 828.610822,722.132354 C815.644044,725.884939 801.204898,729.433119 785.453239,732.745641 C785.815027,734.812004 786,736.897944 786,739 C786,790.914766 673.175757,833 534,833 C409.347257,833 305.833398,799.239705 285.587359,754.894193 C118.19765,742.128701 0,710.721174 0,674 C0,625.951227 202.367293,587 452.516571,587 Z" id="形状结合" fill="url(#linearGradient-2)"></path>
            <g id="大雁" transform="translate(587.174147, 36.907158)">
                <path d="M37.4312095,64.7423818 L37.4312095,64.6452119 C32.1058219,49.6073265 14.7356607,42.5306746 0,44.7153228 C10.9264423,37.9201286 28.9638433,36.1107574 37.4343421,46.5280447 L37.4343421,46.6185133 C45.8923106,36.2916945 64.0268216,38.0139479 74.8686842,44.8057914 C60.1455538,42.7216638 42.77226,49.7882636 37.4343421,64.7356804 L37.4312095,64.7423818 Z" id="路径" fill="url(#linearGradient-3)"></path>
                <path d="M120.860322,52.2014603 L120.860322,52.1377972 C117.160744,41.7138085 105.128501,36.8184542 94.9131541,38.3229128 C102.484602,33.6151969 114.989865,32.3586891 120.860322,39.5794206 L120.860322,39.6430837 C126.730779,32.4860153 139.292428,33.67886 146.80749,38.3865759 C136.592143,36.9424296 124.566165,41.8411347 120.860322,52.2014603 L120.860322,52.2014603 Z" id="路径" fill="url(#linearGradient-4)"></path>
                <path d="M86.0679846,17.7234613 L86.0679846,17.6597983 C82.3684066,7.23580958 70.3361632,2.34045519 60.1208168,3.84491386 C67.6922649,-0.862802022 80.197528,-2.11930982 86.0679846,5.10142166 L86.0679846,5.16508473 C91.9384413,-1.9919837 104.500091,-0.79913896 112.015152,3.90857693 C101.799806,2.46443063 89.7738279,7.3631357 86.0679846,17.7234613 L86.0679846,17.7234613 Z" id="路径" fill="url(#linearGradient-4)"></path>
                <path d="M191.548904,58.1616316 L191.548904,58.1180727 C188.986453,50.8939905 180.641257,47.4963934 173.561624,48.5418079 C178.81183,45.2782383 187.479681,44.4070596 191.548904,49.4129867 L191.548904,49.4565456 C195.621259,44.4941775 204.326702,45.3217973 209.536184,48.5853668 C202.456551,47.5801606 194.111355,50.9811084 191.548904,58.1616316 Z" id="路径" fill="url(#linearGradient-5)"></path>
            </g>
        </g>
        <path d="M101,476 L101.000406,475.850055 C97.5768433,475.155307 95,472.12858 95,468.5 L95,467.5 C95,463.357864 98.3578644,460 102.5,460 L181.5,460 C181.929897,460 182.351346,460.03617 182.761471,460.105632 L316.071718,460.106195 L316.071718,502.471786 L183.383546,502.471786 C175.354872,502.471786 169.835159,503.905478 166.824406,506.772861 C162.953438,510.50046 161.017954,516.235227 161.017954,523.977162 L161.017954,578.600818 C161.017954,583.762108 163.025123,588.278238 167.03946,592.149205 C170.910427,595.733435 176.358456,597.525549 183.383546,597.525549 L253.92118,597.525549 C273.13265,597.525549 288.75989,603.547055 300.802901,615.590065 C310.408635,625.339169 315.211503,636.952073 315.211503,650.428775 L315.211503,739.245979 C315.211503,755.590065 310.336951,767.704761 300.587847,775.590065 C289.978528,784.335585 277.433725,788.708345 262.953438,788.708345 L153.576631,788.708792 C152.917174,788.898417 152.22045,789 151.5,789 L72.5,789 C68.3578644,789 65,785.642136 65,781.5 L65,780.5 C65,776.357864 68.3578644,773 72.5,773 L104,773 C107.785452,773 110.869099,769.995217 110.995941,766.24065 L111,766 C111,764.512608 110.536096,763.133567 109.745081,761.999671 L102.5,762 C98.3578644,762 95,758.642136 95,754.5 L95,753.5 C95,749.357864 98.3578644,746 102.5,746 L181.5,746 C182.282416,746 183.036848,746.119809 183.745953,746.342082 L250.695374,746.342754 C263.741969,746.342754 270.265266,738.529134 270.265266,722.901893 L270.265266,660.96641 C270.265266,646.91623 263.741969,639.891141 250.695374,639.891141 L174.996449,639.891141 C156.215087,639.891141 141.017954,633.94132 129.405051,622.041678 C120.516162,613.00942 116.071718,600.177879 116.071718,583.547055 L116.071718,516.020173 C116.071718,512.519836 116.279434,509.179736 116.694865,505.999875 L72.5,506 C68.3578644,506 65,502.642136 65,498.5 L65,497.5 C65,493.357864 68.3578644,490 72.5,490 L104,490 C107.785452,490 110.869099,486.995217 110.995941,483.24065 L111,483 C111,479.214548 107.995217,476.130901 104.24065,476.004059 L104,476 L101,476 Z" id="形状结合" fill="url(#linearGradient-6)" fill-rule="nonzero"></path>
        <path d="M490.071718,509.106195 C567.391583,509.106195 630.071718,571.78633 630.071718,649.106195 C630.071718,726.426059 567.391583,789.106195 490.071718,789.106195 C412.751853,789.106195 350.071718,726.426059 350.071718,649.106195 C350.071718,571.78633 412.751853,509.106195 490.071718,509.106195 Z M490.071718,553.106195 C437.052382,553.106195 394.071718,596.086859 394.071718,649.106195 C394.071718,702.12553 437.052382,745.106195 490.071718,745.106195 C543.091054,745.106195 586.071718,702.12553 586.071718,649.106195 C586.071718,596.086859 543.091054,553.106195 490.071718,553.106195 Z" id="椭圆形" fill="url(#linearGradient-7)" fill-rule="nonzero"></path>
        <path d="M889,757 L889.000598,757.150149 C892.42366,757.845285 895,760.871774 895,764.5 L895,765.5 C895,769.642136 891.642136,773 887.5,773 L850.046327,773.003749 C830.611308,783.219433 808.480716,789 785,789 C707.680135,789 645,726.319865 645,649 C645,571.680135 707.680135,509 785,509 C807.251731,509 828.290971,514.191291 846.972669,523.428821 C848.342935,521.936886 850.312057,521 852.5,521 L931.5,521 C935.642136,521 939,524.357864 939,528.5 L939,529.5 C939,533.642136 935.642136,537 931.5,537 L900,537 C896.214548,537 893.130901,540.004783 893.004059,543.75935 L893,544 C893,547.785452 896.004783,550.869099 899.75935,550.995941 L900,551 L903,551 L903.000598,551.150149 C906.42366,551.845285 909,554.871774 909,558.5 L909,559.5 C909,563.642136 905.642136,567 901.5,567 L898.483815,566.998321 C915.166151,590.045154 925,618.374168 925,649 C925,677.877044 916.257146,704.712085 901.274039,727.002523 L917.5,727 C921.642136,727 925,730.357864 925,734.5 L925,735.5 C925,739.642136 921.642136,743 917.5,743 L888.749052,743.00228 C885.785971,746.270605 882.670595,749.398308 879.414124,752.374185 C880.359176,754.999747 882.831251,756.89702 885.75935,756.995941 L886,757 L889,757 Z M785,553 C731.980664,553 689,595.980664 689,649 C689,702.019336 731.980664,745 785,745 C801.711874,745 817.426374,740.729735 831.111873,733.220831 C831.717078,729.686869 834.794763,727 838.5,727 L840.973331,727.00242 C865.21352,709.577258 881,681.132194 881,649 C881,614.27464 862.562669,583.85555 834.943237,566.99796 L822.5,567 C818.357864,567 815,563.642136 815,559.5 L815,558.5 C815,558.261782 815.011106,558.026158 815.032829,557.793618 C805.585896,554.682313 795.48941,553 785,553 Z" id="形状结合" fill="url(#linearGradient-8)" fill-rule="nonzero"></path>
        <g id="绿植" transform="translate(262.000000, 582.000000)" fill-rule="nonzero">
            <path d="M43.3113434,79.2247058 C15.1677931,72.1008748 4.46838056,79.9215325 11.2131058,102.686679 C13.9976306,109.625107 17.5147607,113.644204 21.7644962,114.74397 C34.2119385,125.421013 41.3942209,134.469137 43.3113434,141.888342 C46.1870272,153.01715 57.2157702,164.253872 77.9123426,153.071107 C91.7100575,145.615931 103.211507,152.00185 112.416692,172.228864 C132.806249,191.211253 163.373121,194.84053 204.11731,183.116696 C244.861498,171.392861 238.84342,152.710905 186.063075,127.070828 C172.4499,124.289196 162.186392,122.898379 155.272551,122.898379 C148.35871,122.898379 143.779933,116.161146 141.536221,102.686679 C140.077301,94.2648016 132.898561,89.1922462 120,87.4690123 C107.101439,85.7457785 100.908173,80.493331 101.420203,71.7116699 C91.2184283,61.206775 81.2547427,61.206775 71.5291458,71.7116699 C61.803549,82.2165648 52.3976148,84.7209101 43.3113434,79.2247058 Z" id="路径-61" fill="url(#linearGradient-9)" transform="translate(120.000000, 126.832024) rotate(10.000000) translate(-120.000000, -126.832024)"></path>
            <path d="M103.994918,50.1326605 L113.189584,96.2446605 L113.247398,96.162386 C119.208525,87.3930489 123.501128,79.7413923 126.125206,73.2074162 C130.023787,63.4999193 120.855867,90.6144362 113.567292,98.1374572 L121.234209,136.584768 C121.242091,136.530689 121.250689,136.47832 121.260002,136.427662 C131.800726,127.158916 138.458291,119.988802 141.232696,114.917319 C140.714216,118.518248 127.586681,134.931022 121.711623,138.980481 L128.764354,174.340619 C128.786291,174.080491 128.805115,173.909581 128.805115,173.909581 C128.805115,173.909581 138.076736,166.821987 141.232696,161.735002 C141.02983,163.855156 133.119139,173.041902 129.179537,176.426512 L134.998846,205.607432 L130.564571,205.607432 L125.289855,174.745343 C117.524043,172.747071 110.392855,166.487039 107.458351,162.948211 C113.99053,168.38421 119.736407,171.383106 124.695981,171.944899 C124.794893,172.816879 124.96604,173.596092 125.209421,174.282538 L110.360522,87.3773542 C110.347316,87.6165567 110.3229,87.8536691 110.287276,88.0886915 C101.684187,81.6114573 95.3719781,74.3885442 91.3506476,66.4199521 C92.7851656,65.9473408 97.0306037,77.6408574 110.063285,85.6477359 L103.994918,50.1326605 Z M83.6435839,117.842762 C89.5078672,124.054808 100.858786,128.427721 117.696341,130.961501 C117.639559,131.692452 117.639559,132.539773 117.696341,133.503466 C101.319803,131.58147 88.6488343,124.60341 83.6435839,117.842762 Z" id="形状结合" fill="url(#linearGradient-10)" transform="translate(112.438140, 127.870046) rotate(-45.000000) translate(-112.438140, -127.870046)"></path>
            <path d="M81.4217883,10.6291126 C55.3594542,-7.10707121 43.2652729,-2.64674897 45.1392443,24.0100793 C50.1531957,43.1048446 53.4420838,55.8696681 51.7976397,67.5736484 C50.1531957,79.2776287 55.2935707,101.395737 81.4217883,110.472185 C98.8406001,116.52315 103.732942,125.108795 96.098813,136.229119 C92.2660861,153.303218 113.392551,165.557802 159.478208,172.992872 C228.606693,184.145477 212.136114,158.516867 194.363674,130.737044 C181.505754,117.867253 179.784988,110.011827 179.784988,100.176038 C179.784988,90.3402499 189.195949,74.262851 162.155745,67.5736484 C150.280294,64.8735346 144.053915,52.997721 143.476608,31.9462076 C141.608035,21.3647032 130.272644,18.7193271 109.470434,24.0100793 C100.216718,25.7886132 90.867169,21.328291 81.4217883,10.6291126 Z" id="路径-65" fill="url(#linearGradient-11)"></path>
            <path d="M107.161092,12.0449824 L116.964758,57.4379824 L117.132553,57.2927915 C123.286113,51.8330122 127.199934,45.1967387 128.874017,37.3839709 L128.882758,37.3389824 L128.854378,37.5416444 C128.000827,43.6386487 128.075074,51.4676448 117.447882,59.6714039 L125.754758,98.1379824 L126.048991,97.978613 C133.386919,93.9162013 139.503546,86.8665438 144.398871,76.8296405 C143.878331,80.4448681 136.898888,94.8107994 126.307612,100.693771 L133.6686,134.775923 C135.819803,133.471507 141.488818,129.613817 144.398871,123.647324 C143.040903,128.072268 140.395064,133.608357 134.218507,137.319209 L145.080016,187.618938 L140.545345,185.407231 L130.859364,135.113208 C114.686975,134.298113 108.34079,128.24463 105.443131,124.750235 C111.831717,130.066737 120.126091,132.597835 130.326256,132.343529 L122.962101,94.1008074 C122.9689,94.3699985 122.980853,94.6497506 122.997958,94.9400636 C106.62142,93.0180673 91.8150086,86.5157314 86.8097582,79.7550839 C92.6740415,85.9671298 104.736775,90.181468 122.997958,92.3980984 L122.624758,92.3519824 L114.420238,49.7326563 C114.406755,49.8803815 114.38894,50.027299 114.366793,50.1734087 C103.768243,45.7886421 97.1515857,38.5082638 94.516822,28.332274 C95.949654,27.8602182 97.8586846,40.6049012 114.03047,47.7228476 L107.161092,12.0449824 Z" id="形状结合" fill="url(#linearGradient-12)" transform="translate(115.944887, 99.831960) rotate(-26.000000) translate(-115.944887, -99.831960)"></path>
            <path d="M170.243346,11.8245425 C180.305164,-2.15926397 189.312266,-0.740137719 197.264654,16.0819213 C201.120301,30.6175161 195.032132,39.8589067 214.943529,46.4662782 C228.217794,50.8711926 230.226479,60.093514 220.969587,74.1332426 C217.103208,82.9673748 219.959795,88.6140392 229.539348,91.0732359 C239.118901,93.5324326 237.966619,103.313954 226.082501,120.417799 C221.963018,129.794358 221.963018,136.059738 226.082501,139.21394 C232.261726,143.945242 244.135167,158.133182 229.539348,185.712204 C214.943529,213.291227 180.554889,191.872556 175.399118,178.905692 C170.243346,165.938827 180.554889,148.077037 175.399118,139.21394 C170.243346,130.350842 140.183766,127.299039 148.214533,100.716141 C154.898323,89.8404597 164.203104,86.6966834 154.861387,68.1779858 C145.51967,49.6592882 143.148139,57.0999817 154.861387,38.8576809 C159.975826,33.6157079 165.103145,24.6046618 170.243346,11.8245425 Z" id="路径-96" fill="url(#linearGradient-13)"></path>
            <path d="M183.939601,35.9314827 L193.134267,82.0434827 L193.192081,81.9612082 C199.153208,73.1918711 203.44581,65.5402145 206.069889,59.0062384 C209.96847,49.2987415 200.80055,76.4132584 193.511975,83.9362794 L201.178892,122.38359 C201.186774,122.329511 201.195372,122.277142 201.204685,122.226484 C211.745409,112.957738 218.402974,105.787624 221.177379,100.716141 C220.658899,104.31707 207.531364,120.729844 201.656306,124.779303 L208.709036,160.139441 C208.730974,159.879313 208.749798,159.708403 208.749798,159.708403 C208.749798,159.708403 218.021419,152.62081 221.177379,147.533825 C220.974513,149.653979 213.063822,158.840724 209.12422,162.225335 L214.943529,191.406254 L210.509254,191.406254 L205.234538,160.544165 C197.468726,158.545893 190.337538,152.285861 187.403034,148.747033 C193.935213,154.183032 199.68109,157.181928 204.640664,157.743721 C204.739576,158.615701 204.910723,159.394914 205.154104,160.08136 L190.305205,73.1761764 C190.291999,73.4153789 190.267583,73.6524913 190.231959,73.8875137 C181.62887,67.4102795 175.316661,60.1873664 171.295331,52.2187743 C172.729849,51.746163 176.975287,63.4396796 190.007968,71.4465581 L183.939601,35.9314827 Z M163.588267,103.641584 C169.45255,109.85363 180.803469,114.226543 197.641024,116.760323 C197.584242,117.491274 197.584242,118.338595 197.641024,119.302288 C181.264485,117.380292 168.593517,110.402232 163.588267,103.641584 Z" id="形状结合" fill="url(#linearGradient-10)"></path>
        </g>
        <g id="石头" transform="translate(875.000000, 758.000000)" fill-rule="nonzero">
            <path d="M42.3959886,49.5164474 C45.3020221,27.3131416 37.8366926,15.351725 20,13.6321975 C44.1424324,11.3251757 60.1235326,26.0173187 60.3823024,49.5164474 C55.3770448,49.6908524 49.3816069,49.6908524 42.3959886,49.5164474 Z" id="路径-38" fill="url(#linearGradient-14)"></path>
            <path d="M54.120901,49.6472512 C58.8339305,27.2411086 53.0371808,10.6920249 36.7306519,0 C57.5522392,6.56657635 72.5106644,16.4351231 77.3732031,49.6472512 C71.0188781,50.1175829 63.2681108,50.1175829 54.120901,49.6472512 Z" id="路径-39" fill="url(#linearGradient-15)"></path>
            <path d="M81.0677818,50 C78.9833933,28.7044584 86.627466,16.502709 104,13.3947519 C87.886355,12.9867807 69.9112687,11.9056548 57.0519275,50 C67.9497157,49.6502805 75.9550005,49.6502805 81.0677818,50 Z" id="路径-40" fill="url(#linearGradient-16)"></path>
            <path d="M31.4123189,63.9990036 C48.2570038,63.9990036 61,64.4087768 61,48.6086537 C61,32.8085305 47.3446849,20 30.5,20 C13.6553151,20 0,32.8085305 0,48.6086537 C0,64.4087768 14.567634,63.9990036 31.4123189,63.9990036 Z" id="椭圆形" fill="url(#linearGradient-17)"></path>
            <path d="M64.5683298,63.9993886 C75.0617401,63.9993886 83,64.2508403 83,54.5553102 C83,44.8597801 74.4934102,37 64,37 C53.5065898,37 45,44.8597801 45,54.5553102 C45,64.2508403 54.0749196,63.9993886 64.5683298,63.9993886 Z" id="椭圆形备份-6" fill="url(#linearGradient-18)"></path>
        </g>
        <g id="草" transform="translate(68.000000, 722.000000)" fill-rule="nonzero">
            <path d="M43.9051261,63.6286814 C42.2263645,55.9871035 37.3237759,50.6453695 29.1973603,47.6034794 C19.9172905,44.6203861 14.8329924,41.0744694 20.6399876,38.5033511 C25.5436773,38.1135528 36.0015321,34.2946145 43.9051261,57.1055335 C44.4551756,59.3160279 44.4551756,61.4904105 43.9051261,63.6286814 Z" id="路径-43" fill="url(#linearGradient-19)"></path>
            <path d="M44.3176632,64.840738 C39.4303186,46.5973461 33.8782959,33.2780512 27.6615952,24.8828532 C23.0968393,19.1458941 23.4166984,10.936736 27.6615952,9.08124849 C32.0066921,8.59804784 40.0148411,7.85069183 46.0446075,39.2915559 C46.4254351,41.4541828 48.5501098,54.1059971 46.0446075,62.27112 C45.6737545,63.3917167 45.0981064,64.2482561 44.3176632,64.840738 Z" id="路径-44" fill="url(#linearGradient-20)"></path>
            <path d="M45.4464214,60.7202723 C47.6568996,52.5569753 47.3762554,41.9057539 44.6044888,28.7666082 C40.3647937,16.0293804 33.1281163,0.361197711 46.3183012,0 C51.6696211,0.72769912 58.1314791,6.33695657 55.6898493,34.2928457 C54.2019489,45.5736056 51.6142144,52.2376908 48.8984709,60.7202723 C47.9511221,61.2491925 46.800439,61.2491925 45.4464214,60.7202723 Z" id="路径-45" fill="url(#linearGradient-21)"></path>
            <path d="M48.0284816,63.8906874 C47.1436545,40.8080705 51.3681496,24.242664 60.7019669,14.1944678 C63.222484,10.836761 72.8116393,7.69203295 72.7754396,18.2175973 C71.774369,22.7435236 69.632291,32.4058109 57.2801827,47.1476164 C53.2108627,52.468361 50.5364063,60.243448 50.5103382,62.0664177 C50.4929594,63.2817308 49.6656739,63.8898207 48.0284816,63.8906874 Z" id="路径-46" fill="url(#linearGradient-22)"></path>
            <path d="M0,66.9384739 C9.24292109,65.2157556 14.3402664,63.7533131 15.2920358,62.5511465 C16.7196899,60.7478966 29.2966732,53.0053514 37.1396284,59.5270062 C38.8469149,57.3328548 44.3223492,55.6260825 47.4558228,59.5270062 C48.8894057,53.3682731 57.8327109,49.4240184 61.722246,50.0630031 C66.1024725,49.7202118 79.03356,49.8628336 80,66.9384739 C76.4718943,67.0206137 49.8052276,67.0206137 0,66.9384739 Z" id="路径-47" fill="url(#linearGradient-23)"></path>
        </g>
        <g id="人物" transform="translate(704.000000, 280.000000)" fill-rule="nonzero">
            <path d="M83.8501095,19.4673709 C89.8705036,20.0349127 95.4461991,22.9112007 99.4291569,27.5040053 C100.668513,28.8841058 101.711558,30.430483 102.529067,32.0985043 L102.585603,32.2186872 L102.425128,31.3926994 C104.332627,31.9377058 105.150594,35.3547306 105.203516,39.5048631 L105.205205,39.6798173 C109.800585,38.4227056 113.076371,52.5165681 103.082438,52.8860761 C102.724267,53.8256493 102.331416,54.6287196 101.911533,55.2433565 C99.3861636,58.9400598 96.6279694,63.6709633 92.709652,66.5236298 L92.7441039,76.8645633 L72.3061433,77.1531609 L72.3935664,65.0089183 C70.7466715,63.6566838 69.3141586,62.0016121 68.185463,60.0826203 C66.6931521,57.812378 65.4592909,55.3973953 64.4967871,52.8834601 L64.8990273,52.8622677 C52.9754023,53.7019276 56.9766162,37.293331 62.0077252,39.8767219 C62.0001093,39.3260059 62.005118,38.7730579 62.0223234,38.219518 C62.4979851,33.649407 64.3502846,29.3364282 67.3294714,25.8621123 C71.4487659,21.1018415 77.6343026,18.7075691 83.8501095,19.4673709 Z M103.043603,34.5656872 L103.050344,34.7282068 C103.081388,35.547553 103.127041,36.3587058 103.537917,37.0961174 L103.043603,34.5656872 Z M102.585603,32.2186872 L103.043603,34.5656872 L103.038702,34.4206959 C103.018158,33.9079644 102.986201,33.3952329 102.857232,32.8985042 L102.767524,32.6025154 L102.585603,32.2186872 Z" id="形状结合" fill="#EBB0B0"></path>
            <path d="M105.372437,41.7011524 C112.40616,34.8860643 114.964289,12.1189462 101.651605,6.3616798 C100.163298,4.54210781 96.9983858,4.0593861 92.7441039,3.99711236 C89.656582,3.91705987 89.3088535,5.09863048 87.7308056,4.82049525 C86.1527577,4.54236003 83.8293473,0.797745764 77.8250973,0.0567682541 C74.5761752,-0.406790453 64.7658284,2.03914301 62.6308224,4.82049525 C58.4458626,7.96518397 53.0060003,15.6182348 51.7897309,25.2170784 C50.5378978,34.8332054 55.4839143,39.607104 59.6044226,46.9116258 C63.4103028,44.5011206 64.3385663,38.9384161 67.0305303,35.3226582 C70.7624668,30.9346877 75.4660715,27.4748233 80.7688296,25.2170784 C92.1762865,23.542447 97.6407992,23.542447 102.777131,33.8737036 C102.777131,33.8737036 103.642233,36.4828532 105.372437,41.7011524 Z" id="路径" fill="#131322"></path>
            <path d="M72.772166,68.5369519 C76.0070361,70.5541322 79.8099059,73.9482694 83.4542671,74.0190478 C86.210466,74.1783546 89.9711401,70.200147 92.3747952,68.5369519 C103.433943,69.0590411 123.483791,74.724881 140.459422,87.7431501 C140.459422,138.079803 135.460289,147.049895 128.974703,175.382837 C128.796839,176.622744 110.435128,208.88173 106.918639,210.695426 C93.1445846,217.746423 82.4952816,216.427521 67.4060913,214.639152 C64.4650279,214.276413 47.6817856,199.533718 45.475988,197.348435 C43.7097515,195.578976 34.9160892,176.214459 32.9180841,170.879539 C30.9200791,165.544619 27.8775596,155.904113 27.645791,150.126827 C27.0304054,134.759072 25.9985266,108.720994 25.7836503,89.4399987 C38.4406915,70.823797 59.0738435,72.3767777 72.772166,68.5369519 Z" id="路径" fill="url(#linearGradient-24)"></path>
            <rect id="矩形" fill="url(#linearGradient-25)" x="64.7297394" y="79.9767486" width="33.5206102" height="49.398794" rx="4"></rect>
            <path d="M54.4924957,117.793188 C59.802587,113.240181 65.01227,110.198934 70.1215445,108.669446 C74.3472564,108.649913 73.4807389,110.010808 71.3105424,110.646053 C73.434375,111.222079 83.2289853,113.276867 77.7854564,127.015449 C73.5583591,130.80825 63.3735604,135.8159 54.9110057,131.907817 C50.4211124,128.975057 50.2816091,124.27018 54.4924957,117.793188 Z" id="路径-109" fill="#EFBA9E" transform="translate(65.423422, 120.997867) rotate(-31.000000) translate(-65.423422, -120.997867)"></path>
            <path d="M22.3377566,89.9151736 C30.1375548,80.4379395 37.6751114,79.5451821 44.9504262,87.2369013 C53.2086745,95.1861773 49.7576095,146.484396 44.9504262,178.184137 C33.7364675,191.912385 19.7146323,183.629638 15.9501789,172.283714 C7.78080319,137.316534 9.90999575,109.860354 22.3377566,89.9151736 Z" id="路径-2" fill="url(#linearGradient-26)"></path>
            <path d="M24.5301179,166.822711 C27.8327194,151.57738 37.4141955,137.679474 53.2745463,125.128991 C59.0075136,122.987911 65.5093647,125.03369 67.0465216,132.854209 C68.6782843,137.60511 60.3120714,175.582067 40.9068388,185.342399 C26.9376716,188.202395 21.4787646,182.029166 24.5301179,166.822711 Z" id="路径-3" fill="url(#linearGradient-27)"></path>
            <path d="M88.1860548,117.793188 C93.4961462,113.240181 98.7058292,110.198934 103.815104,108.669446 C108.040816,108.649913 107.174298,110.010808 105.004102,110.646053 C107.127934,111.222079 116.922544,113.276867 111.479016,127.015449 C107.251918,130.80825 97.0671196,135.8159 88.6045649,131.907817 C84.1146716,128.975057 83.9751683,124.27018 88.1860548,117.793188 Z" id="路径-109" fill="#EFBA9E" transform="translate(99.116982, 120.997867) scale(-1, 1) rotate(-31.000000) translate(-99.116982, -120.997867)"></path>
            <path d="M125.855619,89.9151736 C133.655417,80.4379395 141.192974,79.5451821 148.468289,87.2369013 C156.726537,95.1861773 153.275472,146.484396 148.468289,178.184137 C137.25433,191.912385 123.232495,183.629638 119.468041,172.283714 C111.298666,137.316534 113.427858,109.860354 125.855619,89.9151736 Z" id="路径-2" fill="url(#linearGradient-28)" transform="translate(134.029133, 133.705223) scale(-1, 1) translate(-134.029133, -133.705223)"></path>
            <path d="M98.1152524,166.822711 C101.417854,151.57738 110.99933,137.679474 126.859681,125.128991 C132.592648,122.987911 139.094499,125.03369 140.631656,132.854209 C142.263419,137.60511 133.897206,175.582067 114.491973,185.342399 C100.522806,188.202395 95.0638991,182.029166 98.1152524,166.822711 Z" id="路径-3" fill="url(#linearGradient-29)" transform="translate(119.062769, 155.177058) scale(-1, 1) translate(-119.062769, -155.177058)"></path>
            <path d="M12.6020793,234.466738 C2.80606984,200.358047 6.38912819,183.567261 23.3512543,184.09438 L67.3761033,207.585014 C77.6942939,214.413587 87.3423587,214.413587 96.3202977,207.585014 C109.7886,196.646947 124.416495,188.816736 140.203983,184.09438 C161.073822,185.951343 161.66172,204.932701 141.967676,241.038455 C120.465847,240.316236 79.0986556,240.316236 17.8661019,241.038455 C15.5707867,240.045454 13.8161125,237.854881 12.6020793,234.466738 Z" id="路径-4" fill="url(#linearGradient-30)"></path>
            <path d="M32.85856,331.674603 C32.9841856,336.442757 31.916368,338.826834 33.4709849,341.140791 C35.0256017,343.454748 41.4844957,345.581541 44.6305655,344.016649 C48.6189848,342.032763 55.2813322,338.167724 57.1783298,337.120255 C59.0753275,336.072785 71.9362013,328.539425 72.2578902,323.790008 C72.579579,319.040592 65.1286371,317.630164 56.3426964,320.9258 C47.5567557,324.221436 35.3239625,330.015098 35.3239625,330.015098 L32.85856,331.674603 Z" id="路径" fill="#333333" transform="translate(52.442360, 331.842540) scale(-1, 1) rotate(94.000000) translate(-52.442360, -331.842540)"></path>
            <path d="M88.4322033,331.674603 C88.5578289,336.442757 87.4900113,338.826834 89.0446281,341.140791 C90.599245,343.454748 97.0581389,345.581541 100.204209,344.016649 C104.192628,342.032763 110.854975,338.167724 112.751973,337.120255 C114.648971,336.072785 127.509845,328.539425 127.831533,323.790008 C128.153222,319.040592 120.70228,317.630164 111.91634,320.9258 C103.130399,324.221436 90.8976058,330.015098 90.8976058,330.015098 L88.4322033,331.674603 Z" id="路径备份-2" fill="#333333" transform="translate(108.016003, 331.842540) rotate(94.000000) translate(-108.016003, -331.842540)"></path>
            <path d="M0.70342918,211.678279 C0.70342918,211.678279 -4.73862354,183.828286 14.6508608,177.576442 C34.0403452,171.324598 42.1302168,183.908561 48.1684096,194.627361 C50.0662199,204.868245 56.4691705,243.317881 67.3772613,309.976269 C60.5244373,316.350371 51.6704277,318.629914 40.8152324,316.8149 C36.3925173,302.179605 0.70342918,211.678279 0.70342918,211.678279 Z" id="路径-5" fill="url(#linearGradient-31)"></path>
            <path d="M93.3261679,211.678279 C93.3261679,211.678279 87.8841152,183.828286 107.2736,177.576442 C126.663084,171.324598 134.752956,183.908561 140.791148,194.627361 C142.688959,204.868245 149.091909,243.317881 160,309.976269 C153.147176,316.350371 144.293166,318.629914 133.437971,316.8149 C129.015256,302.179605 93.3261679,211.678279 93.3261679,211.678279 Z" id="路径-5备份" fill="url(#linearGradient-31)" transform="translate(126.311369, 246.663936) scale(-1, 1) translate(-126.311369, -246.663936)"></path>
        </g>
        <polygon id="飞机" fill="url(#linearGradient-32)" fill-rule="nonzero" points="615.599437 330.501722 630.134989 336.73868 637.207753 290.043735 587.753208 318.8552 600.729637 324.92712 632.084248 296.667231 606.910978 327.797194 606.576787 341.043735"></polygon>
        <path d="M345.439606,444.339139 C360.086746,418.50166 379.548572,408.188749 403.825084,413.400407 C419.896373,420.574796 418.835386,429.671928 418.620774,434.187078 C415.628756,439.772944 411.01924,446.067078 400.02512,439.618644 C394.313799,433.152344 398.017956,415.320454 406.24762,406.958941 C408.728912,404.413412 426.483539,379.966282 469.255384,403.441989 C481.280998,410.172426 526.437694,470.387663 581.874837,427.201385 C589.667064,420.844704 596.855321,412.924906 603.439606,403.441989" id="路径-25" stroke="url(#linearGradient-33)" stroke-dasharray="2" fill-rule="nonzero" transform="translate(474.439606, 418.839139) scale(-1, -1) rotate(-15.000000) translate(-474.439606, -418.839139)"></path>
    </g>
</svg>