<svg width="1024px" height="1024px" viewBox="0 0 1024 1024" version="1.1" xmlns="http://www.w3.org/2000/svg" xmlns:xlink="http://www.w3.org/1999/xlink">
    <title>加载失败</title>
    <defs>
        <linearGradient x1="-13.5823507%" y1="50%" x2="50%" y2="47.2031971%" id="linearGradient-1">
            <stop stop-color="#98D6FA" offset="0%"></stop>
            <stop stop-color="#47B0F1" offset="100%"></stop>
        </linearGradient>
        <linearGradient x1="-9.33772794e-14%" y1="-3.10559006%" x2="100%" y2="-3.10559006%" id="linearGradient-2">
            <stop stop-color="#FFF5DE" offset="0%"></stop>
            <stop stop-color="#FBD2AC" offset="100%"></stop>
        </linearGradient>
        <linearGradient x1="-13.5823507%" y1="50%" x2="50%" y2="47.6284444%" id="linearGradient-3">
            <stop stop-color="#98D6FA" offset="0%"></stop>
            <stop stop-color="#47B0F1" offset="100%"></stop>
        </linearGradient>
        <linearGradient x1="-13.5823507%" y1="50%" x2="50%" y2="47.629463%" id="linearGradient-4">
            <stop stop-color="#98D6FA" offset="0%"></stop>
            <stop stop-color="#47B0F1" offset="100%"></stop>
        </linearGradient>
        <linearGradient x1="-13.5823507%" y1="50%" x2="50%" y2="47.6298828%" id="linearGradient-5">
            <stop stop-color="#98D6FA" offset="0%"></stop>
            <stop stop-color="#47B0F1" offset="100%"></stop>
        </linearGradient>
        <linearGradient x1="-13.5823507%" y1="50%" x2="50%" y2="43.4230204%" id="linearGradient-6">
            <stop stop-color="#98D6FA" offset="0%"></stop>
            <stop stop-color="#47B0F1" offset="100%"></stop>
        </linearGradient>
        <linearGradient x1="43.1398925%" y1="-6.4516129%" x2="60.3365636%" y2="0%" id="linearGradient-7">
            <stop stop-color="#AFDEF9" offset="3.15726754%"></stop>
            <stop stop-color="#7CC9F9" offset="100%"></stop>
        </linearGradient>
        <linearGradient x1="5.92025809%" y1="60.8571499%" x2="59.966368%" y2="37.0542203%" id="linearGradient-8">
            <stop stop-color="#98D6FA" offset="0%"></stop>
            <stop stop-color="#47B0F1" offset="100%"></stop>
        </linearGradient>
        <linearGradient x1="44.4926371%" y1="-6.4516129%" x2="58.2982966%" y2="0%" id="linearGradient-9">
            <stop stop-color="#AFDEF9" offset="3.15726754%"></stop>
            <stop stop-color="#7CC9F9" offset="100%"></stop>
        </linearGradient>
        <linearGradient x1="28.4038852%" y1="87.0084871%" x2="50%" y2="30.4810963%" id="linearGradient-10">
            <stop stop-color="#98D6FA" offset="0%"></stop>
            <stop stop-color="#47B0F1" offset="100%"></stop>
        </linearGradient>
        <linearGradient x1="80.1766865%" y1="78.1244605%" x2="40.1612594%" y2="1.20356745%" id="linearGradient-11">
            <stop stop-color="#98D6FA" offset="0%"></stop>
            <stop stop-color="#47B0F1" offset="100%"></stop>
        </linearGradient>
        <linearGradient x1="16.9636606%" y1="77.6033014%" x2="73.1106367%" y2="27.3104148%" id="linearGradient-12">
            <stop stop-color="#98D6FA" offset="0%"></stop>
            <stop stop-color="#47B0F1" offset="100%"></stop>
        </linearGradient>
        <linearGradient x1="0%" y1="66.879116%" x2="84.977599%" y2="36.1255675%" id="linearGradient-13">
            <stop stop-color="#98D6FA" offset="0%"></stop>
            <stop stop-color="#47B0F1" offset="100%"></stop>
        </linearGradient>
        <linearGradient x1="0%" y1="64.3617284%" x2="84.977599%" y2="38.1948302%" id="linearGradient-14">
            <stop stop-color="#98D6FA" offset="0%"></stop>
            <stop stop-color="#47B0F1" offset="100%"></stop>
        </linearGradient>
        <linearGradient x1="0%" y1="63.9354617%" x2="84.977599%" y2="38.5452163%" id="linearGradient-15">
            <stop stop-color="#98D6FA" offset="0%"></stop>
            <stop stop-color="#47B0F1" offset="100%"></stop>
        </linearGradient>
        <linearGradient x1="-30.5876075%" y1="23.564298%" x2="76.519308%" y2="87.0084871%" id="linearGradient-16">
            <stop stop-color="#98D6FA" offset="0%"></stop>
            <stop stop-color="#47B0F1" offset="100%"></stop>
        </linearGradient>
        <linearGradient x1="-13.4470553%" y1="-49.774715%" x2="230.073782%" y2="238.766162%" id="linearGradient-17">
            <stop stop-color="#98D6FA" offset="0%"></stop>
            <stop stop-color="#47B0F1" offset="100%"></stop>
        </linearGradient>
        <linearGradient x1="-40.5074008%" y1="39.2946331%" x2="79.7836567%" y2="64.986908%" id="linearGradient-18">
            <stop stop-color="#98D6FA" offset="0%"></stop>
            <stop stop-color="#47B0F1" offset="100%"></stop>
        </linearGradient>
        <linearGradient x1="-2.84049539%" y1="23.564298%" x2="50%" y2="65.6787709%" id="linearGradient-19">
            <stop stop-color="#98D6FA" offset="0%"></stop>
            <stop stop-color="#47B0F1" offset="100%"></stop>
        </linearGradient>
        <linearGradient x1="-5.20908049%" y1="23.564298%" x2="68.1678877%" y2="87.0084871%" id="linearGradient-20">
            <stop stop-color="#98D6FA" offset="0%"></stop>
            <stop stop-color="#47B0F1" offset="100%"></stop>
        </linearGradient>
        <linearGradient x1="-39.3795937%" y1="23.564298%" x2="79.4125244%" y2="87.0084871%" id="linearGradient-21">
            <stop stop-color="#98D6FA" offset="0%"></stop>
            <stop stop-color="#47B0F1" offset="100%"></stop>
        </linearGradient>
        <linearGradient x1="37.9528734%" y1="0%" x2="50%" y2="82.3154842%" id="linearGradient-22">
            <stop stop-color="#98D6FA" offset="0%"></stop>
            <stop stop-color="#47B0F1" offset="100%"></stop>
        </linearGradient>
        <linearGradient x1="60.5971644%" y1="-1.77635684e-13%" x2="50%" y2="84.2998116%" id="linearGradient-23">
            <stop stop-color="#98D6FA" offset="0%"></stop>
            <stop stop-color="#47B0F1" offset="100%"></stop>
        </linearGradient>
        <linearGradient x1="0%" y1="-11.7647059%" x2="100%" y2="-11.7647059%" id="linearGradient-24">
            <stop stop-color="#F5DDA7" offset="0%"></stop>
            <stop stop-color="#FA9A41" offset="100%"></stop>
        </linearGradient>
        <linearGradient x1="100%" y1="-2.96987539%" x2="0.581465918%" y2="-2.96987539%" id="linearGradient-25">
            <stop stop-color="#FFB859" offset="0%"></stop>
            <stop stop-color="#F97B61" offset="100%"></stop>
        </linearGradient>
        <linearGradient x1="86.2750219%" y1="-2.80504909%" x2="-2.70574742e-12%" y2="-2.80504909%" id="linearGradient-26">
            <stop stop-color="#1D181C" offset="0%"></stop>
            <stop stop-color="#2C2422" offset="30%"></stop>
            <stop stop-color="#42352C" offset="50%"></stop>
            <stop stop-color="#57352C" offset="70%"></stop>
            <stop stop-color="#923629" offset="100%"></stop>
        </linearGradient>
        <linearGradient x1="-2.70339306e-12%" y1="-2.80504909%" x2="86.2750219%" y2="-2.80504909%" id="linearGradient-27">
            <stop stop-color="#923629" offset="0%"></stop>
            <stop stop-color="#57352C" offset="30%"></stop>
            <stop stop-color="#42352C" offset="50%"></stop>
            <stop stop-color="#2C2422" offset="70%"></stop>
            <stop stop-color="#1D181C" offset="100%"></stop>
        </linearGradient>
        <linearGradient x1="100%" y1="-2.96987539%" x2="0.581465918%" y2="-2.96987539%" id="linearGradient-28">
            <stop stop-color="#FFB859" offset="0%"></stop>
            <stop stop-color="#F97B61" offset="100%"></stop>
        </linearGradient>
        <linearGradient x1="59.807092%" y1="-2.96987539%" x2="33.3141785%" y2="4.64653809%" id="linearGradient-29">
            <stop stop-color="#F97B61" offset="0%"></stop>
            <stop stop-color="#FFB859" offset="100%"></stop>
        </linearGradient>
    </defs>
    <g id="加载失败" stroke="none" stroke-width="1" fill="none" fill-rule="evenodd">
        <rect id="矩形" fill="#FFFFFF" opacity="0" x="0" y="0" width="1024" height="1024"></rect>
        <g id="背景" transform="translate(-10.925399, 125.000000)" fill-rule="nonzero">
            <path d="M87.7222308,456.766916 C80.0492274,423.67151 30.1022806,208.146339 171.323307,178.512529 C312.544333,148.878718 395.972947,183.393328 458.023811,123.051676 C520.074675,62.7100235 535.549093,72.613831 586.515601,76.6047879 C637.482109,80.5957448 696.551563,37.0388532 716.400276,23.9553401 C736.248989,10.871827 915.459428,-73.3066327 961.276528,178.512529 C968.517655,287.383698 974.535248,405.496594 923.838362,450.237259 C873.141476,494.977924 924.764528,535.151398 961.276528,539.615502 C997.788527,544.079607 944.206939,620.525811 859.876058,653.901824 C803.805493,679.056083 441.11611,751.180384 223.920174,677.040997 C119.040265,632.124956 95.3952341,489.862323 87.7222308,456.766916 Z" id="路径-58" fill="#47B0F1" opacity="0.05"></path>
            <path d="M168.925399,204 L168.925997,204.150149 C172.349059,204.845285 174.925399,207.871774 174.925399,211.5 L174.925399,212.5 C174.925399,216.642136 171.567535,220 167.425399,220 L88.4253989,220 C84.2832633,220 80.9253989,216.642136 80.9253989,212.5 L80.9253989,211.5 C80.9253989,207.357864 84.2832633,204 88.4253989,204 L119.925399,204 C123.710851,204 126.794498,200.995217 126.92134,197.24065 L126.925399,197 C126.925399,193.214548 123.920616,190.130901 120.166049,190.004059 L119.925399,190 L116.925399,190 L116.925805,189.850055 C113.502242,189.155307 110.925399,186.12858 110.925399,182.5 L110.925399,181.5 C110.925399,177.357864 114.283263,174 118.425399,174 L197.425399,174 C201.567535,174 204.925399,177.357864 204.925399,181.5 L204.925399,182.5 C204.925399,186.642136 201.567535,190 197.425399,190 L165.925399,190 C162.139947,190 159.0563,193.004783 158.929458,196.75935 L158.925399,197 C158.925399,200.785452 161.930182,203.869099 165.684749,203.995941 L165.925399,204 L168.925399,204 Z" id="形状结合" fill="url(#linearGradient-1)" opacity="0.100000001"></path>
            <path d="M868.925399,34 L868.925997,34.1501485 C872.349059,34.845285 874.925399,37.8717743 874.925399,41.5 L874.925399,42.5 C874.925399,46.6421356 871.567535,50 867.425399,50 L788.425399,50 C784.283263,50 780.925399,46.6421356 780.925399,42.5 L780.925399,41.5 C780.925399,37.3578644 784.283263,34 788.425399,34 L819.925399,34 C823.710851,34 826.794498,30.9952166 826.92134,27.2406498 L826.925399,27 C826.925399,23.2145483 823.920616,20.1309013 820.166049,20.004059 L819.925399,20 L816.925399,20 L816.925805,19.8500552 C813.502242,19.1553066 810.925399,16.1285803 810.925399,12.5 L810.925399,11.5 C810.925399,7.35786438 814.283263,4 818.425399,4 L897.425399,4 C901.567535,4 904.925399,7.35786438 904.925399,11.5 L904.925399,12.5 C904.925399,16.6421356 901.567535,20 897.425399,20 L865.925399,20 C862.139947,20 859.0563,23.0047834 858.929458,26.7593502 L858.925399,27 C858.925399,30.7854517 861.930182,33.8690987 865.684749,33.995941 L865.925399,34 L868.925399,34 Z" id="形状结合" fill="url(#linearGradient-1)" opacity="0.100000001"></path>
            <path d="M525.44197,587 C656.546603,587 774.70322,597.788312 857.228344,615.013362 C937.989145,615.660019 1002.9254,640.030791 1002.9254,670 C1002.9254,694.229977 960.47882,714.80045 901.536221,722.132354 C888.569443,725.884939 874.130297,729.433119 858.378638,732.745641 C858.740426,734.812004 858.925399,736.897944 858.925399,739 C858.925399,790.914766 746.101156,833 606.925399,833 C482.272656,833 378.758797,799.239705 358.512758,754.894193 C191.123049,742.128701 72.9253989,710.721174 72.9253989,674 C72.9253989,625.951227 275.292692,587 525.44197,587 Z" id="形状结合" fill="url(#linearGradient-2)"></path>
            <g id="大雁" transform="translate(660.099546, 36.907158)">
                <path d="M37.4312095,64.7423818 L37.4312095,64.6452119 C32.1058219,49.6073265 14.7356607,42.5306746 0,44.7153228 C10.9264423,37.9201286 28.9638433,36.1107574 37.4343421,46.5280447 L37.4343421,46.6185133 C45.8923106,36.2916945 64.0268216,38.0139479 74.8686842,44.8057914 C60.1455538,42.7216638 42.77226,49.7882636 37.4343421,64.7356804 L37.4312095,64.7423818 Z" id="路径" fill="url(#linearGradient-3)"></path>
                <path d="M120.860322,52.2014603 L120.860322,52.1377972 C117.160744,41.7138085 105.128501,36.8184542 94.9131541,38.3229128 C102.484602,33.6151969 114.989865,32.3586891 120.860322,39.5794206 L120.860322,39.6430837 C126.730779,32.4860153 139.292428,33.67886 146.80749,38.3865759 C136.592143,36.9424296 124.566165,41.8411347 120.860322,52.2014603 L120.860322,52.2014603 Z" id="路径" fill="url(#linearGradient-4)"></path>
                <path d="M86.0679846,17.7234613 L86.0679846,17.6597983 C82.3684066,7.23580958 70.3361632,2.34045519 60.1208168,3.84491386 C67.6922649,-0.862802022 80.197528,-2.11930982 86.0679846,5.10142166 L86.0679846,5.16508473 C91.9384413,-1.9919837 104.500091,-0.79913896 112.015152,3.90857693 C101.799806,2.46443063 89.7738279,7.3631357 86.0679846,17.7234613 L86.0679846,17.7234613 Z" id="路径" fill="url(#linearGradient-4)"></path>
                <path d="M191.548904,58.1616316 L191.548904,58.1180727 C188.986453,50.8939905 180.641257,47.4963934 173.561624,48.5418079 C178.81183,45.2782383 187.479681,44.4070596 191.548904,49.4129867 L191.548904,49.4565456 C195.621259,44.4941775 204.326702,45.3217973 209.536184,48.5853668 C202.456551,47.5801606 194.111355,50.9811084 191.548904,58.1616316 Z" id="路径" fill="url(#linearGradient-5)"></path>
            </g>
            <g id="绿植" transform="translate(0.000000, 469.157511)">
                <path d="M53.4579208,97.7847305 C18.7211621,88.9919949 5.51519106,98.6448032 13.8400076,126.743156 C17.2768648,135.307054 21.6179554,140.267707 26.8632792,141.625117 C42.2267921,154.803478 51.0916726,165.971312 53.4579208,175.128619 C57.0072929,188.86458 70.6197469,202.733737 96.1649191,188.931178 C113.195034,179.729472 127.390936,187.611424 138.752626,212.577035 C163.918858,236.006441 201.646652,240.485951 251.936008,226.015566 C302.225365,211.545181 294.797427,188.486591 229.652195,156.839796 C212.849853,153.406508 200.181906,151.689865 191.648355,151.689865 C183.114804,151.689865 177.463354,143.374295 174.694005,126.743156 C172.893304,116.34828 164.032796,110.087373 148.11248,107.960436 C132.192164,105.833499 124.547998,99.3505574 125.179981,88.5116107 C112.58823,75.545727 100.290346,75.545727 88.2863266,88.5116107 C76.2823076,101.477494 64.672839,104.568534 53.4579208,97.7847305 Z" id="路径-61" fill="url(#linearGradient-6)" transform="translate(148.112480, 156.545047) rotate(10.000000) translate(-148.112480, -156.545047)"></path>
                <path d="M128.357876,61.8772723 L139.708518,118.792492 C147.102266,107.926046 152.423641,98.4478044 155.672643,90.3577665 C160.484426,78.3763885 149.169419,111.841061 140.173455,121.127486 L149.63639,168.578733 C149.645965,168.513344 149.656389,168.449987 149.667663,168.388661 C162.67777,156.94852 170.895007,148.098659 174.319374,141.839075 C173.679437,146.283538 157.476925,166.540868 150.225374,171.539333 L158.930067,215.183483 C158.957143,214.862431 158.980375,214.651495 158.980375,214.651495 C158.980375,214.651495 170.424065,205.903486 174.319374,199.624769 C174.068987,202.241567 164.305398,213.580138 159.442775,217.757845 L166.625116,253.775222 L161.152021,253.775222 L154.642076,215.683175 C145.056775,213.216902 136.254724,205.490142 132.63269,201.122197 C140.695168,207.831691 147.787135,211.53314 153.908592,212.226545 C154.031116,213.306678 154.243439,214.271485 154.545563,215.120968 L136.214888,107.844899 C136.198618,108.140956 136.168439,108.434419 136.12435,108.725288 C125.50581,100.730628 117.714835,91.8155981 112.751425,81.9801986 C114.522037,81.3968589 119.762198,95.8303018 135.848668,105.71297 L128.357876,61.8772723 Z M103.238822,145.449865 C110.476935,153.117211 124.487041,158.514569 145.269141,161.641939 C145.199057,162.54413 145.199057,163.589954 145.269141,164.779412 C125.05606,162.407149 109.416656,153.794333 103.238822,145.449865 Z" id="形状结合" fill="url(#linearGradient-7)" transform="translate(138.779098, 157.826247) rotate(-45.000000) translate(-138.779098, -157.826247)"></path>
                <path d="M100.496525,13.1192019 C68.3285506,-8.77204952 53.4010573,-3.26680461 55.7140452,29.6349366 C61.9026183,53.2030454 65.9619965,68.9582926 63.9323074,83.4041721 C61.9026183,97.8500517 68.2472324,125.149784 100.496525,136.352578 C121.996053,143.821106 128.034527,154.418116 118.611946,168.143606 C113.881324,189.217665 139.9571,204.343139 196.839274,213.520027 C282.162536,227.285361 261.833383,195.652719 239.897382,161.364899 C224.027229,145.480093 221.903337,135.784371 221.903337,123.644346 C221.903337,111.504321 233.51901,91.6604587 200.14408,83.4041721 C185.486559,80.0715009 177.801522,65.4135325 177.088969,39.4302669 C174.782644,26.3698265 160.791703,23.1047164 135.116145,29.6349366 C123.694555,31.8301289 112.154681,26.324884 100.496525,13.1192019 Z" id="路径-65" fill="url(#linearGradient-8)"></path>
                <path d="M132.265793,14.8667685 L144.366738,70.8957685 L144.50287,70.7771673 C152.074817,64.0828933 156.911496,55.9518327 159.012906,46.3839853 L159.077738,46.0747685 L159.072047,46.1190409 C157.984672,53.6751711 158.206027,63.4270148 144.96281,73.6504051 L155.214738,121.128769 L155.507784,120.971226 C164.596231,115.963306 172.1694,107.249088 178.227291,94.8285717 C177.584791,99.2908322 168.96993,117.022913 155.89698,124.283812 L164.982203,166.350593 C167.636591,164.741196 174.635034,159.979484 178.227291,152.614266 C176.551091,158.07617 173.285119,164.909693 165.6606,169.489893 L179.068008,231.572551 L173.470997,228.842707 L161.516396,166.766296 C141.554906,165.760351 133.721891,158.288622 130.145364,153.975556 C138.030824,160.537738 148.268673,163.661789 160.858911,163.34771 L151.768386,116.140769 C151.776756,116.474589 151.791551,116.821578 151.812772,117.181736 C131.599691,114.809472 113.324572,106.78383 107.146738,98.4393607 C114.384851,106.106707 129.273529,111.308341 151.812772,114.044263 L151.353738,113.987769 L141.225572,61.3832515 C141.208927,61.565688 141.186929,61.7471264 141.159578,61.9275666 C128.078098,56.5155778 119.911352,47.5296205 116.659341,34.9696948 C118.427873,34.3870402 120.784183,50.1179685 140.745474,58.903355 L132.265793,14.8667685 Z" id="形状结合" fill="url(#linearGradient-9)" transform="translate(143.107373, 123.219660) rotate(-26.000000) translate(-143.107373, -123.219660)"></path>
                <path d="M210.126368,14.594686 C222.545375,-2.66511618 233.662578,-0.913530277 243.477977,19.8494437 C248.236888,37.7903021 240.72244,49.1966794 265.298493,57.3519642 C281.682529,62.7888208 284.161791,74.1716616 272.736279,91.5004868 C267.964121,102.404197 271.489923,109.373709 283.313684,112.409024 C295.137446,115.444338 293.715218,127.517382 279.046999,148.628157 C273.962442,160.201369 273.962442,167.934544 279.046999,171.827682 C286.673836,177.66739 301.328876,195.179148 283.313684,229.219126 C265.298493,263.259105 222.853604,236.822667 216.489986,220.818047 C210.126368,204.813427 222.853604,182.767143 216.489986,171.827682 C210.126368,160.888221 173.02471,157.12147 182.93685,124.310978 C191.186456,110.887444 202.671075,107.007173 191.140868,84.150088 C179.610661,61.2930028 176.683549,70.4768325 191.140868,47.9608957 C197.453469,41.4908822 203.781969,30.3688123 210.126368,14.594686 Z" id="路径-96" fill="url(#linearGradient-10)"></path>
                <path d="M227.031254,44.3491751 L238.381895,101.264395 C245.775644,90.397949 251.097019,80.9197072 254.34602,72.8296692 C259.157803,60.8482913 247.842797,94.3129634 238.846832,103.599388 L248.309767,151.050636 C248.319342,150.985247 248.329766,150.92189 248.34104,150.860564 C261.351147,139.420423 269.568384,130.570561 272.992752,124.310978 C272.352814,128.755441 256.150302,149.012771 248.898751,154.011236 L257.603444,197.655386 C257.63052,197.334334 257.653752,197.123397 257.653752,197.123397 C257.653752,197.123397 269.097442,188.375389 272.992752,182.096672 C272.742365,184.713469 262.978776,196.05204 258.116152,200.229748 L265.298493,236.247125 L259.825398,236.247125 L253.315454,198.155078 C243.730152,195.688804 234.928101,187.962045 231.306067,183.594099 C239.368545,190.303594 246.460512,194.005043 252.581969,194.698448 C252.704493,195.778581 252.916816,196.743388 253.21894,197.592871 L234.888265,90.3168021 C234.871996,90.6128587 234.841816,90.9063217 234.797727,91.1971908 C224.179187,83.2025307 216.388212,74.2875009 211.424802,64.4521014 C213.195414,63.8687616 218.435575,78.3022046 234.522045,88.1848725 L227.031254,44.3491751 Z M201.912199,127.921767 C209.150312,135.589113 223.160419,140.986472 243.942519,144.113842 C243.872435,145.016033 243.872435,146.061857 243.942519,147.251315 C223.729438,144.879052 208.090033,136.266236 201.912199,127.921767 Z" id="形状结合" fill="url(#linearGradient-7)"></path>
            </g>
            <g id="石头" transform="translate(906.925399, 613.000000)">
                <path d="M42.3959886,49.5164474 C45.3020221,27.3131416 37.8366926,15.351725 20,13.6321975 C44.1424324,11.3251757 60.1235326,26.0173187 60.3823024,49.5164474 C55.3770448,49.6908524 49.3816069,49.6908524 42.3959886,49.5164474 Z" id="路径-38" fill="url(#linearGradient-11)"></path>
                <path d="M54.120901,49.6472512 C58.8339305,27.2411086 53.0371808,10.6920249 36.7306519,0 C57.5522392,6.56657635 72.5106644,16.4351231 77.3732031,49.6472512 C71.0188781,50.1175829 63.2681108,50.1175829 54.120901,49.6472512 Z" id="路径-39" fill="url(#linearGradient-12)"></path>
                <path d="M81.0677818,50 C78.9833933,28.7044584 86.627466,16.502709 104,13.3947519 C87.886355,12.9867807 69.9112687,11.9056548 57.0519275,50 C67.9497157,49.6502805 75.9550005,49.6502805 81.0677818,50 Z" id="路径-40" fill="url(#linearGradient-13)"></path>
                <path d="M31.4123189,63.9990036 C48.2570038,63.9990036 61,64.4087768 61,48.6086537 C61,32.8085305 47.3446849,20 30.5,20 C13.6553151,20 0,32.8085305 0,48.6086537 C0,64.4087768 14.567634,63.9990036 31.4123189,63.9990036 Z" id="椭圆形" fill="url(#linearGradient-14)"></path>
                <path d="M64.5683298,63.9993886 C75.0617401,63.9993886 83,64.2508403 83,54.5553102 C83,44.8597801 74.4934102,37 64,37 C53.5065898,37 45,44.8597801 45,54.5553102 C45,64.2508403 54.0749196,63.9993886 64.5683298,63.9993886 Z" id="椭圆形备份-6" fill="url(#linearGradient-15)"></path>
            </g>
        </g>
        <g transform="translate(285.000000, 322.992141)" fill-rule="nonzero">
            <path d="M0,150.515831 L0,354.661302 C0,362.559189 6.41194913,368.961001 14.3223429,368.961001 L174.58354,375.965308 L185.922317,368.961001 L211.8284,265.453775 L175.904665,187.139929 L227.38676,134.989698 L14.2178003,136.207434 C6.35096592,136.277019 0,142.661435 0,150.515831 Z" id="路径" fill="url(#linearGradient-16)"></path>
            <path d="M0,159.626382 L0,361.618346 C0,369.542337 6.38614472,375.965308 14.2647037,375.965308 L173.904453,375.965308 L201.114983,266.459473 L162.518412,185.058535 L201.114983,144.048932 L14.1605818,145.270693 C6.32540693,145.340508 0,151.746025 0,159.626382 Z" id="路径备份" fill="url(#linearGradient-17)"></path>
            <path d="M190.017665,312.84235 L199.303136,274.501894 C158.982416,300.702864 138.448037,313.83251 137.699998,313.890832 C121.650043,299.854643 100.45171,279.464864 74.1049998,252.721495 C69.5304004,248.069944 61.5675603,247.923777 56.7936526,252.403366 L0,331.35084 L0,360.420882 C0,368.227922 4.7978645,375.965308 15.6029906,375.965308 L174.496174,375.965308 L190.017665,312.84235 Z" id="路径" fill="url(#linearGradient-18)"></path>
            <path d="M307.127262,155.825935 L390.535124,177.231804 C397.982091,179.129848 402.600434,186.514018 401.011514,193.984857 L344.982631,401.802171 C343.140532,410.460371 333.877657,415.365817 325.601309,412.081075 L204.738676,379.214534 L265.421079,266.623289 L249.608642,187.723286 L307.127262,155.825935 Z" id="路径备份-2" fill="url(#linearGradient-19)"></path>
            <path d="M294.696204,162.167399 L377.881045,183.499074 C385.3081,185.390539 389.914094,192.749115 388.329423,200.194059 L334.642483,399.123588 C332.80531,407.751778 323.567202,412.640222 315.312983,409.366864 L194.773519,376.614241 L253.101536,272.580724 L237.33138,193.954192 L294.696204,162.167399 Z" id="路径" fill="url(#linearGradient-20)"></path>
            <path d="M339.721254,382.6763 L280.916533,269.734618 C277.847158,264.680992 271.318235,263.037041 266.237293,266.029205 L253.752493,272.458546 L195.679443,376.671559 C264.806853,395.96147 303.434522,406.514251 311.56245,408.3299 C323.754341,411.053374 332.698793,409.162243 334.528279,400.472789 L339.721254,382.6763 Z" id="路径" fill="url(#linearGradient-21)"></path>
            <circle id="椭圆形" fill="#FFFFFF" cx="318.885017" cy="234.641266" r="26.271777"></circle>
            <polygon id="路径-2" fill="url(#linearGradient-22)" transform="translate(91.595726, 47.036787) rotate(-26.000000) translate(-91.595726, -47.036787)" points="83.9198479 2.7737152 75.049469 51.7450418 96.375088 51.7450418 96.375088 91.2998594 108.141983 40.8627573 86.4634322 40.8627573"></polygon>
            <path d="M369.477934,26.3411281 L332.744887,88.8798159 L369.477934,100.005274 L343.546829,154.576883 C377.124691,111.576187 393.171378,89.6771647 391.686887,88.8798159 C390.202397,88.082467 377.689418,84.6200424 354.147951,78.4925421 L369.477934,26.3411281 Z" id="路径-3" fill="url(#linearGradient-23)" transform="translate(362.263025, 90.459005) rotate(27.000000) translate(-362.263025, -90.459005)"></path>
        </g>
        <path d="M806.335967,794.445064 C785.192322,804.475408 794.579582,807.386112 802.505822,810.422844 C817.059553,815.998727 811.910667,823.383656 805.883737,830.35794 C796.96371,840.680078 724.064991,872.792965 639.194585,866.124215 C560.053826,859.918195 567.324874,827.758489 585.105465,811.127443 C599.429584,797.762724 665.133696,762.785811 745.084079,757.110569 C793.194435,753.680926 814.805172,758.988706 819.662916,764.731997 C827.696879,774.245173 829.877346,783.271505 806.335967,794.445064 Z" id="路径" fill="url(#linearGradient-24)" fill-rule="nonzero" opacity="0.4" transform="translate(699.375527, 811.527261) scale(-1, 1) rotate(8.000000) translate(-699.375527, -811.527261)"></path>
        <g id="人物" transform="translate(710.402683, 658.305407) scale(-1, -1) translate(-710.402683, -658.305407) translate(625.827850, 480.162749)">
            <path d="M61.1871789,339.672252 C63.883207,335.33639 64.9820621,328.832597 63.614882,325.465927 C62.2477018,322.099258 58.1206067,304.494383 71.7796305,299.476261 C85.4386544,294.458138 96.1269363,306.08845 93.8078411,319.574256 C91.4887458,333.060062 90.1087883,340.533048 86.524732,341.011268 C82.9406757,341.489488 81.519821,346.152803 80.7340119,349.002994 C79.9482027,351.853186 64.7712352,343.561775 64.7712352,343.561775 L61.1871789,342.388542 L61.1871789,339.672252 Z" id="路径" fill="#EBB0B0" fill-rule="nonzero" transform="translate(77.656315, 323.942351) scale(1, -1) translate(-77.656315, -323.942351)"></path>
            <path d="M89.3890504,312.993579 C102.800405,314.767323 100.588868,326.344217 96.997606,332.466797 C93.4063441,338.589377 93.2200353,336.546395 88.2603678,339.633143 C88.2603678,339.633143 87.4619875,338.395566 86.1192796,346.974815 L83.7209635,347.727887 C82.8279664,347.963371 84.0844818,345.914833 82.8124428,344.826516 C81.5404037,343.738199 77.2938489,346.468539 78.94493,350.287195 C80.596011,354.105852 80.5831621,353.023899 80.5831621,353.023899 C80.5831621,353.023899 77.178209,356.880743 75.1930571,356.206113 C73.2079052,355.531484 62.1145569,354.712007 61.619875,351.275216 C61.1251931,347.838425 57.5671316,343.826011 58.2738199,334.610319 C58.9805083,325.394627 69.4082401,316.541067 75.4757324,314.767323 C81.5432247,312.993579 86.0420946,312.550921 89.3890504,312.993579 Z" id="路径" fill="#131322" fill-rule="nonzero" transform="translate(78.959580, 334.559640) scale(1, -1) translate(-78.959580, -334.559640)"></path>
            <path d="M149.000843,251.097624 C144.021996,246.366292 140.890358,243.580439 139.605928,242.740065 C137.679284,241.479503 133.759601,240.145875 136.322411,244.102627 C136.863152,245.120674 135.855665,245.120674 133.299949,244.102627 C127.391925,245.04043 125.682576,247.372096 128.171902,251.097624 C131.905892,256.685916 140.014651,261.59012 142.443033,261.59012 C144.061954,261.59012 146.93594,261.39663 151.064991,261.00965 L149.000843,251.097624 Z" id="路径-127" fill="#EFBA9E" fill-rule="nonzero" transform="translate(139.064991, 251.527479) scale(-1, -1) translate(-139.064991, -251.527479)"></path>
            <polygon id="路径-128" fill="#000000" transform="translate(146.821130, 261.628060) rotate(-22.000000) translate(-146.821130, -261.628060)" points="136.569776 247.948113 139.763297 246.104333 157.072484 275.308007 153.878963 277.151787"></polygon>
            <path d="M122.357784,222.448066 C109.531343,215.781399 100.118123,212.114733 94.1181227,211.448066 C85.4340026,214.763033 86.1181227,218.260845 87.1181227,225.104455 C88.1181227,231.948066 111.501053,249.433687 127.970189,252.448066 C137.124978,248.74233 135.254177,238.74233 122.357784,222.448066 Z" id="路径-126" fill="url(#linearGradient-25)" fill-rule="nonzero" transform="translate(110.109537, 231.948066) scale(-1, -1) translate(-110.109537, -231.948066)"></path>
            <path d="M120.251599,24.1355565 C120.394012,29.5408833 119.183501,32.2435466 120.945862,34.8667199 C122.708224,37.4898932 130.030226,39.9008914 133.596708,38.1268816 C138.118103,35.8778866 145.670746,31.4963599 147.821241,30.3089157 C149.971737,29.1214716 164.551221,20.5814215 164.915897,15.1973365 C165.280574,9.81325143 156.833956,8.21434692 146.873942,11.9503816 C136.913928,15.6864162 123.046455,22.2542908 123.046455,22.2542908 L120.251599,24.1355565 Z" id="路径" fill="#333333" fill-rule="nonzero" transform="translate(142.452399, 24.325935) rotate(33.000000) translate(-142.452399, -24.325935)"></path>
            <path d="M2.25159858,18.1355565 C2.39401164,23.5408833 1.18350056,26.2435466 2.94586228,28.8667199 C4.70822401,31.4898932 12.0302259,33.9008914 15.5967079,32.1268816 C20.1181033,29.8778866 27.6707462,25.4963599 29.8212414,24.3089157 C31.9717367,23.1214716 46.5512208,14.5814215 46.9158972,9.19733646 C47.2805736,3.81325143 38.8339555,2.21434692 28.8739416,5.95038158 C18.9139276,9.68641625 5.04645505,16.2542908 5.04645505,16.2542908 L2.25159858,18.1355565 Z" id="路径" fill="#333333" fill-rule="nonzero" transform="translate(24.452399, 18.325935) rotate(-9.000000) translate(-24.452399, -18.325935)"></path>
            <path d="M94.8488863,20.6662984 C83.4993706,41.0562899 75.5297625,62.3408542 70.9400621,84.5199913 C64.0555114,117.788697 52.8605798,170.013159 52.8605798,177.433807 C56.0313161,183.933327 61.447068,185.130099 67.6509005,180.323774 C73.854733,175.51745 89.9701682,115.818893 92.4095273,100.169442 C94.2094688,91.8124185 121.32269,65.9278121 135.527661,31.4979917 C135.44493,25.6333409 121.885339,22.0227765 94.8488863,20.6662984 Z" id="路径-130" fill="url(#linearGradient-26)" fill-rule="nonzero" transform="translate(94.194120, 101.961380) scale(-1, -1) translate(-94.194120, -101.961380)"></path>
            <path d="M4.52766105,20.898995 C6.93679456,63.1739127 28.9388645,114.257451 70.5338709,174.14961 C76.3312222,171.699843 79.3299076,176.744953 82.2080978,164.32669 C79.7462786,151.065022 64.6184076,108.731553 55.1853617,94.79096 C57.255199,88.2535417 52.3413524,47.3380545 48.6580729,20.898995 C41.5135514,20.0422827 26.8034141,20.0422827 4.52766105,20.898995 Z" id="路径-129" fill="url(#linearGradient-27)" fill-rule="nonzero" transform="translate(43.367879, 97.203035) scale(-1, -1) translate(-43.367879, -97.203035)"></path>
            <path d="M61.7752072,169.757779 C68.2502932,170.475823 87.1235476,169.757779 100.992807,209.220443 C107.379584,227.392952 94.4141306,268.746604 106.05094,293.688401 C110.153303,302.479312 102.426639,307.791895 94.0794981,307.791895 C83.9951088,307.791895 34.1225378,316.584312 28.9775164,300.514304 C22.0866368,289.669154 28.6684714,234.898567 28.9775164,229.866512 C30.7551588,200.921879 51.9778618,168.671319 61.7752072,169.757779 Z" id="路径" fill="url(#linearGradient-28)" fill-rule="nonzero" transform="translate(66.515079, 239.961695) scale(1, -1) translate(-66.515079, -239.961695)"></path>
            <path d="M53.4663593,176.857377 C54.4737973,170.83247 54.9775164,166.827063 54.9775164,164.841157 C54.9775164,161.862297 53.6087192,158.448066 47.4775164,158.448066 C41.3463135,158.448066 39.9775164,163.648032 39.9775164,167.271595 C39.9775164,169.687304 41.5489058,174.087605 44.6916848,180.472496 L53.4663593,176.857377 Z" id="路径-3" fill="#EFBA9E" fill-rule="nonzero" transform="translate(47.477516, 169.460281) rotate(13.000000) translate(-47.477516, -169.460281)"></path>
            <path d="M78.9595801,272.129911 C81.4381487,286.902587 75.5140149,293.783224 61.1871789,292.771821 C40.6430645,282.51813 30.3057212,258.319542 25.509908,226.879666 C27.9775164,192.433149 36.998565,178.034425 41.0106882,173.448066 C45.4248889,170.32326 51.5153941,169.252285 53.9487394,175.448066 C56.3820846,181.643847 47.57141,209.516012 45.9775164,226.879666 C64.3938316,243.925266 75.3878529,259.008681 78.9595801,272.129911 Z" id="路径-2" fill="url(#linearGradient-29)" fill-rule="nonzero"></path>
            <polygon id="矩形" fill="#9B643B" fill-rule="nonzero" transform="translate(153.125999, 272.129911) rotate(150.000000) translate(-153.125999, -272.129911)" points="152.702428 270.495425 153.54957 270.495425 153.54957 273.764397 152.702428 273.764397"></polygon>
        </g>
    </g>
</svg>