<svg width="1024px" height="1024px" viewBox="0 0 1024 1024" version="1.1" xmlns="http://www.w3.org/2000/svg" xmlns:xlink="http://www.w3.org/1999/xlink">
  <title>暂无数据</title>
  <defs>
      <linearGradient x1="-13.5823507%" y1="50%" x2="50%" y2="47.2031971%" id="linearGradient-1">
          <stop stop-color="#98D6FA" offset="0%"></stop>
          <stop stop-color="#47B0F1" offset="100%"></stop>
      </linearGradient>
      <linearGradient x1="-9.33772794e-14%" y1="-3.10559006%" x2="100%" y2="-3.10559006%" id="linearGradient-2">
          <stop stop-color="#FFF5DE" offset="0%"></stop>
          <stop stop-color="#FBD2AC" offset="100%"></stop>
      </linearGradient>
      <linearGradient x1="-13.5823507%" y1="50%" x2="50%" y2="47.6284444%" id="linearGradient-3">
          <stop stop-color="#98D6FA" offset="0%"></stop>
          <stop stop-color="#47B0F1" offset="100%"></stop>
      </linearGradient>
      <linearGradient x1="-13.5823507%" y1="50%" x2="50%" y2="47.629463%" id="linearGradient-4">
          <stop stop-color="#98D6FA" offset="0%"></stop>
          <stop stop-color="#47B0F1" offset="100%"></stop>
      </linearGradient>
      <linearGradient x1="-13.5823507%" y1="50%" x2="50%" y2="47.6298828%" id="linearGradient-5">
          <stop stop-color="#98D6FA" offset="0%"></stop>
          <stop stop-color="#47B0F1" offset="100%"></stop>
      </linearGradient>
      <linearGradient x1="-13.5823507%" y1="50%" x2="50%" y2="43.4230204%" id="linearGradient-6">
          <stop stop-color="#98D6FA" offset="0%"></stop>
          <stop stop-color="#47B0F1" offset="100%"></stop>
      </linearGradient>
      <linearGradient x1="43.1398925%" y1="-6.4516129%" x2="60.3365636%" y2="0%" id="linearGradient-7">
          <stop stop-color="#AFDEF9" offset="3.15726754%"></stop>
          <stop stop-color="#7CC9F9" offset="100%"></stop>
      </linearGradient>
      <linearGradient x1="5.92025809%" y1="60.8571499%" x2="59.966368%" y2="37.0542203%" id="linearGradient-8">
          <stop stop-color="#98D6FA" offset="0%"></stop>
          <stop stop-color="#47B0F1" offset="100%"></stop>
      </linearGradient>
      <linearGradient x1="44.4926371%" y1="-6.4516129%" x2="58.2982966%" y2="0%" id="linearGradient-9">
          <stop stop-color="#AFDEF9" offset="3.15726754%"></stop>
          <stop stop-color="#7CC9F9" offset="100%"></stop>
      </linearGradient>
      <linearGradient x1="28.4038852%" y1="87.0084871%" x2="50%" y2="30.4810963%" id="linearGradient-10">
          <stop stop-color="#98D6FA" offset="0%"></stop>
          <stop stop-color="#47B0F1" offset="100%"></stop>
      </linearGradient>
      <linearGradient x1="80.1766865%" y1="78.1244605%" x2="40.1612594%" y2="1.20356745%" id="linearGradient-11">
          <stop stop-color="#98D6FA" offset="0%"></stop>
          <stop stop-color="#47B0F1" offset="100%"></stop>
      </linearGradient>
      <linearGradient x1="16.9636606%" y1="77.6033014%" x2="73.1106367%" y2="27.3104148%" id="linearGradient-12">
          <stop stop-color="#98D6FA" offset="0%"></stop>
          <stop stop-color="#47B0F1" offset="100%"></stop>
      </linearGradient>
      <linearGradient x1="0%" y1="66.879116%" x2="84.977599%" y2="36.1255675%" id="linearGradient-13">
          <stop stop-color="#98D6FA" offset="0%"></stop>
          <stop stop-color="#47B0F1" offset="100%"></stop>
      </linearGradient>
      <linearGradient x1="0%" y1="64.3617284%" x2="84.977599%" y2="38.1948302%" id="linearGradient-14">
          <stop stop-color="#98D6FA" offset="0%"></stop>
          <stop stop-color="#47B0F1" offset="100%"></stop>
      </linearGradient>
      <linearGradient x1="0%" y1="63.9354617%" x2="84.977599%" y2="38.5452163%" id="linearGradient-15">
          <stop stop-color="#98D6FA" offset="0%"></stop>
          <stop stop-color="#47B0F1" offset="100%"></stop>
      </linearGradient>
      <linearGradient x1="0%" y1="-11.7647059%" x2="100%" y2="-11.7647059%" id="linearGradient-16">
          <stop stop-color="#F5DDA7" offset="0%"></stop>
          <stop stop-color="#FA9A41" offset="100%"></stop>
      </linearGradient>
      <linearGradient x1="50%" y1="28.3404168%" x2="-27.1846487%" y2="68.8412901%" id="linearGradient-17">
          <stop stop-color="#98D6FA" offset="0%"></stop>
          <stop stop-color="#47B0F1" offset="100%"></stop>
      </linearGradient>
      <linearGradient x1="50%" y1="2.13972282%" x2="-27.1846487%" y2="91.6328125%" id="linearGradient-18">
          <stop stop-color="#98D6FA" offset="0%"></stop>
          <stop stop-color="#47B0F1" offset="100%"></stop>
      </linearGradient>
      <linearGradient x1="72.9276459%" y1="22.6763615%" x2="33.0310205%" y2="90.6448122%" id="linearGradient-19">
          <stop stop-color="#98D6FA" offset="0%"></stop>
          <stop stop-color="#47B0F1" offset="100%"></stop>
      </linearGradient>
      <linearGradient x1="56.8294384%" y1="7.67024762%" x2="28.7343529%" y2="90.6448122%" id="linearGradient-20">
          <stop stop-color="#98D6FA" offset="0%"></stop>
          <stop stop-color="#47B0F1" offset="100%"></stop>
      </linearGradient>
      <linearGradient x1="84.9880521%" y1="31.4724598%" x2="50%" y2="63.610586%" id="linearGradient-21">
          <stop stop-color="#98D6FA" offset="0%"></stop>
          <stop stop-color="#47B0F1" offset="100%"></stop>
      </linearGradient>
      <linearGradient x1="100%" y1="40.4048677%" x2="12.994501%" y2="64.2730753%" id="linearGradient-22">
          <stop stop-color="#98D6FA" offset="0%"></stop>
          <stop stop-color="#47B0F1" offset="100%"></stop>
      </linearGradient>
      <linearGradient x1="68.572344%" y1="43.752555%" x2="0%" y2="30.1328569%" id="linearGradient-23">
          <stop stop-color="#923629" offset="0%"></stop>
          <stop stop-color="#57352C" offset="30%"></stop>
          <stop stop-color="#42352C" offset="50%"></stop>
          <stop stop-color="#2C2422" offset="70%"></stop>
          <stop stop-color="#1D181C" offset="100%"></stop>
      </linearGradient>
      <linearGradient x1="86.2750219%" y1="-2.80504909%" x2="-2.70574742e-12%" y2="-2.80504909%" id="linearGradient-24">
          <stop stop-color="#923629" offset="0%"></stop>
          <stop stop-color="#57352C" offset="30%"></stop>
          <stop stop-color="#42352C" offset="50%"></stop>
          <stop stop-color="#2C2422" offset="70%"></stop>
          <stop stop-color="#1D181C" offset="100%"></stop>
      </linearGradient>
      <linearGradient x1="100%" y1="-2.96987539%" x2="0.581465918%" y2="-2.96987539%" id="linearGradient-25">
          <stop stop-color="#FFB859" offset="0%"></stop>
          <stop stop-color="#F97B61" offset="100%"></stop>
      </linearGradient>
      <linearGradient x1="-22.3600323%" y1="87.0084871%" x2="50%" y2="30.4810963%" id="linearGradient-26">
          <stop stop-color="#98D6FA" offset="0%"></stop>
          <stop stop-color="#47B0F1" offset="100%"></stop>
      </linearGradient>
      <linearGradient x1="84.080654%" y1="25.4301503%" x2="6.79770472%" y2="124.629284%" id="linearGradient-27">
          <stop stop-color="#98D6FA" offset="0%"></stop>
          <stop stop-color="#47B0F1" offset="100%"></stop>
      </linearGradient>
      <linearGradient x1="89.4431057%" y1="32.0744516%" x2="0%" y2="104.447661%" id="linearGradient-28">
          <stop stop-color="#98D6FA" offset="0%"></stop>
          <stop stop-color="#47B0F1" offset="100%"></stop>
      </linearGradient>
      <linearGradient x1="62.333595%" y1="25.4301503%" x2="34.3653348%" y2="124.629284%" id="linearGradient-29">
          <stop stop-color="#98D6FA" offset="0%"></stop>
          <stop stop-color="#47B0F1" offset="100%"></stop>
      </linearGradient>
      <linearGradient x1="-54.0805314%" y1="61.9485618%" x2="50%" y2="43.6981259%" id="linearGradient-30">
          <stop stop-color="#98D6FA" offset="0%"></stop>
          <stop stop-color="#47B0F1" offset="100%"></stop>
      </linearGradient>
      <linearGradient x1="89.4431057%" y1="44.6320969%" x2="0%" y2="66.3046487%" id="linearGradient-31">
          <stop stop-color="#98D6FA" offset="0%"></stop>
          <stop stop-color="#47B0F1" offset="100%"></stop>
      </linearGradient>
  </defs>
  <g id="暂无数据" stroke="none" stroke-width="1" fill="none" fill-rule="evenodd">
      <rect id="矩形" fill="#FFFFFF" opacity="0" x="0" y="0" width="1024" height="1024"></rect>
      <g id="背景" transform="translate(-10.925399, 125.000000)" fill-rule="nonzero">
          <path d="M87.7222308,456.766916 C80.0492274,423.67151 30.1022806,208.146339 171.323307,178.512529 C312.544333,148.878718 395.972947,183.393328 458.023811,123.051676 C520.074675,62.7100235 535.549093,72.613831 586.515601,76.6047879 C637.482109,80.5957448 696.551563,37.0388532 716.400276,23.9553401 C736.248989,10.871827 915.459428,-73.3066327 961.276528,178.512529 C968.517655,287.383698 974.535248,405.496594 923.838362,450.237259 C873.141476,494.977924 924.764528,535.151398 961.276528,539.615502 C997.788527,544.079607 944.206939,620.525811 859.876058,653.901824 C803.805493,679.056083 441.11611,751.180384 223.920174,677.040997 C119.040265,632.124956 95.3952341,489.862323 87.7222308,456.766916 Z" id="路径-58" fill="#47B0F1" opacity="0.05"></path>
          <path d="M168.925399,204 L168.925997,204.150149 C172.349059,204.845285 174.925399,207.871774 174.925399,211.5 L174.925399,212.5 C174.925399,216.642136 171.567535,220 167.425399,220 L88.4253989,220 C84.2832633,220 80.9253989,216.642136 80.9253989,212.5 L80.9253989,211.5 C80.9253989,207.357864 84.2832633,204 88.4253989,204 L119.925399,204 C123.710851,204 126.794498,200.995217 126.92134,197.24065 L126.925399,197 C126.925399,193.214548 123.920616,190.130901 120.166049,190.004059 L119.925399,190 L116.925399,190 L116.925805,189.850055 C113.502242,189.155307 110.925399,186.12858 110.925399,182.5 L110.925399,181.5 C110.925399,177.357864 114.283263,174 118.425399,174 L197.425399,174 C201.567535,174 204.925399,177.357864 204.925399,181.5 L204.925399,182.5 C204.925399,186.642136 201.567535,190 197.425399,190 L165.925399,190 C162.139947,190 159.0563,193.004783 158.929458,196.75935 L158.925399,197 C158.925399,200.785452 161.930182,203.869099 165.684749,203.995941 L165.925399,204 L168.925399,204 Z" id="形状结合" fill="url(#linearGradient-1)" opacity="0.100000001"></path>
          <path d="M868.925399,34 L868.925997,34.1501485 C872.349059,34.845285 874.925399,37.8717743 874.925399,41.5 L874.925399,42.5 C874.925399,46.6421356 871.567535,50 867.425399,50 L788.425399,50 C784.283263,50 780.925399,46.6421356 780.925399,42.5 L780.925399,41.5 C780.925399,37.3578644 784.283263,34 788.425399,34 L819.925399,34 C823.710851,34 826.794498,30.9952166 826.92134,27.2406498 L826.925399,27 C826.925399,23.2145483 823.920616,20.1309013 820.166049,20.004059 L819.925399,20 L816.925399,20 L816.925805,19.8500552 C813.502242,19.1553066 810.925399,16.1285803 810.925399,12.5 L810.925399,11.5 C810.925399,7.35786438 814.283263,4 818.425399,4 L897.425399,4 C901.567535,4 904.925399,7.35786438 904.925399,11.5 L904.925399,12.5 C904.925399,16.6421356 901.567535,20 897.425399,20 L865.925399,20 C862.139947,20 859.0563,23.0047834 858.929458,26.7593502 L858.925399,27 C858.925399,30.7854517 861.930182,33.8690987 865.684749,33.995941 L865.925399,34 L868.925399,34 Z" id="形状结合" fill="url(#linearGradient-1)" opacity="0.100000001"></path>
          <path d="M525.44197,587 C656.546603,587 774.70322,597.788312 857.228344,615.013362 C937.989145,615.660019 1002.9254,640.030791 1002.9254,670 C1002.9254,694.229977 960.47882,714.80045 901.536221,722.132354 C888.569443,725.884939 874.130297,729.433119 858.378638,732.745641 C858.740426,734.812004 858.925399,736.897944 858.925399,739 C858.925399,790.914766 746.101156,833 606.925399,833 C482.272656,833 378.758797,799.239705 358.512758,754.894193 C191.123049,742.128701 72.9253989,710.721174 72.9253989,674 C72.9253989,625.951227 275.292692,587 525.44197,587 Z" id="形状结合" fill="url(#linearGradient-2)"></path>
          <g id="大雁" transform="translate(660.099546, 36.907158)">
              <path d="M37.4312095,64.7423818 L37.4312095,64.6452119 C32.1058219,49.6073265 14.7356607,42.5306746 0,44.7153228 C10.9264423,37.9201286 28.9638433,36.1107574 37.4343421,46.5280447 L37.4343421,46.6185133 C45.8923106,36.2916945 64.0268216,38.0139479 74.8686842,44.8057914 C60.1455538,42.7216638 42.77226,49.7882636 37.4343421,64.7356804 L37.4312095,64.7423818 Z" id="路径" fill="url(#linearGradient-3)"></path>
              <path d="M120.860322,52.2014603 L120.860322,52.1377972 C117.160744,41.7138085 105.128501,36.8184542 94.9131541,38.3229128 C102.484602,33.6151969 114.989865,32.3586891 120.860322,39.5794206 L120.860322,39.6430837 C126.730779,32.4860153 139.292428,33.67886 146.80749,38.3865759 C136.592143,36.9424296 124.566165,41.8411347 120.860322,52.2014603 L120.860322,52.2014603 Z" id="路径" fill="url(#linearGradient-4)"></path>
              <path d="M86.0679846,17.7234613 L86.0679846,17.6597983 C82.3684066,7.23580958 70.3361632,2.34045519 60.1208168,3.84491386 C67.6922649,-0.862802022 80.197528,-2.11930982 86.0679846,5.10142166 L86.0679846,5.16508473 C91.9384413,-1.9919837 104.500091,-0.79913896 112.015152,3.90857693 C101.799806,2.46443063 89.7738279,7.3631357 86.0679846,17.7234613 L86.0679846,17.7234613 Z" id="路径" fill="url(#linearGradient-4)"></path>
              <path d="M191.548904,58.1616316 L191.548904,58.1180727 C188.986453,50.8939905 180.641257,47.4963934 173.561624,48.5418079 C178.81183,45.2782383 187.479681,44.4070596 191.548904,49.4129867 L191.548904,49.4565456 C195.621259,44.4941775 204.326702,45.3217973 209.536184,48.5853668 C202.456551,47.5801606 194.111355,50.9811084 191.548904,58.1616316 Z" id="路径" fill="url(#linearGradient-5)"></path>
          </g>
          <g id="绿植" transform="translate(0.000000, 469.157511)">
              <path d="M53.4579208,97.7847305 C18.7211621,88.9919949 5.51519106,98.6448032 13.8400076,126.743156 C17.2768648,135.307054 21.6179554,140.267707 26.8632792,141.625117 C42.2267921,154.803478 51.0916726,165.971312 53.4579208,175.128619 C57.0072929,188.86458 70.6197469,202.733737 96.1649191,188.931178 C113.195034,179.729472 127.390936,187.611424 138.752626,212.577035 C163.918858,236.006441 201.646652,240.485951 251.936008,226.015566 C302.225365,211.545181 294.797427,188.486591 229.652195,156.839796 C212.849853,153.406508 200.181906,151.689865 191.648355,151.689865 C183.114804,151.689865 177.463354,143.374295 174.694005,126.743156 C172.893304,116.34828 164.032796,110.087373 148.11248,107.960436 C132.192164,105.833499 124.547998,99.3505574 125.179981,88.5116107 C112.58823,75.545727 100.290346,75.545727 88.2863266,88.5116107 C76.2823076,101.477494 64.672839,104.568534 53.4579208,97.7847305 Z" id="路径-61" fill="url(#linearGradient-6)" transform="translate(148.112480, 156.545047) rotate(10.000000) translate(-148.112480, -156.545047)"></path>
              <path d="M128.357876,61.8772723 L139.708518,118.792492 C147.102266,107.926046 152.423641,98.4478044 155.672643,90.3577665 C160.484426,78.3763885 149.169419,111.841061 140.173455,121.127486 L149.63639,168.578733 C149.645965,168.513344 149.656389,168.449987 149.667663,168.388661 C162.67777,156.94852 170.895007,148.098659 174.319374,141.839075 C173.679437,146.283538 157.476925,166.540868 150.225374,171.539333 L158.930067,215.183483 C158.957143,214.862431 158.980375,214.651495 158.980375,214.651495 C158.980375,214.651495 170.424065,205.903486 174.319374,199.624769 C174.068987,202.241567 164.305398,213.580138 159.442775,217.757845 L166.625116,253.775222 L161.152021,253.775222 L154.642076,215.683175 C145.056775,213.216902 136.254724,205.490142 132.63269,201.122197 C140.695168,207.831691 147.787135,211.53314 153.908592,212.226545 C154.031116,213.306678 154.243439,214.271485 154.545563,215.120968 L136.214888,107.844899 C136.198618,108.140956 136.168439,108.434419 136.12435,108.725288 C125.50581,100.730628 117.714835,91.8155981 112.751425,81.9801986 C114.522037,81.3968589 119.762198,95.8303018 135.848668,105.71297 L128.357876,61.8772723 Z M103.238822,145.449865 C110.476935,153.117211 124.487041,158.514569 145.269141,161.641939 C145.199057,162.54413 145.199057,163.589954 145.269141,164.779412 C125.05606,162.407149 109.416656,153.794333 103.238822,145.449865 Z" id="形状结合" fill="url(#linearGradient-7)" transform="translate(138.779098, 157.826247) rotate(-45.000000) translate(-138.779098, -157.826247)"></path>
              <path d="M100.496525,13.1192019 C68.3285506,-8.77204952 53.4010573,-3.26680461 55.7140452,29.6349366 C61.9026183,53.2030454 65.9619965,68.9582926 63.9323074,83.4041721 C61.9026183,97.8500517 68.2472324,125.149784 100.496525,136.352578 C121.996053,143.821106 128.034527,154.418116 118.611946,168.143606 C113.881324,189.217665 139.9571,204.343139 196.839274,213.520027 C282.162536,227.285361 261.833383,195.652719 239.897382,161.364899 C224.027229,145.480093 221.903337,135.784371 221.903337,123.644346 C221.903337,111.504321 233.51901,91.6604587 200.14408,83.4041721 C185.486559,80.0715009 177.801522,65.4135325 177.088969,39.4302669 C174.782644,26.3698265 160.791703,23.1047164 135.116145,29.6349366 C123.694555,31.8301289 112.154681,26.324884 100.496525,13.1192019 Z" id="路径-65" fill="url(#linearGradient-8)"></path>
              <path d="M132.265793,14.8667685 L144.366738,70.8957685 L144.50287,70.7771673 C152.074817,64.0828933 156.911496,55.9518327 159.012906,46.3839853 L159.077738,46.0747685 L159.072047,46.1190409 C157.984672,53.6751711 158.206027,63.4270148 144.96281,73.6504051 L155.214738,121.128769 L155.507784,120.971226 C164.596231,115.963306 172.1694,107.249088 178.227291,94.8285717 C177.584791,99.2908322 168.96993,117.022913 155.89698,124.283812 L164.982203,166.350593 C167.636591,164.741196 174.635034,159.979484 178.227291,152.614266 C176.551091,158.07617 173.285119,164.909693 165.6606,169.489893 L179.068008,231.572551 L173.470997,228.842707 L161.516396,166.766296 C141.554906,165.760351 133.721891,158.288622 130.145364,153.975556 C138.030824,160.537738 148.268673,163.661789 160.858911,163.34771 L151.768386,116.140769 C151.776756,116.474589 151.791551,116.821578 151.812772,117.181736 C131.599691,114.809472 113.324572,106.78383 107.146738,98.4393607 C114.384851,106.106707 129.273529,111.308341 151.812772,114.044263 L151.353738,113.987769 L141.225572,61.3832515 C141.208927,61.565688 141.186929,61.7471264 141.159578,61.9275666 C128.078098,56.5155778 119.911352,47.5296205 116.659341,34.9696948 C118.427873,34.3870402 120.784183,50.1179685 140.745474,58.903355 L132.265793,14.8667685 Z" id="形状结合" fill="url(#linearGradient-9)" transform="translate(143.107373, 123.219660) rotate(-26.000000) translate(-143.107373, -123.219660)"></path>
              <path d="M210.126368,14.594686 C222.545375,-2.66511618 233.662578,-0.913530277 243.477977,19.8494437 C248.236888,37.7903021 240.72244,49.1966794 265.298493,57.3519642 C281.682529,62.7888208 284.161791,74.1716616 272.736279,91.5004868 C267.964121,102.404197 271.489923,109.373709 283.313684,112.409024 C295.137446,115.444338 293.715218,127.517382 279.046999,148.628157 C273.962442,160.201369 273.962442,167.934544 279.046999,171.827682 C286.673836,177.66739 301.328876,195.179148 283.313684,229.219126 C265.298493,263.259105 222.853604,236.822667 216.489986,220.818047 C210.126368,204.813427 222.853604,182.767143 216.489986,171.827682 C210.126368,160.888221 173.02471,157.12147 182.93685,124.310978 C191.186456,110.887444 202.671075,107.007173 191.140868,84.150088 C179.610661,61.2930028 176.683549,70.4768325 191.140868,47.9608957 C197.453469,41.4908822 203.781969,30.3688123 210.126368,14.594686 Z" id="路径-96" fill="url(#linearGradient-10)"></path>
              <path d="M227.031254,44.3491751 L238.381895,101.264395 C245.775644,90.397949 251.097019,80.9197072 254.34602,72.8296692 C259.157803,60.8482913 247.842797,94.3129634 238.846832,103.599388 L248.309767,151.050636 C248.319342,150.985247 248.329766,150.92189 248.34104,150.860564 C261.351147,139.420423 269.568384,130.570561 272.992752,124.310978 C272.352814,128.755441 256.150302,149.012771 248.898751,154.011236 L257.603444,197.655386 C257.63052,197.334334 257.653752,197.123397 257.653752,197.123397 C257.653752,197.123397 269.097442,188.375389 272.992752,182.096672 C272.742365,184.713469 262.978776,196.05204 258.116152,200.229748 L265.298493,236.247125 L259.825398,236.247125 L253.315454,198.155078 C243.730152,195.688804 234.928101,187.962045 231.306067,183.594099 C239.368545,190.303594 246.460512,194.005043 252.581969,194.698448 C252.704493,195.778581 252.916816,196.743388 253.21894,197.592871 L234.888265,90.3168021 C234.871996,90.6128587 234.841816,90.9063217 234.797727,91.1971908 C224.179187,83.2025307 216.388212,74.2875009 211.424802,64.4521014 C213.195414,63.8687616 218.435575,78.3022046 234.522045,88.1848725 L227.031254,44.3491751 Z M201.912199,127.921767 C209.150312,135.589113 223.160419,140.986472 243.942519,144.113842 C243.872435,145.016033 243.872435,146.061857 243.942519,147.251315 C223.729438,144.879052 208.090033,136.266236 201.912199,127.921767 Z" id="形状结合" fill="url(#linearGradient-7)"></path>
          </g>
          <g id="石头" transform="translate(906.925399, 613.000000)">
              <path d="M42.3959886,49.5164474 C45.3020221,27.3131416 37.8366926,15.351725 20,13.6321975 C44.1424324,11.3251757 60.1235326,26.0173187 60.3823024,49.5164474 C55.3770448,49.6908524 49.3816069,49.6908524 42.3959886,49.5164474 Z" id="路径-38" fill="url(#linearGradient-11)"></path>
              <path d="M54.120901,49.6472512 C58.8339305,27.2411086 53.0371808,10.6920249 36.7306519,0 C57.5522392,6.56657635 72.5106644,16.4351231 77.3732031,49.6472512 C71.0188781,50.1175829 63.2681108,50.1175829 54.120901,49.6472512 Z" id="路径-39" fill="url(#linearGradient-12)"></path>
              <path d="M81.0677818,50 C78.9833933,28.7044584 86.627466,16.502709 104,13.3947519 C87.886355,12.9867807 69.9112687,11.9056548 57.0519275,50 C67.9497157,49.6502805 75.9550005,49.6502805 81.0677818,50 Z" id="路径-40" fill="url(#linearGradient-13)"></path>
              <path d="M31.4123189,63.9990036 C48.2570038,63.9990036 61,64.4087768 61,48.6086537 C61,32.8085305 47.3446849,20 30.5,20 C13.6553151,20 0,32.8085305 0,48.6086537 C0,64.4087768 14.567634,63.9990036 31.4123189,63.9990036 Z" id="椭圆形" fill="url(#linearGradient-14)"></path>
              <path d="M64.5683298,63.9993886 C75.0617401,63.9993886 83,64.2508403 83,54.5553102 C83,44.8597801 74.4934102,37 64,37 C53.5065898,37 45,44.8597801 45,54.5553102 C45,64.2508403 54.0749196,63.9993886 64.5683298,63.9993886 Z" id="椭圆形备份-6" fill="url(#linearGradient-15)"></path>
          </g>
      </g>
      <path d="M814.52111,755.313466 C769.074751,765.34381 789.25182,768.254514 806.288559,771.291246 C837.57049,776.867129 826.503424,784.252058 813.549081,791.226342 C794.376288,801.54848 637.687065,833.661367 455.26578,826.992618 C285.159857,820.786597 300.788318,788.626891 339.006096,771.995845 C369.794498,758.631126 511.019561,723.654213 682.865699,717.978971 C786.274572,714.549328 832.724901,719.857108 843.166185,725.600399 C860.434463,735.113575 865.12118,744.139907 814.52111,755.313466 Z" id="路径" fill="url(#linearGradient-16)" fill-rule="nonzero" opacity="0.4" transform="translate(584.619289, 772.395663) scale(-1, 1) rotate(4.000000) translate(-584.619289, -772.395663)"></path>
      <g id="人物" transform="translate(603.328826, 662.447511) scale(-1, 1) translate(-603.328826, -662.447511) translate(350.657651, 514.958722)" fill-rule="nonzero">
          <g id="盒子" transform="translate(45.342349, 0.000000)">
              <polygon id="路径" fill="url(#linearGradient-17)" points="414.618834 26.211259 206.278027 0 206.278027 103.944158 411.290701 127.892377"></polygon>
              <polygon id="路径" fill="url(#linearGradient-18)" points="41.2556054 33.9178426 206.252518 0 206.278027 116.869466 41.2556054 150.58296"></polygon>
              <polygon id="路径" fill="url(#linearGradient-19)" points="235.156951 78.7405336 412.556054 33.0044843 412.556054 249.241529 235.156951 294.977578"></polygon>
              <polygon id="路径" fill="url(#linearGradient-20)" points="43.3183857 39.1928251 237.219731 77.8655647 236.091667 294.977578 43.3183857 251.91398"></polygon>
              <polygon id="路径" fill="url(#linearGradient-21)" points="237.219731 78.7536199 41.6009673 37.1300448 0 113.800034 198.941913 160.896861"></polygon>
              <polygon id="路径" fill="url(#linearGradient-22)" points="237.219731 77.8040696 414.796177 28.8789238 460 105.020562 289.918019 160.896861"></polygon>
          </g>
          <g transform="translate(132.781232, 77.288805) rotate(-8.000000) translate(-132.781232, -77.288805) translate(6.354588, 22.788593)">
              <path d="M5.46721852,82.9042959 C5.58021281,87.193025 4.61976133,89.3373895 6.01806569,91.4186845 C7.41637005,93.4999795 13.2258398,95.4129292 16.0555809,94.0053829 C19.6429755,92.2209709 25.635442,88.7445518 27.3417017,87.8024022 C29.0479614,86.8602526 40.6157094,80.0843513 40.9050533,75.8124759 C41.1943972,71.5406006 34.4926272,70.2719875 26.5900889,73.2362561 C18.6875507,76.2005247 7.6847315,81.41165 7.6847315,81.41165 L5.46721852,82.9042959 Z" id="路径" fill="#333333" transform="translate(23.081921, 83.055347) rotate(157.000000) translate(-23.081921, -83.055347)"></path>
              <path d="M3.26722747,48.2609699 C3.38022176,52.5496989 2.41977028,54.6940635 3.81807464,56.7753585 C5.216379,58.8566535 11.0258488,60.7696032 13.8555899,59.3620569 C17.4429844,57.5776448 23.4354509,54.1012258 25.1417107,53.1590762 C26.8479704,52.2169266 38.4157183,45.4410252 38.7050622,41.1691499 C38.9944062,36.8972745 32.2926362,35.6286614 24.3900979,38.5929301 C16.4875596,41.5571987 5.48474045,46.7683239 5.48474045,46.7683239 L3.26722747,48.2609699 Z" id="路径" fill="#333333" transform="translate(20.881930, 48.412021) rotate(157.000000) translate(-20.881930, -48.412021)"></path>
              <path d="M130.983122,17.2909088 C109.436216,16.3476049 94.157463,28.3979992 85.1468618,53.4420916 C80.7078643,57.9094664 81.937665,67.2531771 66.5174429,62.5813217 C57.6743998,57.8230884 47.2934842,48.5485815 35.374696,34.7578012 C28.5841455,36.179497 25.1888703,40.5411597 25.1888703,47.8427894 C29.1960038,53.8114735 42.9721947,68.3451721 66.5174429,91.4438854 C82.1280473,103.183975 94.8556323,100.538823 104.700198,83.5084273 C109.099817,73.3322198 125.635704,59.5754842 154.307859,42.2382205 L130.983122,17.2909088 Z" id="路径-114" fill="url(#linearGradient-23)"></path>
              <path d="M145.600366,17.3475274 C125.425416,16.2120092 108.362635,32.156584 94.4120229,65.1812517 C89.9907201,75.1882797 89.3800224,81.2971582 80.9281937,81.0868352 C76.2270173,79.4097122 61.2693604,75.4647602 36.0552228,69.2519793 C28.7640071,71.3223358 26.4478437,76.3652627 29.1067325,84.38076 C32.4643404,87.8506039 45.084123,94.5574454 66.9660801,104.501285 C85.1445349,112.065982 99.225276,110.091417 109.208303,98.5775889 C117.14966,91.7175524 136.354213,78.8930591 166.821963,60.1041089 L145.600366,17.3475274 Z" id="路径-113" fill="url(#linearGradient-24)"></path>
              <path d="M119.476317,12.7165709 C175.453439,-11.2889804 217.207396,-1.30739214 244.738188,42.6613355 C247.784318,47.4706747 250.489351,56.422097 252.853287,69.5156024 C217.051507,51.535439 188.204881,49.2952317 166.31341,62.7949806 C134.643152,54.9904478 119.030788,38.2976445 119.476317,12.7165709 Z" id="路径-112" fill="url(#linearGradient-25)"></path>
          </g>
      </g>
      <g id="落叶" transform="translate(241.221168, 269.029659)">
          <path d="M399.665619,139.987832 C382.931372,132.59419 371.803906,146.008692 366.283222,180.231339 C395.078263,170.908328 406.205729,157.493826 399.665619,139.987832 Z" id="路径-15" fill="url(#linearGradient-26)" fill-rule="nonzero"></path>
          <path d="M411.294313,129.634552 C397.269115,140.454628 388.131775,150.28458 383.882292,159.124407" id="路径-16" stroke="url(#linearGradient-27)" stroke-width="2" stroke-linecap="round"></path>
          <path d="M572.089602,0 C549.116373,37.3283323 528.862366,59.8941664 511.327581,67.6975023 C496.77922,76.2577604 480.719045,71.8477744 477.594597,61.8636157 C475.529528,53.8266831 479.198665,39.5039508 494.044944,47.450676 C505.6911,54.7325508 499.984053,72.5326036 494.044944,80.4310982 C485.830976,90.6502895 461.191472,105.959079 448.037765,105.959079" id="路径-2" stroke="url(#linearGradient-28)" stroke-width="2" stroke-linecap="round"></path>
          <path d="M99.1978881,221.100393 C100.423134,252.126452 88.4540235,273.581695 63.290558,285.466123" id="路径-17" stroke="url(#linearGradient-29)" stroke-width="2" stroke-linecap="round"></path>
          <path d="M43.7187376,299.628673 C36.6102429,290.438552 27.8279197,290.438552 17.3717681,299.628673 C11.8418086,304.812042 8.19456973,313.101437 0,313.101437 C25.698379,322.060849 40.2712915,317.569928 43.7187376,299.628673 Z" id="路径-18" fill="url(#linearGradient-30)" fill-rule="nonzero"></path>
          <path d="M54.8026187,292.736082 C52.1677053,297.868787 41.186622,303.001491 21.8593688,308.134196" id="路径-19" stroke="url(#linearGradient-31)" stroke-width="2" stroke-linecap="round"></path>
      </g>
  </g>
</svg>