<svg width="1024px" height="1024px" viewBox="0 0 1024 1024" version="1.1" xmlns="http://www.w3.org/2000/svg" xmlns:xlink="http://www.w3.org/1999/xlink">
    <title>页面出错</title>
    <defs>
        <linearGradient x1="-13.5823507%" y1="50%" x2="50%" y2="47.2031971%" id="linearGradient-1">
            <stop stop-color="#98D6FA" offset="0%"></stop>
            <stop stop-color="#47B0F1" offset="100%"></stop>
        </linearGradient>
        <linearGradient x1="-9.33772794e-14%" y1="-3.10559006%" x2="100%" y2="-3.10559006%" id="linearGradient-2">
            <stop stop-color="#FFF5DE" offset="0%"></stop>
            <stop stop-color="#FBD2AC" offset="100%"></stop>
        </linearGradient>
        <linearGradient x1="-13.5823507%" y1="50%" x2="50%" y2="47.6284444%" id="linearGradient-3">
            <stop stop-color="#98D6FA" offset="0%"></stop>
            <stop stop-color="#47B0F1" offset="100%"></stop>
        </linearGradient>
        <linearGradient x1="-13.5823507%" y1="50%" x2="50%" y2="47.629463%" id="linearGradient-4">
            <stop stop-color="#98D6FA" offset="0%"></stop>
            <stop stop-color="#47B0F1" offset="100%"></stop>
        </linearGradient>
        <linearGradient x1="-13.5823507%" y1="50%" x2="50%" y2="47.6298828%" id="linearGradient-5">
            <stop stop-color="#98D6FA" offset="0%"></stop>
            <stop stop-color="#47B0F1" offset="100%"></stop>
        </linearGradient>
        <linearGradient x1="-13.5823507%" y1="50%" x2="50%" y2="43.4230204%" id="linearGradient-6">
            <stop stop-color="#98D6FA" offset="0%"></stop>
            <stop stop-color="#47B0F1" offset="100%"></stop>
        </linearGradient>
        <linearGradient x1="43.1398925%" y1="-6.4516129%" x2="60.3365636%" y2="0%" id="linearGradient-7">
            <stop stop-color="#AFDEF9" offset="3.15726754%"></stop>
            <stop stop-color="#7CC9F9" offset="100%"></stop>
        </linearGradient>
        <linearGradient x1="5.92025809%" y1="60.8571499%" x2="59.966368%" y2="37.0542203%" id="linearGradient-8">
            <stop stop-color="#98D6FA" offset="0%"></stop>
            <stop stop-color="#47B0F1" offset="100%"></stop>
        </linearGradient>
        <linearGradient x1="44.4926371%" y1="-6.4516129%" x2="58.2982966%" y2="0%" id="linearGradient-9">
            <stop stop-color="#AFDEF9" offset="3.15726754%"></stop>
            <stop stop-color="#7CC9F9" offset="100%"></stop>
        </linearGradient>
        <linearGradient x1="28.4038852%" y1="87.0084871%" x2="50%" y2="30.4810963%" id="linearGradient-10">
            <stop stop-color="#98D6FA" offset="0%"></stop>
            <stop stop-color="#47B0F1" offset="100%"></stop>
        </linearGradient>
        <linearGradient x1="80.1766865%" y1="78.1244605%" x2="40.1612594%" y2="1.20356745%" id="linearGradient-11">
            <stop stop-color="#98D6FA" offset="0%"></stop>
            <stop stop-color="#47B0F1" offset="100%"></stop>
        </linearGradient>
        <linearGradient x1="16.9636606%" y1="77.6033014%" x2="73.1106367%" y2="27.3104148%" id="linearGradient-12">
            <stop stop-color="#98D6FA" offset="0%"></stop>
            <stop stop-color="#47B0F1" offset="100%"></stop>
        </linearGradient>
        <linearGradient x1="0%" y1="66.879116%" x2="84.977599%" y2="36.1255675%" id="linearGradient-13">
            <stop stop-color="#98D6FA" offset="0%"></stop>
            <stop stop-color="#47B0F1" offset="100%"></stop>
        </linearGradient>
        <linearGradient x1="0%" y1="64.3617284%" x2="84.977599%" y2="38.1948302%" id="linearGradient-14">
            <stop stop-color="#98D6FA" offset="0%"></stop>
            <stop stop-color="#47B0F1" offset="100%"></stop>
        </linearGradient>
        <linearGradient x1="0%" y1="63.9354617%" x2="84.977599%" y2="38.5452163%" id="linearGradient-15">
            <stop stop-color="#98D6FA" offset="0%"></stop>
            <stop stop-color="#47B0F1" offset="100%"></stop>
        </linearGradient>
        <linearGradient x1="49.2353267%" y1="87.0084871%" x2="50%" y2="30.4810963%" id="linearGradient-16">
            <stop stop-color="#98D6FA" offset="0%"></stop>
            <stop stop-color="#47B0F1" offset="100%"></stop>
        </linearGradient>
        <linearGradient x1="-54.0805314%" y1="57.0692468%" x2="50%" y2="46.2715594%" id="linearGradient-17">
            <stop stop-color="#98D6FA" offset="0%"></stop>
            <stop stop-color="#47B0F1" offset="100%"></stop>
        </linearGradient>
        <linearGradient x1="22.3559231%" y1="-8.91420874%" x2="50%" y2="77.3810542%" id="linearGradient-18">
            <stop stop-color="#98D6FA" offset="0%"></stop>
            <stop stop-color="#47B0F1" offset="100%"></stop>
        </linearGradient>
        <linearGradient x1="45.3627906%" y1="-11.4524647%" x2="50%" y2="78.5607378%" id="linearGradient-19">
            <stop stop-color="#98D6FA" offset="0%"></stop>
            <stop stop-color="#47B0F1" offset="100%"></stop>
        </linearGradient>
        <linearGradient x1="47.7464074%" y1="-11.4524647%" x2="50%" y2="78.5607378%" id="linearGradient-20">
            <stop stop-color="#98D6FA" offset="0%"></stop>
            <stop stop-color="#47B0F1" offset="100%"></stop>
        </linearGradient>
        <linearGradient x1="43.8930824%" y1="-11.4524647%" x2="50%" y2="78.5607378%" id="linearGradient-21">
            <stop stop-color="#98D6FA" offset="0%"></stop>
            <stop stop-color="#47B0F1" offset="100%"></stop>
        </linearGradient>
        <linearGradient x1="0%" y1="77.6033014%" x2="113.227535%" y2="77.6033014%" id="linearGradient-22">
            <stop stop-color="#98D6FA" offset="0%"></stop>
            <stop stop-color="#47B0F1" offset="100%"></stop>
        </linearGradient>
        <linearGradient x1="0%" y1="-11.7647059%" x2="100%" y2="-11.7647059%" id="linearGradient-23">
            <stop stop-color="#F5DDA7" offset="0%"></stop>
            <stop stop-color="#FA9A41" offset="100%"></stop>
        </linearGradient>
        <linearGradient x1="86.2750219%" y1="-2.80504909%" x2="-2.70574742e-12%" y2="-2.80504909%" id="linearGradient-24">
            <stop stop-color="#1D181C" offset="0%"></stop>
            <stop stop-color="#2C2422" offset="30%"></stop>
            <stop stop-color="#42352C" offset="50%"></stop>
            <stop stop-color="#57352C" offset="70%"></stop>
            <stop stop-color="#923629" offset="100%"></stop>
        </linearGradient>
        <linearGradient x1="86.2750219%" y1="-2.80504909%" x2="-2.70574742e-12%" y2="-2.80504909%" id="linearGradient-25">
            <stop stop-color="#1D181C" offset="0%"></stop>
            <stop stop-color="#2C2422" offset="30%"></stop>
            <stop stop-color="#42352C" offset="50%"></stop>
            <stop stop-color="#57352C" offset="70%"></stop>
            <stop stop-color="#923629" offset="100%"></stop>
        </linearGradient>
        <linearGradient x1="100%" y1="-2.96987539%" x2="0.581465918%" y2="-2.96987539%" id="linearGradient-26">
            <stop stop-color="#FFB859" offset="0%"></stop>
            <stop stop-color="#F97B61" offset="100%"></stop>
        </linearGradient>
        <linearGradient x1="100%" y1="-2.96987539%" x2="0.581465918%" y2="-2.96987539%" id="linearGradient-27">
            <stop stop-color="#FFB859" offset="0%"></stop>
            <stop stop-color="#F97B61" offset="100%"></stop>
        </linearGradient>
    </defs>
    <g id="页面出错" stroke="none" stroke-width="1" fill="none" fill-rule="evenodd">
        <rect id="矩形" fill="#FFFFFF" opacity="0" x="0" y="0" width="1024" height="1024"></rect>
        <g id="背景" transform="translate(-10.925399, 125.000000)" fill-rule="nonzero">
            <path d="M87.7222308,456.766916 C80.0492274,423.67151 30.1022806,208.146339 171.323307,178.512529 C312.544333,148.878718 395.972947,183.393328 458.023811,123.051676 C520.074675,62.7100235 535.549093,72.613831 586.515601,76.6047879 C637.482109,80.5957448 696.551563,37.0388532 716.400276,23.9553401 C736.248989,10.871827 915.459428,-73.3066327 961.276528,178.512529 C968.517655,287.383698 974.535248,405.496594 923.838362,450.237259 C873.141476,494.977924 924.764528,535.151398 961.276528,539.615502 C997.788527,544.079607 944.206939,620.525811 859.876058,653.901824 C803.805493,679.056083 441.11611,751.180384 223.920174,677.040997 C119.040265,632.124956 95.3952341,489.862323 87.7222308,456.766916 Z" id="路径-58" fill="#47B0F1" opacity="0.05"></path>
            <path d="M168.925399,204 L168.925997,204.150149 C172.349059,204.845285 174.925399,207.871774 174.925399,211.5 L174.925399,212.5 C174.925399,216.642136 171.567535,220 167.425399,220 L88.4253989,220 C84.2832633,220 80.9253989,216.642136 80.9253989,212.5 L80.9253989,211.5 C80.9253989,207.357864 84.2832633,204 88.4253989,204 L119.925399,204 C123.710851,204 126.794498,200.995217 126.92134,197.24065 L126.925399,197 C126.925399,193.214548 123.920616,190.130901 120.166049,190.004059 L119.925399,190 L116.925399,190 L116.925805,189.850055 C113.502242,189.155307 110.925399,186.12858 110.925399,182.5 L110.925399,181.5 C110.925399,177.357864 114.283263,174 118.425399,174 L197.425399,174 C201.567535,174 204.925399,177.357864 204.925399,181.5 L204.925399,182.5 C204.925399,186.642136 201.567535,190 197.425399,190 L165.925399,190 C162.139947,190 159.0563,193.004783 158.929458,196.75935 L158.925399,197 C158.925399,200.785452 161.930182,203.869099 165.684749,203.995941 L165.925399,204 L168.925399,204 Z" id="形状结合" fill="url(#linearGradient-1)" opacity="0.100000001"></path>
            <path d="M868.925399,34 L868.925997,34.1501485 C872.349059,34.845285 874.925399,37.8717743 874.925399,41.5 L874.925399,42.5 C874.925399,46.6421356 871.567535,50 867.425399,50 L788.425399,50 C784.283263,50 780.925399,46.6421356 780.925399,42.5 L780.925399,41.5 C780.925399,37.3578644 784.283263,34 788.425399,34 L819.925399,34 C823.710851,34 826.794498,30.9952166 826.92134,27.2406498 L826.925399,27 C826.925399,23.2145483 823.920616,20.1309013 820.166049,20.004059 L819.925399,20 L816.925399,20 L816.925805,19.8500552 C813.502242,19.1553066 810.925399,16.1285803 810.925399,12.5 L810.925399,11.5 C810.925399,7.35786438 814.283263,4 818.425399,4 L897.425399,4 C901.567535,4 904.925399,7.35786438 904.925399,11.5 L904.925399,12.5 C904.925399,16.6421356 901.567535,20 897.425399,20 L865.925399,20 C862.139947,20 859.0563,23.0047834 858.929458,26.7593502 L858.925399,27 C858.925399,30.7854517 861.930182,33.8690987 865.684749,33.995941 L865.925399,34 L868.925399,34 Z" id="形状结合" fill="url(#linearGradient-1)" opacity="0.100000001"></path>
            <path d="M525.44197,587 C656.546603,587 774.70322,597.788312 857.228344,615.013362 C937.989145,615.660019 1002.9254,640.030791 1002.9254,670 C1002.9254,694.229977 960.47882,714.80045 901.536221,722.132354 C888.569443,725.884939 874.130297,729.433119 858.378638,732.745641 C858.740426,734.812004 858.925399,736.897944 858.925399,739 C858.925399,790.914766 746.101156,833 606.925399,833 C482.272656,833 378.758797,799.239705 358.512758,754.894193 C191.123049,742.128701 72.9253989,710.721174 72.9253989,674 C72.9253989,625.951227 275.292692,587 525.44197,587 Z" id="形状结合" fill="url(#linearGradient-2)"></path>
            <g id="大雁" transform="translate(660.099546, 36.907158)">
                <path d="M37.4312095,64.7423818 L37.4312095,64.6452119 C32.1058219,49.6073265 14.7356607,42.5306746 0,44.7153228 C10.9264423,37.9201286 28.9638433,36.1107574 37.4343421,46.5280447 L37.4343421,46.6185133 C45.8923106,36.2916945 64.0268216,38.0139479 74.8686842,44.8057914 C60.1455538,42.7216638 42.77226,49.7882636 37.4343421,64.7356804 L37.4312095,64.7423818 Z" id="路径" fill="url(#linearGradient-3)"></path>
                <path d="M120.860322,52.2014603 L120.860322,52.1377972 C117.160744,41.7138085 105.128501,36.8184542 94.9131541,38.3229128 C102.484602,33.6151969 114.989865,32.3586891 120.860322,39.5794206 L120.860322,39.6430837 C126.730779,32.4860153 139.292428,33.67886 146.80749,38.3865759 C136.592143,36.9424296 124.566165,41.8411347 120.860322,52.2014603 L120.860322,52.2014603 Z" id="路径" fill="url(#linearGradient-4)"></path>
                <path d="M86.0679846,17.7234613 L86.0679846,17.6597983 C82.3684066,7.23580958 70.3361632,2.34045519 60.1208168,3.84491386 C67.6922649,-0.862802022 80.197528,-2.11930982 86.0679846,5.10142166 L86.0679846,5.16508473 C91.9384413,-1.9919837 104.500091,-0.79913896 112.015152,3.90857693 C101.799806,2.46443063 89.7738279,7.3631357 86.0679846,17.7234613 L86.0679846,17.7234613 Z" id="路径" fill="url(#linearGradient-4)"></path>
                <path d="M191.548904,58.1616316 L191.548904,58.1180727 C188.986453,50.8939905 180.641257,47.4963934 173.561624,48.5418079 C178.81183,45.2782383 187.479681,44.4070596 191.548904,49.4129867 L191.548904,49.4565456 C195.621259,44.4941775 204.326702,45.3217973 209.536184,48.5853668 C202.456551,47.5801606 194.111355,50.9811084 191.548904,58.1616316 Z" id="路径" fill="url(#linearGradient-5)"></path>
            </g>
            <g id="绿植" transform="translate(0.000000, 469.157511)">
                <path d="M53.4579208,97.7847305 C18.7211621,88.9919949 5.51519106,98.6448032 13.8400076,126.743156 C17.2768648,135.307054 21.6179554,140.267707 26.8632792,141.625117 C42.2267921,154.803478 51.0916726,165.971312 53.4579208,175.128619 C57.0072929,188.86458 70.6197469,202.733737 96.1649191,188.931178 C113.195034,179.729472 127.390936,187.611424 138.752626,212.577035 C163.918858,236.006441 201.646652,240.485951 251.936008,226.015566 C302.225365,211.545181 294.797427,188.486591 229.652195,156.839796 C212.849853,153.406508 200.181906,151.689865 191.648355,151.689865 C183.114804,151.689865 177.463354,143.374295 174.694005,126.743156 C172.893304,116.34828 164.032796,110.087373 148.11248,107.960436 C132.192164,105.833499 124.547998,99.3505574 125.179981,88.5116107 C112.58823,75.545727 100.290346,75.545727 88.2863266,88.5116107 C76.2823076,101.477494 64.672839,104.568534 53.4579208,97.7847305 Z" id="路径-61" fill="url(#linearGradient-6)" transform="translate(148.112480, 156.545047) rotate(10.000000) translate(-148.112480, -156.545047)"></path>
                <path d="M128.357876,61.8772723 L139.708518,118.792492 C147.102266,107.926046 152.423641,98.4478044 155.672643,90.3577665 C160.484426,78.3763885 149.169419,111.841061 140.173455,121.127486 L149.63639,168.578733 C149.645965,168.513344 149.656389,168.449987 149.667663,168.388661 C162.67777,156.94852 170.895007,148.098659 174.319374,141.839075 C173.679437,146.283538 157.476925,166.540868 150.225374,171.539333 L158.930067,215.183483 C158.957143,214.862431 158.980375,214.651495 158.980375,214.651495 C158.980375,214.651495 170.424065,205.903486 174.319374,199.624769 C174.068987,202.241567 164.305398,213.580138 159.442775,217.757845 L166.625116,253.775222 L161.152021,253.775222 L154.642076,215.683175 C145.056775,213.216902 136.254724,205.490142 132.63269,201.122197 C140.695168,207.831691 147.787135,211.53314 153.908592,212.226545 C154.031116,213.306678 154.243439,214.271485 154.545563,215.120968 L136.214888,107.844899 C136.198618,108.140956 136.168439,108.434419 136.12435,108.725288 C125.50581,100.730628 117.714835,91.8155981 112.751425,81.9801986 C114.522037,81.3968589 119.762198,95.8303018 135.848668,105.71297 L128.357876,61.8772723 Z M103.238822,145.449865 C110.476935,153.117211 124.487041,158.514569 145.269141,161.641939 C145.199057,162.54413 145.199057,163.589954 145.269141,164.779412 C125.05606,162.407149 109.416656,153.794333 103.238822,145.449865 Z" id="形状结合" fill="url(#linearGradient-7)" transform="translate(138.779098, 157.826247) rotate(-45.000000) translate(-138.779098, -157.826247)"></path>
                <path d="M100.496525,13.1192019 C68.3285506,-8.77204952 53.4010573,-3.26680461 55.7140452,29.6349366 C61.9026183,53.2030454 65.9619965,68.9582926 63.9323074,83.4041721 C61.9026183,97.8500517 68.2472324,125.149784 100.496525,136.352578 C121.996053,143.821106 128.034527,154.418116 118.611946,168.143606 C113.881324,189.217665 139.9571,204.343139 196.839274,213.520027 C282.162536,227.285361 261.833383,195.652719 239.897382,161.364899 C224.027229,145.480093 221.903337,135.784371 221.903337,123.644346 C221.903337,111.504321 233.51901,91.6604587 200.14408,83.4041721 C185.486559,80.0715009 177.801522,65.4135325 177.088969,39.4302669 C174.782644,26.3698265 160.791703,23.1047164 135.116145,29.6349366 C123.694555,31.8301289 112.154681,26.324884 100.496525,13.1192019 Z" id="路径-65" fill="url(#linearGradient-8)"></path>
                <path d="M132.265793,14.8667685 L144.366738,70.8957685 L144.50287,70.7771673 C152.074817,64.0828933 156.911496,55.9518327 159.012906,46.3839853 L159.077738,46.0747685 L159.072047,46.1190409 C157.984672,53.6751711 158.206027,63.4270148 144.96281,73.6504051 L155.214738,121.128769 L155.507784,120.971226 C164.596231,115.963306 172.1694,107.249088 178.227291,94.8285717 C177.584791,99.2908322 168.96993,117.022913 155.89698,124.283812 L164.982203,166.350593 C167.636591,164.741196 174.635034,159.979484 178.227291,152.614266 C176.551091,158.07617 173.285119,164.909693 165.6606,169.489893 L179.068008,231.572551 L173.470997,228.842707 L161.516396,166.766296 C141.554906,165.760351 133.721891,158.288622 130.145364,153.975556 C138.030824,160.537738 148.268673,163.661789 160.858911,163.34771 L151.768386,116.140769 C151.776756,116.474589 151.791551,116.821578 151.812772,117.181736 C131.599691,114.809472 113.324572,106.78383 107.146738,98.4393607 C114.384851,106.106707 129.273529,111.308341 151.812772,114.044263 L151.353738,113.987769 L141.225572,61.3832515 C141.208927,61.565688 141.186929,61.7471264 141.159578,61.9275666 C128.078098,56.5155778 119.911352,47.5296205 116.659341,34.9696948 C118.427873,34.3870402 120.784183,50.1179685 140.745474,58.903355 L132.265793,14.8667685 Z" id="形状结合" fill="url(#linearGradient-9)" transform="translate(143.107373, 123.219660) rotate(-26.000000) translate(-143.107373, -123.219660)"></path>
                <path d="M210.126368,14.594686 C222.545375,-2.66511618 233.662578,-0.913530277 243.477977,19.8494437 C248.236888,37.7903021 240.72244,49.1966794 265.298493,57.3519642 C281.682529,62.7888208 284.161791,74.1716616 272.736279,91.5004868 C267.964121,102.404197 271.489923,109.373709 283.313684,112.409024 C295.137446,115.444338 293.715218,127.517382 279.046999,148.628157 C273.962442,160.201369 273.962442,167.934544 279.046999,171.827682 C286.673836,177.66739 301.328876,195.179148 283.313684,229.219126 C265.298493,263.259105 222.853604,236.822667 216.489986,220.818047 C210.126368,204.813427 222.853604,182.767143 216.489986,171.827682 C210.126368,160.888221 173.02471,157.12147 182.93685,124.310978 C191.186456,110.887444 202.671075,107.007173 191.140868,84.150088 C179.610661,61.2930028 176.683549,70.4768325 191.140868,47.9608957 C197.453469,41.4908822 203.781969,30.3688123 210.126368,14.594686 Z" id="路径-96" fill="url(#linearGradient-10)"></path>
                <path d="M227.031254,44.3491751 L238.381895,101.264395 C245.775644,90.397949 251.097019,80.9197072 254.34602,72.8296692 C259.157803,60.8482913 247.842797,94.3129634 238.846832,103.599388 L248.309767,151.050636 C248.319342,150.985247 248.329766,150.92189 248.34104,150.860564 C261.351147,139.420423 269.568384,130.570561 272.992752,124.310978 C272.352814,128.755441 256.150302,149.012771 248.898751,154.011236 L257.603444,197.655386 C257.63052,197.334334 257.653752,197.123397 257.653752,197.123397 C257.653752,197.123397 269.097442,188.375389 272.992752,182.096672 C272.742365,184.713469 262.978776,196.05204 258.116152,200.229748 L265.298493,236.247125 L259.825398,236.247125 L253.315454,198.155078 C243.730152,195.688804 234.928101,187.962045 231.306067,183.594099 C239.368545,190.303594 246.460512,194.005043 252.581969,194.698448 C252.704493,195.778581 252.916816,196.743388 253.21894,197.592871 L234.888265,90.3168021 C234.871996,90.6128587 234.841816,90.9063217 234.797727,91.1971908 C224.179187,83.2025307 216.388212,74.2875009 211.424802,64.4521014 C213.195414,63.8687616 218.435575,78.3022046 234.522045,88.1848725 L227.031254,44.3491751 Z M201.912199,127.921767 C209.150312,135.589113 223.160419,140.986472 243.942519,144.113842 C243.872435,145.016033 243.872435,146.061857 243.942519,147.251315 C223.729438,144.879052 208.090033,136.266236 201.912199,127.921767 Z" id="形状结合" fill="url(#linearGradient-7)"></path>
            </g>
            <g id="石头" transform="translate(906.925399, 613.000000)">
                <path d="M42.3959886,49.5164474 C45.3020221,27.3131416 37.8366926,15.351725 20,13.6321975 C44.1424324,11.3251757 60.1235326,26.0173187 60.3823024,49.5164474 C55.3770448,49.6908524 49.3816069,49.6908524 42.3959886,49.5164474 Z" id="路径-38" fill="url(#linearGradient-11)"></path>
                <path d="M54.120901,49.6472512 C58.8339305,27.2411086 53.0371808,10.6920249 36.7306519,0 C57.5522392,6.56657635 72.5106644,16.4351231 77.3732031,49.6472512 C71.0188781,50.1175829 63.2681108,50.1175829 54.120901,49.6472512 Z" id="路径-39" fill="url(#linearGradient-12)"></path>
                <path d="M81.0677818,50 C78.9833933,28.7044584 86.627466,16.502709 104,13.3947519 C87.886355,12.9867807 69.9112687,11.9056548 57.0519275,50 C67.9497157,49.6502805 75.9550005,49.6502805 81.0677818,50 Z" id="路径-40" fill="url(#linearGradient-13)"></path>
                <path d="M31.4123189,63.9990036 C48.2570038,63.9990036 61,64.4087768 61,48.6086537 C61,32.8085305 47.3446849,20 30.5,20 C13.6553151,20 0,32.8085305 0,48.6086537 C0,64.4087768 14.567634,63.9990036 31.4123189,63.9990036 Z" id="椭圆形" fill="url(#linearGradient-14)"></path>
                <path d="M64.5683298,63.9993886 C75.0617401,63.9993886 83,64.2508403 83,54.5553102 C83,44.8597801 74.4934102,37 64,37 C53.5065898,37 45,44.8597801 45,54.5553102 C45,64.2508403 54.0749196,63.9993886 64.5683298,63.9993886 Z" id="椭圆形备份-6" fill="url(#linearGradient-15)"></path>
            </g>
        </g>
        <g id="Error" transform="translate(236.000000, 379.000000)" fill-rule="nonzero">
            <path d="M175.02429,0 L195.810095,0 C198.847661,-5.57991845e-16 201.310095,2.46243388 201.310095,5.5 L201.310095,365.334385 C201.310095,368.371952 198.847661,370.834385 195.810095,370.834385 L175.02429,370.834385 C171.986724,370.834385 169.52429,368.371952 169.52429,365.334385 L169.52429,5.5 C169.52429,2.46243388 171.986724,5.57991845e-16 175.02429,0 Z" id="矩形" fill="url(#linearGradient-16)"></path>
            <polygon id="矩形" fill="url(#linearGradient-17)" points="5.76565397 29.4736842 354.751163 58.1880766 400 134.591855 348.985509 204.295609 -1.49880108e-13 175.581216 0.68696703 105.877463"></polygon>
            <path d="M120.180921,153.684211 L120.180921,137.417763 L85,137.417763 L85,126.447368 L113.75,126.447368 L113.75,110.180921 L85,110.180921 L85,100.345395 L119.046053,100.345395 L119.046053,84.0789474 L61.9243421,84.0789474 L61.9243421,153.684211 L120.180921,153.684211 Z M149.6875,153.684211 L149.6875,136.282895 C149.435307,126.195175 153.470395,121.151316 161.792763,121.151316 C162.297149,121.151316 163.053728,121.403509 164.0625,121.907895 L164.0625,121.907895 L165.953947,121.907895 L165.953947,101.858553 L165.953947,101.858553 L164.819079,101.858553 C164.0625,101.60636 163.558114,101.480263 163.305921,101.480263 C155.740132,101.480263 150.570175,105.389254 147.796053,113.207237 L147.796053,113.207237 L147.796053,102.993421 L129.259868,102.993421 L129.259868,153.684211 L149.6875,153.684211 Z M192.434211,153.684211 L192.434211,136.282895 C192.182018,126.195175 196.217105,121.151316 204.539474,121.151316 C205.04386,121.151316 205.800439,121.403509 206.809211,121.907895 L206.809211,121.907895 L208.700658,121.907895 L208.700658,101.858553 L208.700658,101.858553 L207.565789,101.858553 C206.809211,101.60636 206.304825,101.480263 206.052632,101.480263 C198.486842,101.480263 193.316886,105.389254 190.542763,113.207237 L190.542763,113.207237 L190.542763,102.993421 L172.006579,102.993421 L172.006579,153.684211 L192.434211,153.684211 Z M241.990132,154.440789 C260.904605,153.936404 270.614035,145.109649 271.118421,127.960526 C270.109649,111.315789 260.400219,102.489035 241.990132,101.480263 C223.327851,102.236842 213.744518,111.315789 213.240132,128.717105 C213.744518,145.361842 223.327851,153.936404 241.990132,154.440789 Z M242.399516,141.588902 L241.990132,141.578947 C236.189693,141.326754 233.289474,136.787281 233.289474,127.960526 C233.541667,119.890351 236.567982,115.60307 242.368421,115.098684 C247.412281,115.350877 250.186404,119.638158 250.690789,127.960526 C250.690789,137.291667 247.79057,141.83114 241.990132,141.578947 L242.399516,141.588902 Z M299.490132,153.684211 L299.490132,136.282895 C299.237939,126.195175 303.273026,121.151316 311.595395,121.151316 C312.099781,121.151316 312.85636,121.403509 313.865132,121.907895 L313.865132,121.907895 L315.756579,121.907895 L315.756579,101.858553 L315.756579,101.858553 L314.621711,101.858553 C313.865132,101.60636 313.360746,101.480263 313.108553,101.480263 C305.542763,101.480263 300.372807,105.389254 297.598684,113.207237 L297.598684,113.207237 L297.598684,102.993421 L279.0625,102.993421 L279.0625,153.684211 L299.490132,153.684211 Z" fill="#FFFFFF" transform="translate(188.840461, 119.259868) rotate(4.000000) translate(-188.840461, -119.259868)"></path>
        </g>
        <g id="草" transform="translate(376.000000, 640.000000)" fill-rule="nonzero">
            <path d="M76.8339706,111.350193 C73.8961379,97.9774312 65.3166079,88.6293967 51.0953805,83.306089 C34.8552583,78.0856756 25.9577367,71.8803215 36.1199783,67.3808644 C44.7014352,66.6987173 63.0026812,60.0155753 76.8339706,99.9346837 C77.7965574,103.803049 77.7965574,107.608218 76.8339706,111.350193 Z" id="路径-43" fill="url(#linearGradient-18)"></path>
            <path d="M77.5559107,113.471292 C69.0030576,81.5453557 59.2870179,58.2365896 48.4077916,43.5449932 C40.4194687,33.5053148 40.9792222,19.139288 48.4077916,15.8921849 C56.0117111,15.0465837 70.0259719,13.7387107 80.5780631,68.7602228 C81.2445115,72.54482 84.9626922,94.6854949 80.5780631,108.97446 C79.9290704,110.935504 78.9216863,112.434448 77.5559107,113.471292 Z" id="路径-44" fill="url(#linearGradient-19)"></path>
            <path d="M79.5312375,106.260477 C83.3995743,91.9747068 82.908447,73.3350694 78.0578555,50.3415643 C70.6383889,28.0514157 57.9742035,0.632095994 81.0570272,0 C90.4218368,1.27347346 101.730088,11.089674 97.4572362,60.01248 C94.8534106,79.7538097 90.3248753,91.4159589 85.5723241,106.260477 C83.9144637,107.186087 81.9007682,107.186087 79.5312375,106.260477 Z" id="路径-45" fill="url(#linearGradient-20)"></path>
            <path d="M84.0498428,111.808703 C82.5013954,71.4141234 89.8942618,42.424662 106.228442,24.8403186 C110.639347,18.9643317 127.420369,13.4610577 127.357019,31.8807952 C125.605146,39.8011662 121.856509,56.710169 100.24032,82.5083286 C93.1190097,91.8196317 88.4387109,105.426034 88.3930918,108.616231 C88.362679,110.743029 86.9149294,111.807186 84.0498428,111.808703 Z" id="路径-46" fill="url(#linearGradient-21)"></path>
            <path d="M0,117.142329 C16.1751119,114.127572 25.0954661,111.568298 26.7610626,109.464506 C29.2594573,106.308819 51.2691782,92.759365 64.9943496,104.172261 C67.982101,100.332496 77.5641111,97.3456443 83.0476899,104.172261 C85.5564599,93.3944779 101.207244,86.4920321 108.013931,87.6102553 C115.679327,87.0103706 138.30873,87.2599588 140,117.142329 C133.825815,117.286074 87.1591483,117.286074 0,117.142329 Z" id="路径-47" fill="url(#linearGradient-22)"></path>
        </g>
        <g id="人物" transform="translate(533.912861, 562.317936)">
            <path d="M256.710413,234.920809 C234.029235,245.680543 244.099122,248.802909 252.601746,252.060468 C268.2138,258.041819 262.690496,265.963769 256.225296,273.445212 C246.65662,284.517959 168.456823,318.966044 77.4147769,311.812353 C-7.48097034,305.155041 0.318816001,270.656733 19.3923835,252.816304 C34.7581296,238.479724 105.240139,200.959346 191.004385,194.871409 C242.61325,191.192368 265.795484,196.886122 271.006476,203.047056 C279.624655,213.252014 281.963682,222.934727 256.710413,234.920809 Z" id="路径" fill="url(#linearGradient-23)" fill-rule="nonzero" opacity="0.4" transform="translate(141.971981, 253.245196) rotate(8.000000) translate(-141.971981, -253.245196)"></path>
            <path d="M150.223212,89.470303 C154.558994,82.4973233 156.326184,72.0378537 154.12747,66.62354 C151.928757,61.2092263 145.291518,32.8968777 167.258107,24.8266791 C189.224695,16.7564805 206.413705,35.4604732 202.684111,57.148491 C198.954517,78.8365089 196.735255,90.8546446 190.971337,91.6237232 C185.207419,92.3928019 182.922385,99.8923942 181.658639,104.476103 C180.394892,109.059812 155.98713,95.725476 155.98713,95.725476 L150.223212,93.8386697 L150.223212,89.470303 Z" id="路径" fill="#EBB0B0" fill-rule="nonzero" transform="translate(176.709053, 64.173307) rotate(33.000000) translate(-176.709053, -64.173307)"></path>
            <path d="M207.484107,12.8195068 C229.052392,15.6720603 225.495774,34.290146 219.720268,44.1365443 C213.944762,53.9829426 213.645139,50.697398 205.668948,55.6615385 C205.668948,55.6615385 204.384984,53.6712535 202.225627,67.4684935 L198.368629,68.6795923 C196.932502,69.0583 198.953244,65.7638203 196.907537,64.013577 C194.86183,62.2633336 188.032475,66.654295 190.687761,72.7954998 C193.343047,78.9367045 193.322384,77.1966965 193.322384,77.1966965 C193.322384,77.1966965 187.846502,83.3993133 184.653959,82.3143671 C181.461416,81.2294209 163.620975,79.91153 162.825422,74.3844458 C162.029869,68.8573615 156.307757,62.4045532 157.44426,47.5837791 C158.580764,32.763005 175.350754,18.5246139 185.10856,15.6720603 C194.866367,12.8195068 202.101497,12.1076196 207.484107,12.8195068 Z" id="路径" fill="#131322" fill-rule="nonzero" transform="translate(190.711322, 47.502276) rotate(33.000000) translate(-190.711322, -47.502276)"></path>
            <path d="M259.836372,247.885365 C260.011497,254.532304 258.52293,257.855773 260.690109,261.081493 C262.857288,264.307214 271.861165,267.272022 276.246874,265.090519 C281.806841,262.324927 291.094338,256.936956 293.738805,255.476754 C296.383272,254.016552 314.311687,243.514839 314.76013,236.894022 C315.208573,230.273204 304.821754,228.307028 292.573909,232.901236 C280.326064,237.495444 263.273211,245.571969 263.273211,245.571969 L259.836372,247.885365 Z" id="路径" fill="#333333" fill-rule="nonzero" transform="translate(287.136732, 248.119474) rotate(32.000000) translate(-287.136732, -248.119474)"></path>
            <path d="M151.747666,190.663563 C165.718254,170.09567 200.315937,122.448216 239.927803,126.449254 C276.167423,130.10986 285.830035,239.990447 285.830035,239.990447 L265.123374,243.35875 L229.595334,175.026054 L167.271209,253.532706 L121.86605,236.068721 L151.747666,190.663563 Z" id="Fill-1706" fill="url(#linearGradient-24)" fill-rule="nonzero"></path>
            <path d="M45.6687277,189.416393 C36.7925539,220.485506 34.8010468,268.973545 65.8120854,275.796134 C82.883576,279.551862 105.076514,277.161854 162.434719,277.503282 C219.115073,277.840708 255.984485,280.576151 255.643055,249.50704 C255.301627,218.436926 186.676237,226.289811 171.994755,224.924092 C157.314274,223.558373 89.3707425,222.875514 89.3707425,222.875514 L45.6687277,189.416393 Z" id="Fill-1708" fill="url(#linearGradient-25)" fill-rule="nonzero"></path>
            <path d="M168.582445,98.757347 C168.582445,98.757347 164.819123,95.089985 156.570402,87.6566839 C140.873661,76.1520438 146.913204,66.7198979 146.913204,66.7198979 C146.913204,66.7198979 92.3392558,63.4622769 60.903467,118.715377 C41.9699704,151.993829 39.9647396,209.001641 39.9647396,209.001641 C39.9647396,209.001641 58.4148732,230.614255 137.625589,223.44423 C137.625589,223.44423 161.411531,178.14921 173.702004,156.298702 C181.895652,141.731031 180.189132,122.550579 168.582445,98.757347 Z" id="Fill-1709" fill="url(#linearGradient-26)" fill-rule="nonzero"></path>
            <polygon id="矩形" fill="#000000" transform="translate(292.070821, 160.995427) scale(-1, 1) rotate(20.000000) translate(-292.070821, -160.995427)" points="271.993181 158.987663 312.14846 158.987663 312.14846 163.003191 271.993181 163.003191"></polygon>
            <path d="M266.613956,164.243756 C269.567553,163.814915 272.663422,163.407905 275.901564,163.022729 C276.967531,162.435626 278.360083,161.995624 280.079221,161.702723 C283.283039,161.822896 284.636562,162.45293 284.13979,163.592824 C283.643018,164.732718 282.702563,165.461569 281.318426,165.779379 L286.54966,166.419165 L291.950512,165.70992 C297.642541,165.094557 299.755192,166.790121 298.288463,170.796611 C295.745563,174.982883 289.19678,178.311471 279.750837,174.684618 C277.74222,173.156477 274.593569,172.266067 270.304883,172.013386 L266.613956,164.243756 Z" id="路径-50备份" fill="#EFBA9E" fill-rule="nonzero" transform="translate(282.676594, 168.969090) rotate(-19.000000) translate(-282.676594, -168.969090)"></path>
            <path d="M270.576656,166.29709 L185.624989,198.376299 L163.130418,109.390413 C156.397478,93.8599855 144.57456,87.3316121 127.661665,89.805293 C115.649919,95.3108864 110.136766,106.761966 111.053436,119.182973 C111.970105,131.60398 129.747402,183.741361 147.805073,206.937982 C161.475712,222.672831 169.720521,233.55803 189.39394,228.523966 C199.555357,225.048897 228.964768,210.391062 277.622173,184.550463 L270.576656,166.29709 Z" id="路径-3" fill="url(#linearGradient-27)" fill-rule="nonzero"></path>
        </g>
    </g>
</svg>