<svg xmlns="http://www.w3.org/2000/svg" xmlns:xlink="http://www.w3.org/1999/xlink" viewBox="0 0 1024 1024"><defs><style>.cls-1,.cls-2{fill:#fff;}.cls-1,.cls-38{fill-rule:evenodd;}.cls-2{fill-opacity:0;}.cls-3{fill:#47b0f1;opacity:0.05;}.cls-26,.cls-3,.cls-4,.cls-5{isolation:isolate;}.cls-4,.cls-5{opacity:0.1;}.cls-4{fill:url(#未命名的渐变_30);}.cls-5{fill:url(#未命名的渐变_30-2);}.cls-6{fill:url(#未命名的渐变_3);}.cls-7{fill:url(#未命名的渐变_30-3);}.cls-8{fill:url(#未命名的渐变_30-4);}.cls-9{fill:url(#未命名的渐变_30-5);}.cls-10{fill:url(#未命名的渐变_30-6);}.cls-11{fill:url(#未命名的渐变_30-7);}.cls-12{fill:url(#未命名的渐变_13);}.cls-13{fill:url(#未命名的渐变_30-8);}.cls-14{fill:url(#未命名的渐变_13-2);}.cls-15{fill:url(#未命名的渐变_30-9);}.cls-16{fill:url(#未命名的渐变_13-3);}.cls-17{fill:url(#未命名的渐变_30-10);}.cls-18{fill:url(#未命名的渐变_30-11);}.cls-19{fill:url(#未命名的渐变_30-12);}.cls-20{fill:url(#未命名的渐变_30-13);}.cls-21{fill:url(#未命名的渐变_30-14);}.cls-22{fill:url(#未命名的渐变_30-15);}.cls-23{fill:url(#未命名的渐变_30-16);}.cls-24{fill:url(#未命名的渐变_30-17);}.cls-25{fill:url(#未命名的渐变_30-18);}.cls-26{opacity:0.4;fill:url(#未命名的渐变_23);}.cls-27{fill:#333;}.cls-28{fill:url(#未命名的渐变_25);}.cls-29{fill:url(#未命名的渐变_25-2);}.cls-30{fill:#ebb0b0;}.cls-31{fill:#131322;}.cls-32{fill:#efba9e;}.cls-33{fill:url(#未命名的渐变_27);}.cls-34{fill:url(#未命名的渐变_27-2);}.cls-35{fill:url(#未命名的渐变_30-19);}.cls-36{fill:url(#未命名的渐变_29);}.cls-37{fill:url(#未命名的渐变_30-20);}.cls-38{fill:#98d6fa;}.cls-39{mask:url(#mask);}</style><linearGradient id="未命名的渐变_30" x1="212.14" y1="933.32" x2="212.78" y2="933.35" gradientTransform="matrix(124, 0, 0, -46, -26252, 43255.93)" gradientUnits="userSpaceOnUse"><stop offset="0" stop-color="#98d6fa"></stop><stop offset="1" stop-color="#47b0f1"></stop></linearGradient><linearGradient id="未命名的渐变_30-2" x1="212.14" y1="933.32" x2="212.78" y2="933.35" gradientTransform="matrix(124, 0, 0, -46, -25552, 43085.93)" xlink:href="#未命名的渐变_30"></linearGradient><linearGradient id="未命名的渐变_3" x1="213.77" y1="931.76" x2="214.77" y2="931.76" gradientTransform="matrix(930, 0, 0, -246, -198744, 230046.9)" gradientUnits="userSpaceOnUse"><stop offset="0" stop-color="#fff5de"></stop><stop offset="1" stop-color="#fbd2ac"></stop></linearGradient><linearGradient id="未命名的渐变_30-3" x1="211.01" y1="934.89" x2="211.64" y2="934.91" gradientTransform="matrix(74.87, 0, 0, -25.58, -15158.72, 24124.51)" xlink:href="#未命名的渐变_30"></linearGradient><linearGradient id="未命名的渐变_30-4" x1="209.74" y1="936.45" x2="210.38" y2="936.47" gradientTransform="matrix(51.89, 0, 0, -17.72, -10147.3, 16802.7)" xlink:href="#未命名的渐变_30"></linearGradient><linearGradient id="未命名的渐变_30-5" x1="209.74" y1="936.45" x2="210.38" y2="936.47" gradientTransform="matrix(51.89, 0, 0, -17.72, -10182.09, 16768.22)" xlink:href="#未命名的渐变_30"></linearGradient><linearGradient id="未命名的渐变_30-6" x1="207.92" y1="938.7" x2="208.55" y2="938.72" gradientTransform="matrix(35.97, 0, 0, -12.29, -6661.82, 11746.33)" xlink:href="#未命名的渐变_30"></linearGradient><linearGradient id="未命名的渐变_30-7" x1="213.04" y1="931.65" x2="213.68" y2="931.72" gradientTransform="matrix(269.22, 47.47, 27.01, -153.15, -82548.68, 133303.42)" xlink:href="#未命名的渐变_30"></linearGradient><linearGradient id="未命名的渐变_13" x1="213.03" y1="932.64" x2="213.21" y2="932.57" gradientTransform="matrix(50.26, -50.26, -135.69, -135.69, 115943.22, 138005.55)" gradientUnits="userSpaceOnUse"><stop offset="0.03" stop-color="#afdef9"></stop><stop offset="1" stop-color="#7cc9f9"></stop></linearGradient><linearGradient id="未命名的渐变_30-8" x1="213.04" y1="931.63" x2="213.58" y2="931.87" gradientTransform="matrix(203.58, 0, 0, -216.82, -43307.04, 202734.68)" xlink:href="#未命名的渐变_30"></linearGradient><linearGradient id="未命名的渐变_13-2" x1="212.15" y1="932.39" x2="212.28" y2="932.32" gradientTransform="matrix(64.64, -31.53, -95, -194.77, 74960.15, 188980.58)" xlink:href="#未命名的渐变_13"></linearGradient><linearGradient id="未命名的渐变_30-9" x1="212.43" y1="931.36" x2="212.65" y2="931.93" gradientTransform="matrix(110.66, 0, 0, -242.94, -23297.23, 227077.49)" xlink:href="#未命名的渐变_30"></linearGradient><linearGradient id="未命名的渐变_13-3" x1="211.26" y1="931.99" x2="211.43" y2="931.92" gradientTransform="matrix(71.08, 0, 0, -191.9, -14806.25, 179556.25)" xlink:href="#未命名的渐变_13"></linearGradient><linearGradient id="未命名的渐变_30-10" x1="209.44" y1="933.56" x2="209.04" y2="934.33" gradientTransform="matrix(40.38, 0, 0, -36.25, -7511.81, 34624.73)" xlink:href="#未命名的渐变_30"></linearGradient><linearGradient id="未命名的渐变_30-11" x1="208.91" y1="932.9" x2="209.47" y2="933.41" gradientTransform="matrix(40.64, 0, 0, -50, -7550.77, 47422.49)" xlink:href="#未命名的渐变_30"></linearGradient><linearGradient id="未命名的渐变_30-12" x1="209.46" y1="933.63" x2="210.31" y2="933.93" gradientTransform="matrix(46.95, 0, 0, -36.71, -8879.84, 35053.15)" xlink:href="#未命名的渐变_30"></linearGradient><linearGradient id="未命名的渐变_30-13" x1="210.5" y1="933.26" x2="211.35" y2="933.52" gradientTransform="matrix(61, 0, 0, -44, -11944, 41851.15)" xlink:href="#未命名的渐变_30"></linearGradient><linearGradient id="未命名的渐变_30-14" x1="208.38" y1="934.55" x2="209.23" y2="934.8" gradientTransform="matrix(38, 0, 0, -27, -6977, 26026.03)" xlink:href="#未命名的渐变_30"></linearGradient><linearGradient id="未命名的渐变_30-15" x1="213.01" y1="932.36" x2="213.18" y2="932.93" gradientTransform="matrix(45.14, -45.14, -111.72, -111.72, 95264.61, 114553.52)" xlink:href="#未命名的渐变_30"></linearGradient><linearGradient id="未命名的渐变_30-16" x1="212.94" y1="931.12" x2="213.98" y2="931.69" gradientTransform="matrix(358, 0, 0, -358, -76054, 334087.56)" xlink:href="#未命名的渐变_30"></linearGradient><linearGradient id="未命名的渐变_30-17" x1="210.91" y1="927.53" x2="211.31" y2="928.1" gradientTransform="matrix(4.39, 35.73, 57.57, -7.07, -53583.02, -509.99)" xlink:href="#未命名的渐变_30"></linearGradient><linearGradient id="未命名的渐变_30-18" x1="205.85" y1="928.92" x2="206.25" y2="929.48" gradientTransform="matrix(18.38, 18.38, 29.7, -29.7, -30664.18, 24244.72)" xlink:href="#未命名的渐变_30"></linearGradient><linearGradient id="未命名的渐变_23" x1="214.79" y1="932.46" x2="215.79" y2="932.46" gradientTransform="matrix(-249.25, 35.03, -15.45, -109.92, 68630.27, 95785.85)" gradientUnits="userSpaceOnUse"><stop offset="0" stop-color="#f5dda7"></stop><stop offset="1" stop-color="#fa9a41"></stop></linearGradient><linearGradient id="未命名的渐变_25" x1="212.68" y1="932.06" x2="211.75" y2="932.5" gradientTransform="matrix(93.02, 0, 0, -112.18, -19188.19, 105295.82)" gradientUnits="userSpaceOnUse"><stop offset="0" stop-color="#1d181c"></stop><stop offset="0.3" stop-color="#2c2422"></stop><stop offset="0.5" stop-color="#42352c"></stop><stop offset="0.7" stop-color="#57352c"></stop><stop offset="1" stop-color="#923629"></stop></linearGradient><linearGradient id="未命名的渐变_25-2" x1="209.23" y1="932.01" x2="209.16" y2="932.45" gradientTransform="matrix(40.36, 0, 0, -168.42, -7926.8, 157714.42)" xlink:href="#未命名的渐变_25"></linearGradient><linearGradient id="未命名的渐变_27" x1="209.59" y1="932.2" x2="208.59" y2="932.2" gradientTransform="matrix(39.55, 0, 0, -111.41, -7733.77, 104388.6)" gradientUnits="userSpaceOnUse"><stop offset="0" stop-color="#ffb859"></stop><stop offset="1" stop-color="#f97b61"></stop></linearGradient><linearGradient id="未命名的渐变_27-2" x1="212.37" y1="932.15" x2="211.38" y2="932.15" gradientTransform="matrix(81.4, 0, 0, -117.9, -16731.55, 110523.19)" xlink:href="#未命名的渐变_27"></linearGradient><linearGradient id="未命名的渐变_30-19" x1="197.38" y1="933.09" x2="197.47" y2="933.65" gradientTransform="matrix(12.54, 0, 0, -43.36, -1937.19, 41068.98)" xlink:href="#未命名的渐变_30"></linearGradient><linearGradient id="未命名的渐变_29" x1="210.6" y1="932.56" x2="211.06" y2="932.65" gradientTransform="matrix(63.92, 0, 0, -72.24, -12992.43, 67996.31)" gradientUnits="userSpaceOnUse"><stop offset="0" stop-color="#f97b61"></stop><stop offset="1" stop-color="#ffb859"></stop></linearGradient><linearGradient id="未命名的渐变_30-20" x1="219.13" y1="933.41" x2="220.17" y2="933.9" gradientTransform="translate(8991.46 33859.33) rotate(180) scale(38.36 35.65)" xlink:href="#未命名的渐变_30"></linearGradient><mask id="mask" x="546.39" y="542.69" width="24.4" height="30.51" maskUnits="userSpaceOnUse"><g id="mask-29"><path id="path-28" class="cls-1" d="M568.36,543c3.5,1.85,3.09,11.54-.41,18.54-3.51,6.81-11.13,13.19-14.64,11.34s-2.68-10.92,0-17.11c3.51-7.62,11.54-14.63,15.05-12.77Z"></path></g></mask></defs><g id="图层_2"><g id="图层_1-2"><g id="搜索无结果"><rect id="矩形" class="cls-2" width="1024" height="1024"></rect><g id="背景"><path id="路径-58" class="cls-3" d="M76.8,581.77c-7.68-33.1-57.62-248.62,83.6-278.26s224.65,4.88,286.7-55.46,77.52-50.44,128.49-46.45S685.63,162,705.47,149,904.53,51.69,950.35,303.51c7.24,108.87,13.26,227-37.44,271.73s.93,84.91,37.44,89.38S933.28,745.53,849,778.9C792.88,804.06,430.19,876.18,213,802,108.11,757.12,84.47,614.86,76.8,581.77Z"></path><path id="形状结合" class="cls-4" d="M158,329v.15a7.51,7.51,0,0,1,6,7.35v1a7.5,7.5,0,0,1-7.5,7.5h-79a7.5,7.5,0,0,1-7.5-7.5v-1a7.5,7.5,0,0,1,7.5-7.5H109a7,7,0,0,0,7-6.76V322a7,7,0,0,0-6.76-7H106v-.15a7.5,7.5,0,0,1-6-7.35v-1a7.5,7.5,0,0,1,7.5-7.5h79a7.5,7.5,0,0,1,7.5,7.5v1a7.5,7.5,0,0,1-7.5,7.5H155a7,7,0,0,0-7,6.76V322a7,7,0,0,0,6.76,7H158Z"></path><path id="形状结合-2" class="cls-5" d="M858,159v.15a7.51,7.51,0,0,1,6,7.35v1a7.5,7.5,0,0,1-7.5,7.5h-79a7.5,7.5,0,0,1-7.5-7.5v-1a7.5,7.5,0,0,1,7.5-7.5H809a7,7,0,0,0,7-6.76V152a7,7,0,0,0-6.76-7H806v-.15a7.5,7.5,0,0,1-6-7.35v-1a7.5,7.5,0,0,1,7.5-7.5h79a7.5,7.5,0,0,1,7.5,7.5v1a7.5,7.5,0,0,1-7.5,7.5H855a7,7,0,0,0-7,6.76V152a7,7,0,0,0,6.76,7H858Z"></path><path id="形状结合-3" class="cls-6" d="M514.52,712c131.1,0,249.26,10.79,331.78,28,80.76.65,145.7,25,145.7,55,0,24.23-42.45,44.8-101.39,52.13-13,3.75-27.41,7.3-43.16,10.62A35.34,35.34,0,0,1,848,864c0,51.91-112.82,94-252,94-124.65,0-228.17-33.76-248.41-78.11C180.2,867.13,62,835.72,62,799,62,751,264.37,712,514.52,712Z"></path><g id="大雁"><path id="路径" class="cls-7" d="M686.61,226.65v-.1c-5.33-15-22.7-22.11-37.44-19.93,10.93-6.79,29-8.6,37.44,1.82v.09c8.46-10.33,26.59-8.61,37.43-1.82-14.72-2.08-32.09,5-37.43,19.93Z"></path><path id="路径-2" class="cls-8" d="M770,214.11V214c-3.7-10.42-15.73-15.31-25.94-13.81,7.57-4.71,20.07-6,25.94,1.26v.06c5.87-7.16,18.44-6,26-1.26-10.21-1.44-22.24,3.46-26,13.82Z"></path><path id="路径-3" class="cls-9" d="M735.24,179.63v-.06c-3.7-10.43-15.73-15.32-26-13.82,7.58-4.71,20.08-6,26,1.26v.06c5.87-7.15,18.43-6,26-1.25-10.22-1.45-22.24,3.45-26,13.81Z"></path><path id="路径-4" class="cls-10" d="M840.72,220.07v0c-2.56-7.23-10.9-10.63-18-9.58,5.25-3.26,13.91-4.14,18,.87v0c4.08-5,12.78-4.13,18-.87C851.63,209.49,843.29,212.89,840.72,220.07Z"></path></g><g id="绿植"><path id="路径-61" class="cls-11" d="M54.17,676.4q-49-22-44,21.64Q13,711.59,20.37,715q19.26,23.47,20.37,37.62c1.11,14.14,12.11,30.16,39.66,21q27.55-9.17,37.84,30.68,31.06,41.16,109.13,32.89t-9.93-72q-23.92-9.45-36.54-11.67T168.54,726q0-15.83-22.92-23.11t-19.2-23.14q-15.23-22.43-36.34-6.41T54.17,676.4Z"></path><path id="形状结合-4" class="cls-12" d="M52.64,691.51l48.27,32.22q-3.69-19.38-8.82-31.4c-5.07-11.87,10.59,19.79,10.8,32.72l40.24,26.86-.11-.16q1.66-25.93-1.34-36.2c2.69,3.59,5.56,29.37,4,38l37,24.7c-.21-.24-.34-.41-.34-.41s1.91-14.28.22-21.47c1.67,2,2.79,17,2.3,23.34l30.55,20.39L211.52,804,180,781.68c-8.52,5-20.21,5.79-25.86,5.26q15.67-1.43,22.9-7.19a12.89,12.89,0,0,0,2.5,1.6L90.7,718.45c.2.23.38.45.56.69q-19.74,2.79-35.44-2.38c.84-1.67,14.75,4.83,33.11.45ZM94,768.36q15.81.46,41.17-18.27a23.15,23.15,0,0,0,2.22,2.22C121.39,764.93,104.24,769.9,94,768.36Z"></path><path id="路径-65" class="cls-13" d="M89.57,607.28q-48.25-32.84-44.78,16.51C51,647.36,55,663.12,53,677.56s4.31,41.75,36.56,53q32.25,11.21,18.12,31.79-7.09,31.62,78.22,45.38c85.33,13.76,65-17.87,43.06-52.16-15.87-15.88-18-25.58-18-37.72s11.61-32-21.76-40.24q-22-5-23.06-44-3.45-19.59-42-9.8Q107.06,627.09,89.57,607.28Z"></path><path id="形状结合-5" class="cls-14" d="M74.94,624.74l35.44,45.06.07-.17a44.7,44.7,0,0,0,2.35-28.28l-.08-.31v0c2.34,7.27,6.81,15.94-.61,30.93l30,38.18.19-.27q9-12.72,9-33.46c1.38,4.3,1.41,24-7.16,36.27l26.61,33.82c1.68-2.61,5.88-9.95,5.88-18.15.89,5.65,1,13.22-3.89,20.68L212,799h-6.23l-38-50.55c-18.38,7.84-28.7,4.56-33.81,2.25q15,3.66,31.72-5l-28.87-38.44c.16.29.32.6.5.91-19.21,6.73-39.15,7.53-48.36,2.74q14.79,5.58,47-5.56l-.43.15-32.17-42.84c.07.18.13.35.18.52q-21.19,1.3-33.84-13.49c1.34-1.3,10.35,11.81,32.14,11Z"></path><path id="路径-96" class="cls-15" d="M199.2,608.75q18.63-25.89,33.35,5.26c4.76,17.94-2.75,29.34,21.82,37.5q24.58,8.16,7.44,34.15-7.15,16.35,10.58,20.91t-4.27,36.22q-7.62,17.36,0,23.2c7.63,5.83,22.28,23.35,4.27,57.39s-60.46,7.6-66.83-8.4,6.37-38.06,0-49S162.1,751.28,172,718.47c8.25-13.43,19.74-17.31,8.21-40.16s-14.46-13.68,0-36.19Q189.69,632.42,199.2,608.75Z"></path><path id="形状结合-6" class="cls-16" d="M216.11,638.51l11.35,56.91q11.08-16.29,16-28.43c4.81-12-6.5,21.48-15.5,30.77l9.46,47.45a1.06,1.06,0,0,1,0-.19q19.52-17.16,24.65-26.55c-.64,4.44-16.85,24.7-24.1,29.7l8.71,43.64,0-.53s11.44-8.75,15.34-15c-.25,2.62-10,14-14.88,18.14l7.18,36H248.9l-6.51-38.09c-9.59-2.46-18.39-10.19-22-14.56q12.09,10.07,21.28,11.11a13,13,0,0,0,.63,2.89L224,684.47a6.4,6.4,0,0,1-.09.88q-15.93-12-23.37-26.74c1.77-.58,7,13.85,23.1,23.73ZM191,722.08q10.84,11.5,42,16.19a23.39,23.39,0,0,0,0,3.14C212.8,739,197.16,730.42,191,722.08Z"></path></g><g id="石头"><path id="路径-38" class="cls-17" d="M938.4,787.52q4.35-33.32-22.4-35.89c24.14-2.3,40.12,12.39,40.38,35.89Q948.88,787.78,938.4,787.52Z"></path><path id="路径-39" class="cls-18" d="M950.12,787.65Q957.19,754,932.73,738c20.82,6.57,35.78,16.44,40.64,49.65A190.3,190.3,0,0,1,950.12,787.65Z"></path><path id="路径-40" class="cls-19" d="M977.07,788q-3.14-31.95,22.93-36.61c-16.11-.4-34.09-1.48-47,36.61Q969.4,787.47,977.07,788Z"></path><path id="椭圆形" class="cls-20" d="M927.41,802c16.85,0,29.59.41,29.59-15.39S943.34,758,926.5,758,896,770.81,896,786.61,910.57,802,927.41,802Z"></path><path id="椭圆形备份-6" class="cls-21" d="M960.57,802c10.49,0,18.43.25,18.43-9.44S970.49,775,960,775s-19,7.86-19,17.56S950.07,802,960.57,802Z"></path></g></g><g id="放大镜"><path id="矩形-2" class="cls-22" d="M613.3,674l12.61-12.61a23,23,0,0,1,32.53,0l79.19,79.2a23,23,0,0,1,0,32.52L725,785.74a23,23,0,0,1-32.52,0l-79.2-79.2A23,23,0,0,1,613.3,674Z"></path><path id="形状结合-7" class="cls-23" d="M523,381A179,179,0,1,1,344,560,179,179,0,0,1,523,381Zm0,44A135,135,0,1,0,658,560,135,135,0,0,0,523,425Z"></path><path id="问号" class="cls-24" d="M750.77,478.75l7.19-.88.44,3.57a10.65,10.65,0,0,0,12.11,9.4l3.6-.45A10.8,10.8,0,1,0,771.48,469l-3.6.44-.88-7.15,3.6-.44A18,18,0,1,1,775,497.54l-3.6.44A18.21,18.21,0,0,1,752,485.85l-7.55.93-.88-7.14,7.2-.89ZM740,480.08l.88,7.14-7.2.89-.87-7.15Z"></path><path id="问号-2" class="cls-25" d="M718.81,441.12l3.72-3.71,1.84,1.84a7.7,7.7,0,0,0,11.08-.05l1.86-1.86a7.8,7.8,0,1,0-11-11l-1.85,1.85-3.68-3.67,1.86-1.86A13,13,0,1,1,741,441l-1.85,1.85a13.17,13.17,0,0,1-16.45,1.74l-3.9,3.9-3.68-3.68,3.71-3.71Zm-5.56,5.57,3.67,3.68-3.71,3.71-3.68-3.68Z"></path></g><path id="路径-5" class="cls-26" d="M456.08,829.5c22.33,7,13.44,11.18,6,15.29-13.64,7.54-7.51,14.14-.58,20.21,10.27,9,86.93,30.63,170.05,12.22,77.51-17.16,65.83-48,45.91-62C661.43,804,591.5,778.49,511.54,784c-48.12,3.3-68.78,11.56-72.79,17.93C432.11,812.47,431.21,821.71,456.08,829.5Z"></path><g id="人物"><path id="路径-6" class="cls-27" d="M507.22,830.51c-3.55,3.26-6.07,4-6.8,6.74s1.92,9,5.19,10.4c4.15,1.72,11.5,4.23,13.56,5s16.3,5.56,20.13,2.66,0-9.5-8.36-14-20.83-10-20.83-10Z"></path><path id="路径-7" class="cls-27" d="M585.31,775.68c0,4.81-1.2,7.17.29,9.56s7.92,4.76,11.15,3.29c4.09-1.86,10.94-5.52,12.89-6.51s15.18-8.13,15.67-12.91-7-6.46-15.94-3.44-21.51,8.42-21.51,8.42Z"></path><path id="路径-8" class="cls-28" d="M598,770.2c.77-44.9-7-78.81-17-85.12-12.41-14.32-34.86-20.26-34.86-20.26L505,685.08s37.54,16.23,61.21,32.49c1.86,15.92,2.85,18.61,7.23,31.1,5.46,15.52,10.66,21.9,12.2,26.33S598.85,775.87,598,770.2Z"></path><path id="路径-9" class="cls-29" d="M537,694.3c1.43,30.37-1.66,43.49-3.74,66.7S520.7,822.11,518,835.55c-1.81,9.14-16.66,3.49-15.89-4.55s1.17-56-.55-69.94S497,676.54,497,676.54l37.77-4.71Z"></path><path id="形状结合-8" class="cls-30" d="M512.79,538.08a14,14,0,0,1,9.19,4.73,11.47,11.47,0,0,1,1.78,2.59l.09.18-.1-.49c1.12.32,1.6,2.3,1.64,4.71V550c2.71-.74,4.65,7.54-1.25,7.76a6.66,6.66,0,0,1-.69,1.39c-1.49,2.17-3.12,5-5.43,6.63l0,6.08L506,572l0-7.14a10.87,10.87,0,0,1-2.48-2.9,22,22,0,0,1-2.18-4.23h.24c-7,.49-4.68-9.16-1.71-7.64,0-.32,0-.65,0-1a13.29,13.29,0,0,1,3.13-7.27A11.12,11.12,0,0,1,512.79,538.08Z"></path><path id="路径-10" class="cls-31" d="M524.61,551c4.13-3.92,5.63-17-2.19-20.34-.88-1-2.74-1.32-5.24-1.36-1.81,0-2,.63-2.94.47s-2.29-2.31-5.82-2.74c-1.91-.26-7.68,1.14-8.93,2.74a18.29,18.29,0,0,0-6.37,11.74c-.74,5.54,2.17,8.29,4.59,12.49,2.24-1.39,2.78-4.59,4.36-6.67a21.81,21.81,0,0,1,8.08-5.82c6.7-1,9.91-1,12.93,5Z"></path><path id="路径-109" class="cls-32" d="M533.53,483.33a31.14,31.14,0,0,1-1.86-12.81c1.11-2.8,1.78-1.86,1.62-.25,1-1.26,4.94-7.2,12.59.09,1.38,3.81,2,11.91-2.88,16.47Q538.28,490.12,533.53,483.33Z"></path><path id="路径-11" class="cls-33" d="M515,575.39s19-25.47,18.21-89.66c1.56-10,9.83-8.79,14.31-6.67,0,0,15.48,95.94.48,109.94"></path><path id="路径-2-2" class="cls-34" d="M505.19,567q9.88,5,12.85.31c2.79.1,21-1.63,30,14.28,5.71,17.17,10,58.57,5,79.35-5,23.06-31.17,25.57-57,23.28-10.67-12.79-26.71-66.67-21-87.22Q481.27,575.34,505.19,567Z"></path><path id="路径-12" class="cls-35" d="M545,617l-4-1.8A7.81,7.81,0,0,1,536.4,609l-3.92-32.08a3,3,0,0,1,2.57-3.28,3.1,3.1,0,0,1,.86,0,5.33,5.33,0,0,1,4.39,4.62L545,617Z"></path><path id="路径-109-2" class="cls-32" d="M527.86,597.55a31.31,31.31,0,0,1,5.42-11.76c2.46-1.74,2.51-.59,1.5.67,1.48-.53,8.06-3.34,10.51,6.93-.92,4-4.83,11.07-11.39,12.25Q528.16,605.82,527.86,597.55Z"></path><path id="路径-13" class="cls-36" d="M488.22,589.3S505,594,502.87,630.74L529,596.38c10,3.08,6.6,12.41,5,18.64l-17,37.22c-6.5,11.22-16.59,8.52-21,7.68s-9.87-6-11.57-10.22c-8-11.67-12.59-24.16-12.48-45C471.92,604.74,472.06,584.55,488.22,589.3Z"></path><path id="_Path_" class="cls-37" d="M553.41,543l-11.54,19.16L530.74,569a7.12,7.12,0,0,0,.62,7c1.86,2.27,4.54,2.47,4.95,2.68q5.78-2.68,11.33-5.56l20.82-.21Z"></path><g id="矩形-3"><g id="蒙版"><path id="path-28-2" class="cls-38" d="M553.41,543c-3.5,1.85-3.09,11.54.42,18.54,3.5,6.81,11.13,13.19,14.63,11.34s2.68-10.92,0-17.11c-3.5-7.62-11.54-14.63-15.05-12.77Z"></path></g><g class="cls-39"><path class="cls-1" d="M548.51,560.71l7.06-3.75a4,4,0,0,1,5.41,1.65h0a4,4,0,0,1-1.65,5.41l-7.06,3.76a4,4,0,0,1-5.41-1.66h0A4,4,0,0,1,548.51,560.71Z"></path></g></g><polygon id="路径-110" class="cls-38" points="564.74 545.38 569.26 536.87 571.52 540.91 582.12 531.25 570.28 544.24 569.1 540.99 564.74 545.38"></polygon><polygon id="路径-110-2" class="cls-38" points="572.26 559.11 580.84 554.74 580.38 559.35 594.6 557.52 577.45 561.36 578.35 558.02 572.26 559.11"></polygon></g></g></g></g></svg>