<?xml version="1.0" standalone="no"?><!DOCTYPE svg PUBLIC "-//W3C//DTD SVG 1.1//EN" "http://www.w3.org/Graphics/SVG/1.1/DTD/svg11.dtd"><svg t="1677311320166" class="icon" viewBox="0 0 1024 1024" version="1.1" xmlns="http://www.w3.org/2000/svg" p-id="2781" xmlns:xlink="http://www.w3.org/1999/xlink" width="200" height="200"><path d="M513.04903111 939.34705778c-2.47011555 0-4.94023111-0.30833778-7.35232-0.92046223-3.74556445-0.95573333-92.62990222-24.10496-182.38236444-87.0957511-121.22680889-85.08074667-185.30645333-202.06592-185.30645334-338.28864V212.73031111a29.72672 29.72672 0 0 1 29.72672-29.72672c161.90008889 0 328.99640889-93.56174222 330.66325334-94.50609778a29.69258667 29.69258667 0 0 1 29.56401778 0.15701334c1.61336889 0.93297778 164.96412445 94.34908445 328.29781333 94.34908444a29.72672 29.72672 0 0 1 29.72672 29.72672v300.31189334c0 135.41262222-63.67800889 252.12472889-184.14136889 337.51381333-89.19950222 63.22972445-177.54794667 86.84544-181.25937778 87.81824-2.46897778 0.65194667-5.00849778 0.9728-7.53664 0.9728zM197.46133333 241.56615111v271.47605334c0 117.10919111 53.34926222 214.20714667 158.55616 288.61553777 66.78300445 47.22005333 134.74133333 70.27712 156.92458667 77.01731556 22.08426667-6.86193778 89.60682667-30.24554667 155.95861333-77.63512889 104.59591111-74.69966222 157.63569778-171.59395555 157.63569778-287.99772444V241.58435555c-140.56106667-8.10894222-270.57265778-70.67420445-313.64664889-93.41724444-43.60874667 22.57351111-175.94481778 85.20817778-315.42840889 93.40017778z" p-id="2782"></path><path d="M484.352 662.59854222a29.63342222 29.63342222 0 0 1-21.01703111-8.70286222L328.92472889 519.49112889a29.72672 29.72672 0 0 1 42.03633778-42.04088889l113.39093333 113.39093333 196.43960889-196.45098666a29.72672 29.72672 0 0 1 42.04202666 42.03633778L505.37699555 653.89568a29.65048889 29.65048889 0 0 1-21.02499555 8.704z" p-id="2783"></path></svg>
